<svg width="1024" height="1024" viewBox="0 0 1024 1024" fill="none" xmlns="http://www.w3.org/2000/svg">
<path d="M409.474 213.415C445.019 212.466 480.779 213.419 516.347 213.028C543.636 212.728 570.469 213.259 597.731 214.225C643.13 215.832 690.864 221.117 725.743 255.439C767.074 296.24 771.103 355.243 772.503 411.203C772.865 425.634 772.754 440.155 772.741 454.645L772.72 524.369C772.72 540.807 772.882 557.281 772.712 573.755C772.099 632.717 772.188 701.015 731.22 746.716C691.06 791.524 628.751 793.068 574.596 794.863L446.473 794.944C425.486 794.769 405.148 794.509 384.167 793.62C338.706 791.699 293.945 786.483 259.164 751.963C218.847 711.954 244.375 670.196 243.064 614.965C243.458 580.908 273.126 522.874 274.062 488.773C276.156 412.439 200.544 321.433 253.864 260.832C294.258 214.922 355.193 214.912 409.474 213.415Z" fill="#FDF1E1"/>
<path d="M246.637 554.472C242.769 548.624 238.584 520.468 237.15 512.331L224.979 439.732C216.81 394.114 209.361 348.369 202.636 302.516L196.267 260.5C193.812 244.21 186.067 224.218 206.642 218.398C245.731 207.34 285.396 200.236 325.225 192.705C366.12 184.841 407.117 177.522 448.206 170.752C469.058 167.327 489.951 164.157 510.882 161.244C523.529 159.485 536.162 157.878 548.878 157.032C566.239 155.877 569.354 166.232 573.627 180.394C575.984 188.227 577.9 195.787 579.692 203.753C605.722 202.195 653.16 198.356 677.619 205.225C700.942 219.171 724.932 247.354 743.802 266.056C757.683 279.809 776.939 297.325 786.539 311.515C793.39 321.632 788.152 368.888 787.821 382.154C787.594 391.211 786.147 409.533 784.789 417.713C781.129 421.873 765.057 439.802 761.156 440.816C759.468 439.135 759.399 436.729 759.351 434.462C759.013 419.267 770.516 334.752 762.307 327.167C751.108 316.818 679.659 325.853 668.336 318.948C664.931 316.869 663.518 312.262 663.139 308.53C661.423 291.902 674.325 235.795 661.651 225.165C659.976 223.765 657.936 223.621 655.841 223.444C642.711 222.324 628.631 223.193 615.454 223.647C595.674 224.354 575.894 225.173 556.114 226.105C497.512 228.624 438.935 231.858 380.408 235.807C360.636 237.101 340.904 238.938 321.233 241.315C314.668 242.166 308.011 242.749 301.758 244.852C295.935 256.371 295.708 288.225 294.741 302.866C286.449 418.302 273.589 533.363 256.19 647.779C254.012 661.819 242.084 726.439 245.007 733.749C245.521 735.038 248.361 735.866 249.641 736.259C261.621 739.893 275.782 740.369 288.249 742.244C324.182 747.685 360.173 752.733 396.217 757.381C425.302 761.07 683.712 792.17 695.297 784.867C708.716 776.406 727.365 657.902 732.706 635.808L691.589 677.327C667.247 701.931 669.39 703.152 637.294 715.316L605.55 727.556C594.93 731.577 565.053 745.334 555.57 736.335C553.668 734.528 552.972 730.053 553.502 727.598C562.131 700.787 582.248 662.618 596.308 639.159C599.21 634.311 629.713 605.176 634.083 600.88C658.225 577.435 682.078 553.685 705.628 529.647C738.654 496.061 771.405 462.202 803.873 428.071C811.392 420.324 818.849 412.513 826.237 404.639C838.388 391.713 850.504 376.186 870.359 379.585C894.192 383.664 917.073 407.665 913.4 432.749C912.531 439.121 910.14 445.191 906.439 450.449C895.501 466.271 871.117 490.432 857.196 505.237L769.847 598.412C773.417 601.784 774.775 603.597 775.361 608.755C779.73 622.044 788.021 758.001 786.202 771.434C782.335 777.579 779.013 779.454 771.632 781.109C757.256 784.33 741.315 783.502 726.655 784.723C724.05 794.266 720.935 806.148 711.665 811.375C695.8 820.305 624.062 807.637 602.332 806.679C596.032 807.196 587.238 808.941 580.836 809.961C568.644 811.865 556.438 813.671 544.219 815.395C499.421 821.622 452.642 826.38 407.682 831.594C388.939 833.835 370.173 835.862 351.386 837.689C341.233 838.669 330.711 840.165 320.513 839.917C316.279 839.813 313.013 839.034 309.386 836.731C296.788 828.732 292.215 783.302 288.9 768.531C269.361 764.539 247.851 763.015 228.99 756.677C219.387 753.45 219.269 735.39 220.376 727.205C223.269 705.807 226.401 684.34 230.237 663.081C233.298 642.717 236.94 622.423 239.853 602.011C242.153 586.647 245.027 569.808 246.637 554.472Z" fill="#111111"/>
<path d="M246.651 554.944C242.782 549.089 238.595 520.9 237.162 512.754L224.987 440.068C216.816 394.396 209.366 348.597 202.639 302.689L196.268 260.623C193.813 244.313 186.066 224.298 206.645 218.471C245.744 207.4 285.419 200.287 325.259 192.748C366.164 184.875 407.172 177.547 448.271 170.768C469.128 167.339 490.026 164.165 510.963 161.249C523.613 159.488 536.249 157.879 548.968 157.032C566.333 155.876 569.449 166.243 573.723 180.422C576.081 188.264 577.997 195.833 579.79 203.809C514.024 207.797 449.049 210.635 383.142 215.918C364.363 217.306 345.614 219.075 326.906 221.224C316.982 222.324 307.115 223.388 297.29 225.334C287.168 227.339 282.698 232.05 280.615 242.22C277.407 257.872 276.389 274.034 274.807 289.912C274.233 296.721 272.89 308.334 272.946 314.648L272.57 315.599C268.227 376.879 262.033 438.014 253.996 498.919L249.222 536.441C248.759 540.087 247.473 551.906 246.651 554.944Z" fill="#E5B670"/>
<path d="M272.42 314.944C270.371 314.68 268.237 314.45 266.789 313.12C269.127 312.599 270.073 313.331 272.789 314.071L272.42 314.944Z" fill="#F5A75B"/>
<path d="M544.16 178.944L545.819 180.551C547.22 180.65 548.213 180.743 549.601 180.967L549.789 182.837C547.459 184.298 546.849 184.234 544.575 183.106C543.507 180.545 543.695 181.877 544.16 178.944Z" fill="#F69336"/>
<path d="M534.789 167.537L536.171 166.944C537.778 168.315 539.253 169.586 540.789 171.01L540.681 171.944C538.135 171.925 538.29 171.942 535.923 171.202L536.024 169.235L535.038 168.465L534.789 167.537Z" fill="#F2CB9C"/>
<path d="M560.814 187.944C562.761 188.552 566.648 192.335 567.789 193.944C563.42 193.648 560.492 192.282 560.814 187.944Z" fill="#ECBF86"/>
<path d="M246.79 420.944L248.815 421.935C250.124 423.902 249.774 422.789 249.664 425.476C249.14 425.655 248.162 425.824 247.591 425.944C246.51 424.535 246.887 423.357 246.79 420.944Z" fill="#F5A75B"/>
<path d="M242.312 470.944C244.025 472.7 244.225 476.275 244.79 478.944C241.429 477.247 241.371 473.892 242.312 470.944Z" fill="#F2CB9C"/>
<path d="M535.789 168.461C533.232 169.09 534.431 169.194 532.056 168.234C530.58 166.042 530.705 167.138 530.916 164.975C533.218 164.788 533.101 165.441 535.556 167.343L535.789 168.461Z" fill="#F5A75B"/>
<path d="M251.004 297.915C251.292 297.274 251.824 296.901 252.384 296.948C252.943 296.995 253.437 297.454 253.662 298.138C253.888 298.823 253.809 299.617 253.457 300.2C252.962 301.017 252.077 301.186 251.431 300.584C250.785 299.982 250.598 298.816 251.004 297.915Z" fill="#F5A75B"/>
<path d="M225.79 289.098L226.385 288.944C228.351 289.977 227.469 289.46 228.79 291.944L227.008 291.615C225.508 290.222 225.876 291.046 225.79 289.098Z" fill="#ECBF86"/>
<path d="M399.305 198.944L400.294 199.785C401.095 201.934 400.901 201.143 399.884 203.944L399.348 203.584C398.398 201.618 398.852 201.691 399.305 198.944Z" fill="#ECBF86"/>
<path d="M260.789 324.122L261.702 323.944L261.789 326.944L260.792 326.922L260.789 324.122Z" fill="#F5A75B"/>
<path d="M288.789 768.944C340.773 776.205 392.812 783.067 444.903 789.526C476.669 793.221 508.457 796.745 540.26 800.098C560.275 802.23 582.016 804.191 601.789 806.871C595.499 807.385 586.717 809.12 580.323 810.135C568.148 812.027 555.959 813.823 543.757 815.537C499.021 821.728 452.306 826.459 407.408 831.642C388.691 833.87 369.951 835.886 351.189 837.702C341.05 838.676 330.543 840.164 320.359 839.917C316.131 839.814 312.869 839.039 309.247 836.749C296.667 828.797 292.1 783.63 288.789 768.944Z" fill="#E5B670"/>
<path d="M464.789 813.89C465.339 810.583 465.089 809.264 466.792 806.944L467.619 807.358C468.202 809.95 467.203 812.82 465.915 814.944L464.789 813.89Z" fill="#F5A75B"/>
<path d="M465.985 814.82C468.511 815.927 467.792 815.126 468.789 816.921L467.382 817.784C463.917 817.909 465.341 818.303 462.789 817.071C462.972 814.901 462.6 815.97 464.604 813.944L465.985 814.82Z" fill="#ECBF86"/>
<path d="M442.991 800.944C445.062 801.74 444.377 801.32 445.789 802.847C445.63 805.268 445.561 804.62 443.584 806.944L442.183 806.685C441.217 804.75 442.241 803.08 442.991 800.944Z" fill="#F5A75B"/>
<path d="M322.565 819.154L323.597 818.944C324.852 821.169 325.893 822.405 325.781 824.944C323.556 823.558 322.875 822.674 321.789 820.315L322.565 819.154Z" fill="#F5A75B"/>
<path d="M423.687 793.944L424.789 794.563C424.014 796.894 423.436 797.206 421.589 798.944L419.789 797.992C420.054 796.274 421.817 795.475 423.687 793.944Z" fill="#F5A75B"/>
<path d="M467.99 797.944L468.57 798.599C469.045 800.762 468.732 800.406 467.8 802.944L466.839 802.034C466.659 799.935 466.956 800.19 467.99 797.944Z" fill="#F5A75B"/>
<path d="M478.789 808.944C481.535 809.979 481.269 810.296 481.789 812.751C480.888 813.068 481.44 813 480.141 812.509L478.789 808.944Z" fill="#ECBF86"/>
<path d="M770.123 597.944C773.705 601.329 775.067 603.149 775.655 608.326C780.039 621.663 788.357 758.124 786.532 771.607C782.653 777.774 779.32 779.656 771.914 781.317C757.49 784.55 741.497 783.719 726.789 784.944C727.986 778.75 731.443 767.648 733.123 761.1C736.636 747.23 739.83 733.283 742.714 719.275C750.355 682.606 755.72 645.424 763.181 609.032C763.25 602.976 765.857 601.862 770.123 597.944Z" fill="#F38112"/>
<path d="M769.468 597.944C772.914 601.392 774.224 603.247 774.789 608.521C771.989 610.51 768.483 613.542 765.357 613.944L763.821 613.183C763.388 611.744 763.109 610.7 762.789 609.241C762.856 603.071 765.364 601.935 769.468 597.944Z" fill="#E5B670"/>
<path d="M757.005 753.944C758.29 754.865 760.695 758.586 761.789 760.149L761.246 761.308C755.823 761.553 755.266 765.408 752.602 769.944C750.516 769.209 751.433 769.772 749.884 768.01L750.556 767.275L751.623 766.951C752.412 764.196 749.578 763.434 749.802 759.911L751.114 759.54C753.764 761.202 751.413 762.063 753.472 763.527L755.089 761.004L756.679 760.759L757.311 759.884C756.523 757.163 756.428 756.706 757.005 753.944Z" fill="#F69336"/>
<path d="M765.805 748.758C763.439 748.164 763.198 747.301 760.853 747.645C759.663 749.411 760.264 749.054 758.607 749.944L757.905 749.203C757.792 746.081 757.224 744.814 760.258 743.661C767.429 747.214 763.452 741.895 768.291 740.944L769.788 742.05C769.828 744.389 769.186 744.308 767.315 746.715C766.627 748.353 767.141 747.686 765.805 748.758Z" fill="#F5A75B"/>
<path d="M759.475 727.944L760.789 728.816C760.44 734.494 755.971 730.49 759.356 737.758L758.706 738.944C756.678 738.602 756.964 738.072 755.3 735.791C754.069 734.487 753.258 735.177 751.789 733.273C757.412 733.015 756.713 732.562 759.475 727.944Z" fill="#F69336"/>
<path d="M767.447 746.944C770.086 748.973 776.084 747.404 778.789 751.552L778.416 752.918C776.876 753.232 770.269 750.59 766.889 750.276L765.789 749.056C767.256 747.948 766.691 748.638 767.447 746.944Z" fill="#F48615"/>
<path d="M770.789 724.944C772.439 725.22 771.903 725.036 773.427 726.02C774.068 729.665 776.678 736.176 776.789 737.91C774.987 737.952 775.613 738.058 773.859 737.436C772.196 733.932 771.59 728.957 770.789 724.944Z" fill="#F5A75B"/>
<path d="M769.789 688.944C772.144 689.175 773.036 689.196 775.336 689.946C776.22 692.146 775.712 691.908 774.667 694.907L773.489 695.944L772.207 695.461C770.43 693.036 770.444 691.992 769.789 688.944Z" fill="#F48615"/>
<path d="M773.05 762.953C772.721 762.688 777.754 768.163 777.789 768.206L776.739 768.724C775.66 770.197 775.684 770.535 774.17 770.944L773.196 769.521C772.727 766.324 772.645 766.094 773.05 762.953Z" fill="#F69336"/>
<path d="M752.789 675.947C756.966 675.87 763.262 677.429 762.761 682.944C760.913 681.932 759.133 679.579 757.643 677.879C756.093 677.928 754.57 678.047 753.033 678.244L752.789 675.947Z" fill="#F69336"/>
<path d="M746.295 737.944C749.311 739.826 750.216 739.673 749.613 743.723C747.809 744.036 747.919 744.12 746.26 743.27C745.477 740.635 745.802 741.144 746.295 737.944Z" fill="#F69336"/>
<path d="M753.203 724.944C753.769 725.036 754.268 725.325 754.789 725.543C753.665 728.405 752.332 728.145 749.793 730.943L748.899 731.944C748.326 731.528 748.184 731.056 747.789 730.379C748.631 728.187 751.215 726.53 753.203 724.944Z" fill="#F69336"/>
<path d="M771.992 651.944C774.489 655.265 770.523 658.973 768.301 660.944C768.13 660.492 767.96 660.032 767.789 659.579C769.625 656.813 770.32 655.725 771.684 652.645L771.992 651.944Z" fill="#F69336"/>
<path d="M739.67 757.371C740.28 756.857 741.066 756.804 741.719 757.227C742.372 757.658 742.783 758.496 742.789 759.417C742.795 760.338 742.396 761.191 741.75 761.636C740.812 762.278 739.64 761.885 739.083 760.745C738.527 759.605 738.781 758.118 739.67 757.371Z" fill="#F69336"/>
<path d="M744.359 771.944L744.789 771.987C743.507 775.746 743.013 776.767 742.304 780.944C740.551 778.306 740.264 775.029 741.738 772.249L744.359 771.944Z" fill="#F69336"/>
<path d="M752.789 720.075C755.041 719.981 756.644 719.615 758.518 720.754L758.789 722.18C755.743 722.813 755.564 723.433 753.392 722.367L752.789 720.075Z" fill="#F69336"/>
<path d="M765.604 673.944C766.323 674.666 768.048 677.266 768.789 678.257L768.693 679.944C766.532 679.327 765.553 678.086 764.789 675.848L765.604 673.944Z" fill="#F69336"/>
<path d="M762.789 691.944C765.462 692.703 768.623 694.528 769.789 696.944C766.142 696.54 763.055 695.691 762.789 691.944Z" fill="#F69336"/>
<path d="M766.058 766.944L767.204 767.861C768.17 770.147 767.701 772.222 767.475 774.944L766.385 773.666C765.47 771.162 765.821 769.741 766.058 766.944Z" fill="#F48615"/>
<path d="M751.789 681.944C754.699 683.198 754.471 684.693 754.789 687.944L753.064 687.255C751.459 685.14 751.988 685.471 751.789 681.944Z" fill="#F69336"/>
<path d="M757.77 706.225C758.409 705.844 759.212 705.851 759.851 706.245C760.484 706.647 760.844 707.362 760.783 708.11C760.722 708.852 760.245 709.505 759.559 709.791C758.586 710.193 757.471 709.778 757.001 708.838C756.532 707.899 756.865 706.763 757.77 706.225Z" fill="#F5A75B"/>
<path d="M761.789 736.373C765.803 735.879 766.276 735.286 767.789 737.913C764.178 737.962 764.081 738.157 761.789 736.373Z" fill="#F69336"/>
<path d="M752.217 744.944L752.789 745.741C752.017 748.261 750.722 748.879 748.698 750.944L747.789 749.57C749.12 746.578 749.363 747.115 752.217 744.944Z" fill="#F69336"/>
<path d="M798.313 461.944C801.825 464.552 811.03 472.927 813.789 476.141C807.207 484.09 797.451 493.9 790.164 501.513C775.985 516.281 761.716 530.968 747.365 545.572C713.183 580.403 676.972 617.953 641.459 651.208L639.651 651.944C635.566 650.767 631.847 640.816 626.789 635.778C630.177 630.878 640.762 621.125 645.412 616.569L688.785 574.443C726.962 536.777 761.42 500.513 798.313 461.944Z" fill="#F69336"/>
<path d="M740.231 533.944L741.737 534.728C743.457 534.176 742.914 534.323 744.789 534.298C742.959 538.605 743.309 533.957 741.505 537.454L743.845 540.971C743.865 541.253 743.651 542.353 743.593 542.681L742.753 542.944C739.429 539.91 739.429 538.001 740.231 533.944Z" fill="#F5A75B"/>
<path d="M676.381 592.944L679.447 593.928L679.789 595.069L677.766 598.372L677.631 599.693L676.569 599.944L675.789 599.118C676.112 596.821 676.247 595.263 676.381 592.944Z" fill="#F5A75B"/>
<path d="M725.928 543.947C726.956 543.927 726.755 544.002 727.789 544.393L727.712 545.49C726.226 547.754 725.915 548.289 724.83 550.819L724.571 551.43L723.951 551.944C723.233 550.154 725.095 546.451 725.928 543.947Z" fill="#F5A75B"/>
<path d="M688.789 586.706L689.023 584.402L689.704 583.944C691.219 585.961 691.275 588.493 689.059 589.944L688.789 586.706Z" fill="#F5A75B"/>
<path d="M796.403 477.944L797.759 478.539C798.027 480.445 796.479 482.144 795.314 483.944C794.096 483.652 794.655 483.955 793.789 482.826C794.916 480.978 795.468 479.89 796.403 477.944Z" fill="#F5A75B"/>
<path d="M770.922 501.944L771.789 502.377C771.171 504.644 769.905 505.063 767.792 506.944L766.789 506.733C767.337 504.441 768.781 503.877 770.922 501.944Z" fill="#F5A75B"/>
<path d="M750.983 529.944L751.789 530.867C751.676 533.214 751.549 532.658 749.929 534.944C748.754 533.465 749.037 534.313 748.789 532.468L750.983 529.944Z" fill="#F5A75B"/>
<path d="M699.789 576.944C702.834 577.001 703.076 577.066 704.789 579.754C701.564 580.292 701.712 579.787 699.789 576.944Z" fill="#F5A75B"/>
<path d="M696.122 575.944C698.435 578.182 697.894 579.243 697.149 581.944C695.377 579.482 695.698 578.747 696.122 575.944Z" fill="#F5A75B"/>
<path d="M680.35 596.944C682.086 597.242 681.52 596.938 682.789 598.019L682.379 599.944L679.789 598.778L680.35 596.944Z" fill="#F5A75B"/>
<path d="M787.789 482.097C789.391 481.885 790.05 481.934 791.674 482.004L791.789 483.218L790.079 483.944L787.789 482.097Z" fill="#E5B670"/>
<path d="M822.208 484.944C826 487.57 833.453 495.041 836.789 498.421C828.833 507.947 818.967 517.979 810.349 527.039C795.567 542.563 780.696 558.004 765.742 573.362C734.185 605.807 699.175 642.539 666.93 673.944C661.869 669.045 658.773 666.896 652.348 664.009L651.155 663.485L650.789 662.21C655.94 655.086 665.344 647.279 671.673 640.933C681.629 630.943 691.832 621.035 701.712 610.968C742.19 569.751 784.667 528.796 822.208 484.944Z" fill="#F69336"/>
<path d="M685.277 636.944C687.575 642.335 681.412 644.009 681.271 649.103L680.074 649.944L678.965 649.301C677.941 644.179 681.578 640.547 685.277 636.944Z" fill="#F5A75B"/>
<path d="M706.451 616.944L707.301 616.951L707.789 617.522C705.57 620.803 704.81 623.868 705.287 627.944L703.882 626.741C702.115 620.926 702.175 620.158 706.451 616.944Z" fill="#F5A75B"/>
<path d="M793.36 522.944C795.889 523.326 797.233 523.32 799.286 524.648C799.988 526.835 800.09 525.776 798.716 527.9L797.591 527.944L797.452 526.058L796.882 525.739C794.34 525.983 795.246 525.757 793.083 527.932L792.301 527.919L793.309 527.637L792.089 527.368C791.709 524.235 791.337 525.663 793.36 522.944Z" fill="#F5A75B"/>
<path d="M780.789 531.944L783.662 532.62C785.746 534.557 785.095 533.933 785.789 536.944C781.615 535.548 780.958 535.857 780.789 531.944Z" fill="#F48615"/>
<path d="M777.609 545.944C778.378 547.175 778.345 547.501 778.789 548.898C777.834 550.904 777.595 550.516 775.154 551.944L774.789 550.067C776.773 548.32 776.64 548.369 777.609 545.944Z" fill="#F5A75B"/>
<path d="M701.789 625.944L701.689 627.055L696.244 629.944C695.802 627.111 695.314 628.111 696.724 626.409L701.789 625.944Z" fill="#F5A75B"/>
<path d="M731.756 594.944L731.789 595.261C730.568 596.835 729.313 596.948 726.991 597.944L726.789 596.693C728.487 595.193 728.883 595.544 731.756 594.944Z" fill="#F5A75B"/>
<path d="M814.762 502.944L815.517 503.542C816.121 505.808 815.775 505.244 813.926 507.944L812.869 507.211C812.611 504.893 812.914 505.404 814.762 502.944Z" fill="#F5A75B"/>
<path d="M614.598 641.944C627.069 649.308 625.439 652.794 629.605 665.017C631.119 669.018 635.224 668.434 637.752 669.882C651.121 677.548 671.363 684.129 644.776 694.362C636.909 697.388 628.611 700.463 621.005 703.462C613.755 706.193 606.54 709.021 599.365 711.944C594.843 705.651 590.895 700.236 583.789 696.764C587.764 687.094 607.848 649.123 614.598 641.944Z" fill="#F5A75B"/>
<path d="M615.152 678.571C616.706 676.356 616.63 676.152 619.114 674.967C621.73 674.833 622.125 675.277 624.38 676.582C627.968 681.257 623.596 682.922 623.409 688.07C624.311 690.503 624.144 690.989 623.985 693.521L623.138 693.944C620.078 691.476 620.592 690.996 617.261 690.813L617.004 689.805L614.09 686.786C610.877 684.664 612.161 685.277 608.074 684.995L607.789 683.972C610.107 679.889 610.579 680.284 614.59 679.896L615.152 678.571Z" fill="#F69336"/>
<path d="M624.346 676.944C628.021 681.522 623.543 683.152 623.351 688.192C624.275 690.574 624.104 691.051 623.941 693.53L623.073 693.944C619.939 691.527 620.465 691.058 617.053 690.878L616.789 689.891C617.138 687.661 617.443 686.307 618.012 684.125L621.289 685.044C622.839 682.496 622.789 682.116 623.322 679.119L624.346 676.944Z" fill="#F48615"/>
<path d="M620.301 678.944L623.789 679.04C623.196 682.027 623.252 682.405 621.527 684.944L617.881 684.029C617.209 683.183 617.161 682.598 616.789 681.552C617.818 679.708 617.849 680.155 620.301 678.944Z" fill="#F5A75B"/>
<path d="M614.789 678.703C616.305 676.408 616.231 676.196 618.653 674.968C621.204 674.829 621.59 675.289 623.789 676.642L622.815 678.944L619.831 678.842C618.775 678.586 616.014 678.703 614.789 678.703Z" fill="#F38112"/>
<path d="M619.666 661.944C621.387 662.484 625.566 670.347 619.981 672.944C614.682 672.297 617.829 669.879 614.125 668.333L613.811 669.735C613.364 670.894 613.247 670.937 612.559 672.002L610.707 672.354C608.826 671.03 609.565 671.894 608.789 669.405C609.953 664.261 614.887 662.973 619.666 661.944Z" fill="#E5B670"/>
<path d="M613.648 686.944L616.535 689.994L616.789 691.013C615.841 690.92 614.026 690.265 613.029 689.951L612.218 690.507C613.283 691.818 613.338 691.804 613.998 693.35L613.435 694.141L610.389 694.198C610.231 695.41 610.21 695.901 610.169 697.177L610.142 698.438L609.186 698.944C606.869 697.897 604.333 695.581 603.789 692.944C605.501 688.654 609.612 689.068 613.648 686.944Z" fill="#F38112"/>
<path d="M829.619 425.944C834.391 427.334 865.077 457.994 870.789 464.111C863.113 472.007 855.339 480.18 847.393 487.773L846.542 487.944C833.637 473.595 822.184 461.293 806.789 449.598L829.619 425.944Z" fill="#FDF1E1"/>
<path d="M859.184 399.778L866.467 397.944C872.519 399.682 875.041 400.275 880.111 404.289C889.097 412.149 895.554 417.697 894.716 430.48L893.473 434.286C889.832 440.959 884.878 445.568 879.595 450.944C874.415 445.662 868.445 440.74 863.849 436.015C861.809 434.677 845.451 419.21 841.789 415.978C847.959 407.161 849.422 404.43 859.184 399.778Z" fill="#F69336"/>
<path d="M863.789 436.201C866.879 437.086 867.366 437.736 870.037 436.88C871.658 428.152 874.358 432.101 877.092 430.944C880.16 432.622 879.736 433.075 882.393 432.623L882.512 433.632L880.181 434.407C879.944 436.279 879.833 435.421 880.675 436.997L886.011 436.01C888.495 436.495 889.246 435.577 890.694 434.004L893.789 434.494C890.102 441.084 885.086 445.635 879.736 450.944C874.49 445.728 868.444 440.868 863.789 436.201Z" fill="#F48615"/>
<path d="M880.789 437.008L885.789 435.944L884.851 437.633C882.354 438.143 883.632 438.085 880.789 437.008Z" fill="#F38112"/>
<path d="M859.789 399.77L867.097 397.944C873.171 399.674 875.701 400.265 880.789 404.26C878.701 408.644 879.569 410.344 879.169 414.944C877.853 412.628 875.888 408.312 873.557 407.428C871.082 408.898 871.317 409.619 871.158 412.581C867.711 411.968 867.835 411.582 867.249 408.523C865.491 409.975 864.581 410.046 864.512 412.472C861.651 407.481 862.037 404.188 859.789 399.77Z" fill="#F48615"/>
<path d="M866.789 408.485L868.969 407.944C870.839 409.138 870.267 409.314 870.789 411.944C867.262 411.421 867.389 411.092 866.789 408.485Z" fill="#F38112"/>
<path d="M866.77 407.944C867.373 411.223 867.245 411.637 870.789 412.295C867.933 416.729 863.843 415.792 860.61 419.944L859.256 419.802L858.987 419.163C859.037 415.901 858.54 416.019 856.789 413.475L857.328 412.729C859.263 412.704 860.632 412.68 862.567 412.391L863.956 412.178C864.027 409.577 864.963 409.501 866.77 407.944Z" fill="#F38112"/>
<path d="M889.904 428.944L893.459 429.408L894.789 430.539L893.522 433.944L890.407 433.499C888.853 432.29 888.895 432.219 887.789 430.649L888.097 429.591L889.904 428.944Z" fill="#F38112"/>
<path d="M890.164 428.505L888.104 427.868L887.789 426.852C889.836 425.585 888.675 426.048 891.628 425.949L893.55 426.808C893.871 428.1 893.884 427.628 893.497 428.944L890.164 428.505Z" fill="#F5A75B"/>
<path d="M857.495 413.944C859.32 416.181 859.838 416.077 859.786 418.944C856.556 418.624 857.118 419.072 854.789 417.637C855.174 415.416 855.307 415.941 857.495 413.944Z" fill="#F5A75B"/>
<path d="M877.789 431.071L878.99 429.136L880.145 428.944C881.602 430.596 881.72 430.908 882.789 432.777C880.283 433.236 880.683 432.776 877.789 431.071Z" fill="#F38112"/>
<path d="M883.789 418.311C884.569 417.796 884.114 417.938 885.196 418.055C887.341 421.258 887.762 420.756 887.789 423.944C886.314 423.835 886.81 423.924 885.424 423.346C884.638 421.448 884.086 420.389 883.789 418.311Z" fill="#F5A75B"/>
<path d="M880.275 410.944L881.3 411.838C882.181 413.745 881.642 416.677 881.451 418.944C879.02 416.284 879.854 414.455 880.275 410.944Z" fill="#F5A75B"/>
<path d="M174.037 301.1C176.674 300.328 178.455 299.402 180.927 300.339C186.816 305.002 186.007 318.756 187.676 326.503C191.971 358.537 198.313 390.998 203.354 422.98C205.354 435.664 210.023 454.485 210.858 467.115L210.905 468.148C217.054 488.02 228.18 590.707 239.79 601.849C236.876 622.269 233.233 642.572 230.172 662.944C222.217 655.776 202.657 597.482 196.999 583.229C186.008 555.544 175.646 525.742 164.714 497.792C163.446 493.965 162.222 490.72 160.742 486.974C147.538 450.972 133.278 414.914 120.863 378.546C116.828 366.727 109.101 347.821 107.525 336.189L106.79 333.132C107.288 332.319 107.573 331.388 107.966 330.519C114.716 315.583 157.762 307.517 172.821 301.586L174.037 301.1Z" fill="#F2CB9C"/>
<path d="M173.168 301.119C175.802 300.335 177.581 299.393 180.05 300.345C185.931 305.086 185.123 319.069 186.79 326.944C177.422 326.359 183.976 325.346 178.417 322.39C178.609 322.491 175.092 322.035 172.059 320.316L171.79 320.039C172.074 318.26 173.487 317.618 175.197 316.063C172.161 307.192 178.593 310.924 173.168 301.119Z" fill="#E5B670"/>
<path d="M175.477 315.944C179.054 316.881 178.12 316.156 180.423 318.449L180.79 320.025L180.151 320.944C174.766 320.176 179.624 316.955 172.082 320.188L171.79 319.911C172.097 318.137 173.627 317.496 175.477 315.944Z" fill="#ECBF86"/>
<path d="M160.79 487.612C162.457 487.225 164.487 486.311 165.806 487.64C169.426 491.29 167.565 495.372 164.419 497.944C163.26 494.289 162.142 491.19 160.79 487.612Z" fill="#E5B670"/>
<path d="M210.79 468.607L210.198 469.223L208.915 467.917C205.571 469.642 207.259 473.483 203.105 473.944C202.192 471.682 203.436 470.345 204.595 467.55C206.755 466.426 207.566 467.123 210.74 467.591L210.79 468.607Z" fill="#ECBF86"/>
<path d="M106.79 333.627C109.426 333.147 111.163 332.56 113.659 333.282L113.79 334.066C111.97 335.352 109.8 335.519 107.45 335.944L106.79 333.627Z" fill="#ECBF86"/>
<path d="M122.97 336.944C125.106 338.104 127.806 339.601 128.79 341.897L128.026 342.839L124.668 343.128C122.364 343.918 122.719 344.228 120.79 343.634C122.031 342.3 123.173 341.149 124.24 339.658L122.97 336.944Z" fill="#ECBF86"/>
<path d="M227.79 602.944C232.675 605.273 233.751 608.963 232.009 613.944L230.051 612.427C229.798 608.003 227.739 606.698 227.79 602.944Z" fill="#ECBF86"/>
<path d="M207.622 485.944C209.504 487.19 208.843 486.347 209.79 488.437C207.175 491.781 208.453 487.717 205.043 492.67L204.596 492.944L203.79 492.586C203.796 489.483 205.422 487.418 207.622 485.944Z" fill="#E5B670"/>
<path d="M136.79 315.944L137.462 316.489C139.012 321.021 140.548 320.022 142.79 323.944C140.646 323.758 139.814 323.378 138.058 322.07C136.655 319.85 136.87 318.682 136.79 315.944Z" fill="#ECBF86"/>
<path d="M185.69 485.716C184.577 483.789 184.677 484.786 185.031 482.72L186.38 481.944C189.129 482.551 187.976 481.788 189.79 484.634L187.545 486.944C186.065 486.722 186.696 487.103 185.69 485.716Z" fill="#E5B670"/>
<path d="M179.79 432.309L181.06 431.944C183.069 434.248 183.841 434.24 183.787 436.497L183.117 436.944C180.844 435.694 179.875 434.589 179.79 432.309Z" fill="#ECBF86"/>
<path d="M201.684 539.944C202.744 540.459 202.361 540.059 202.79 541.183C201.491 543.194 200.253 544.988 198.867 546.944L197.79 546.43C197.983 544.351 200.321 541.772 201.684 539.944Z" fill="#E5B670"/>
<path d="M134.79 344.004C137.364 343.888 137.213 343.872 139.674 344.608C141.149 346.574 140.868 345.503 140.477 347.944C138.91 347.303 138.071 346.437 135.876 345.662L135.248 345.445L134.79 344.004Z" fill="#E5B670"/>
<path d="M192.37 493.944L193.785 494.475C193.875 496.294 192.669 497.041 191.194 498.944C190.411 498.711 190.509 498.538 189.79 497.781C190.008 495.877 190.917 495.34 192.37 493.944Z" fill="#ECBF86"/>
<path d="M181.459 490.944L180.401 489.962C179.786 488.123 179.276 486.312 180.739 484.944L181.79 485.559L181.459 490.944Z" fill="#ECBF86"/>
<path d="M195.79 456.944C197.234 456.95 198.167 457.059 199.608 457.23L200.79 458.962C198.182 460.045 199.283 460.213 197.125 459.562L195.79 456.944Z" fill="#E5B670"/>
<path d="M178.53 473.944C180.465 475.524 179.662 477.799 179.404 479.944L178.41 479.277C177.286 477.026 177.915 476.899 178.53 473.944Z" fill="#ECBF86"/>
<path d="M190.15 454.144L190.917 453.944L191.79 454.492L191.435 456.944C190.511 456.309 190.494 456.092 189.79 455.218L190.15 454.144Z" fill="#E5B670"/>
<path d="M351.973 294.434C356.711 288.856 359.236 287.446 366.773 287.11C399.215 285.663 432.435 283.111 464.739 287.012C467.838 287.386 471.205 291.631 472.789 294.036C472.545 309.213 469.736 402.772 462.719 409.656C457.652 414.628 449.096 414.092 442.526 413.712C420.331 412.43 398.036 411.316 375.87 409.661C374.256 409.628 372.298 409.446 370.655 409.34C361.032 409.114 345.148 410.865 345.81 397.083C346.581 381.017 348.215 365.059 349.275 349.009C350.77 331.189 350.411 311.888 351.973 294.434Z" fill="#F38112"/>
<path d="M370.789 409.596L372.815 408.742C373.454 405.936 373.703 405.398 375.078 402.958L375.568 402.944C375.831 406.023 375.854 406.869 375.669 409.944C374.159 409.909 372.327 409.71 370.789 409.596Z" fill="#F5A75B"/>
<path d="M410 352.512C411.153 350.863 411.047 350.946 412.714 349.944C415.855 350.094 421.204 354.619 421.789 357.857C420.74 360.572 421.54 359.51 419.318 361.176L418.666 360.853L418.564 359.883C418.329 357.777 418.455 356.319 417.187 354.847C415.206 356.464 414.993 359.078 414.637 361.819C414.541 362.567 414.451 363.316 414.369 364.066L413.754 364.944C411.991 364.01 411.935 363.265 411.146 360.977L410.533 360.764C408.967 359.292 407.385 357.839 405.789 356.406L405.87 355.11C407.536 353.727 408.135 353.499 410 352.512Z" fill="#F69336"/>
<path d="M409.798 352.944L410.789 353.653C409.916 357.388 411.422 357.752 410.306 360.944C408.815 359.517 407.309 358.108 405.789 356.719L405.866 355.463C407.452 354.123 408.023 353.901 409.798 352.944Z" fill="#F69336"/>
<path d="M413.337 343.907C410.433 345.888 409.858 346.167 406.668 345.814C404.772 344.517 405.338 345.368 404.789 343.263C405.748 338.478 409.316 334.277 414.545 335.032C416.823 336.768 417.496 337.029 418.764 339.476C418.764 342.35 419.091 340.981 417.4 343.63L414.771 342.874L413.337 343.907Z" fill="#F69336"/>
<path d="M413.789 339.756L414.856 338.944C416.765 340.925 414.874 340.396 416.789 342.944L414.325 342.293L413.789 339.756Z" fill="#F48615"/>
<path d="M413.098 343.944C412.128 342.917 411.639 342.247 410.789 341.148L411.404 340.214L414.116 339.944L414.789 342.906L413.098 343.944Z" fill="#F5A75B"/>
<path d="M407.548 339.376C408.141 338.907 408.946 338.812 409.631 339.129C410.316 339.447 410.763 340.124 410.788 340.878C410.813 341.633 410.411 342.337 409.748 342.699C408.836 343.197 407.695 342.914 407.122 342.047C406.548 341.181 406.734 340.021 407.548 339.376Z" fill="#F48615"/>
<path d="M399.761 368.944C400.185 368.97 401.324 369.255 401.789 369.357L401.511 370.312C401.373 370.361 399.296 371.146 399.137 371.171C393.697 372.016 390.312 379.705 394.215 383.871C396.282 383.477 395.33 383.888 396.9 382.167C397.788 378.99 395.933 376.247 396.935 374.708L398.479 375.474C399.754 377.703 399.671 377.758 401.705 379.508C399.949 383.196 396.675 381.546 398.812 387.083L398.022 387.944C388.971 386.314 384.611 374.194 399.761 368.944Z" fill="#F69336"/>
<path d="M390.736 317.944C396.377 320.009 394.996 316.833 399.485 320.359C401.249 325.774 394.957 328.318 390.468 329.944C390.006 327.69 389.792 328.672 390.78 326.853L393.883 326.497C393.922 324.628 393.901 321.941 392.267 320.86C390.961 322.119 389.63 323.355 388.275 324.566L387.789 323.976C387.81 321.467 389.213 320.093 390.736 317.944Z" fill="#F69336"/>
<path d="M368.789 367.703C370.897 368.182 370.178 367.629 371.465 368.903L372.718 369.056L375.551 366.782L375.435 365.871C372.751 364.604 372.604 365.074 371.424 363.025L371.708 361.944C375.047 362.467 375.092 363.822 377.35 365.186C382.683 368.409 384.933 367.424 383.149 375.007C383.74 377.087 384.173 377.196 385.789 378.681L385.114 379.795L383.773 379.944C380.356 376.193 383.752 370.604 377.84 368.547C372.784 370.282 375.967 373.228 370.88 372.476C369.993 371.066 369.414 369.285 368.789 367.703Z" fill="#F69336"/>
<path d="M432.796 387.944C439.812 389.945 439.159 397.42 432.564 398.929C431.601 399.149 429.637 396.964 428.74 396.172C426.536 398.49 427.33 398.382 424.794 398.758L424.789 397.824C427.812 394.003 428.356 394.485 432.942 395.212C433.809 393.26 433.095 390.226 432.796 387.944Z" fill="#F69336"/>
<path d="M370.789 335.959C374.11 335.289 375.955 333.44 378.96 334.075C379.916 335.854 379.782 335.803 379.784 337.865C379.433 338.632 378.677 340.581 378.147 341.005L374.196 343.944L373.235 342.894C372.827 341.314 371.396 337.66 370.789 335.959Z" fill="#F69336"/>
<path d="M410.84 322.944C412.73 324.733 412.886 325.468 412.754 327.768C410.959 330.478 407.597 332.154 404.757 333.944C402.808 332.241 403.339 333.259 402.789 330.991C403.954 329.107 407.918 326.207 410.239 323.622L410.84 322.944Z" fill="#F69336"/>
<path d="M360.316 319.944C360.943 320.382 365.554 328.326 365.789 329.14L363.944 331.625C360.961 332.15 360.896 332.2 359.043 330.415C358.246 327.061 359.513 323.429 360.316 319.944Z" fill="#F69336"/>
<path d="M373.789 343.9C371.759 346.815 364.008 351.639 360.659 352.944C359.652 350.944 359.495 349.599 360.318 347.59C363.549 347.137 360.286 348.068 363.521 349.441C366.715 347.288 369.774 345.231 372.869 342.944L373.789 343.9Z" fill="#F48615"/>
<path d="M418.106 365.944L419.556 366.371C420.852 369.379 416.327 368.029 416.301 375.918C413.946 375.903 415 376.22 413.003 374.995L412.789 373.21C414.038 370.152 415.94 368.401 418.106 365.944Z" fill="#F48615"/>
<path d="M383.214 325.944L383.734 327.053C383.144 331.354 383.4 332.671 384.57 336.894L384.789 337.669L384.012 338.944C381.068 333.734 378.915 331.408 383.214 325.944Z" fill="#F69336"/>
<path d="M401.967 357.944L402.789 358.75C401.426 362.262 403.641 363.273 402.012 365.944L398.694 365.537C397.985 365.106 397.216 365.344 396.018 365.374L395.789 364.511C398.455 361.63 398.522 360.177 401.967 357.944Z" fill="#F69336"/>
<path d="M372.414 389.944L373.729 390.759C374.095 393.758 375.609 393.694 375.789 396.558C372.766 396.815 372.461 396.865 370.207 398.944C368.869 398.704 369.143 398.479 367.789 397.179L367.895 395.946C370.817 394.665 370.34 397.152 372.688 396.177C372.529 394.103 372.438 392.025 372.414 389.944Z" fill="#F69336"/>
<path d="M414.279 397.944C416.712 398.189 418.496 398.068 420.789 398.906C419.866 400.235 418.713 400.39 417.083 400.939C415.375 402.836 416.393 402.267 414.088 402.944L412.962 402.345C412.616 399.793 412.668 400.66 414.279 397.944Z" fill="#F69336"/>
<path d="M423.713 344.944C426.449 345.312 431.054 344.806 432.789 346.86L431.972 348.944C428.851 347.42 427.655 347.463 424.286 347.305L423.218 347.259L422.789 346.353L423.713 344.944Z" fill="#F69336"/>
<path d="M370.789 372.38C369.78 372.536 368.77 372.749 367.765 372.944L366.838 372.055C366.594 369.795 367.297 368.952 368.317 366.944L369.045 367.859C369.566 369.358 370.049 371.045 370.789 372.38Z" fill="#F48615"/>
<path d="M396.522 345.944L397.587 346.662L397.789 347.883C395.764 349.748 394.786 350.808 392.997 352.944C392.08 351.841 392.36 352.232 391.789 350.843C392.935 348.09 394.034 347.889 396.522 345.944Z" fill="#F48615"/>
<path d="M382.956 385.944L384.783 388.994C384.798 391.462 384.906 390.572 383.158 392.944C382 392.333 381.889 392.222 380.815 391.425C380.642 388.835 381.338 388.753 382.956 385.944Z" fill="#F69336"/>
<path d="M402.69 385.944C404.065 387.361 403.824 387.716 403.665 389.437C401.906 391.292 401.306 391.609 399.273 392.944L398.789 392.22C399.208 389.218 400.668 387.845 402.69 385.944Z" fill="#F69336"/>
<path d="M453.789 392.944C456.44 393.797 461.233 398.733 462.789 400.944C457.449 400.28 455.514 397.112 453.789 392.944Z" fill="#F69336"/>
<path d="M446.845 394.944C450.079 396.175 448.864 395.24 450.789 397.663C450.689 400.392 448.83 401.749 446.801 403.944L446.251 403.719L445.789 402.52L447.916 399.649C446.799 397.305 446.71 397.452 446.845 394.944Z" fill="#F69336"/>
<path d="M379.46 337.944C380.809 339.79 382.683 341.807 382.789 343.934C380.484 344.102 379.758 342.071 377.789 340.939C378.33 340.535 379.102 338.676 379.46 337.944Z" fill="#F48615"/>
<path d="M370.147 300.944C370.697 301.495 370.365 301.083 370.789 302.412C368.64 304.763 367.99 305.549 366.31 308.295L365.919 308.944C364.838 307.923 365.318 308.456 364.789 306.772C365.704 304.327 368.117 302.685 370.147 300.944Z" fill="#F69336"/>
<path d="M374.789 305.944C377.12 306.39 379.771 307.153 380.789 309.365C380.046 309.598 379.023 309.777 378.239 309.944C375.797 308.56 376.468 308.784 374.789 305.944Z" fill="#F69336"/>
<path d="M412.789 303.944C413.969 304.05 414.732 304.245 415.888 304.481C417.779 306.452 417.194 305.926 417.789 308.944C414.809 308.003 414.078 306.364 412.789 303.944Z" fill="#F69336"/>
<path d="M426.686 406.276C427.605 405.668 428.844 405.918 429.454 406.836C430.065 407.754 429.818 408.993 428.902 409.606C427.982 410.221 426.738 409.973 426.124 409.052C425.512 408.131 425.763 406.888 426.686 406.276Z" fill="#F69336"/>
<path d="M363.789 371.746C363.482 372.106 362.719 372.626 362.298 372.944L361.177 372.314C360.575 369.731 360.356 368.241 362.962 366.944C362.793 370.103 362.356 369.315 363.789 371.746Z" fill="#F69336"/>
<path d="M375.789 379.434L377.403 378.944L380.789 380.607L380.759 381.66L379.821 381.944C377.629 380.92 376.772 380.934 375.789 379.434Z" fill="#F48615"/>
<path d="M424.154 328.944L424.783 329.672C424.807 332.471 424.81 332.332 423.812 334.944C421.903 332.535 423.051 331.803 424.154 328.944Z" fill="#F48615"/>
<path d="M433.875 322.944L434.789 324.091C433.984 325.912 433.371 325.639 430.493 326.944L429.789 326.257C430.484 324.387 431.337 324.449 433.875 322.944Z" fill="#F48615"/>
<path d="M396.98 297.944C398.774 300.059 398.279 300.536 398.789 303.944L397.57 303.542C396.373 301.426 396.883 300.94 396.98 297.944Z" fill="#F69336"/>
<path d="M364.789 336.919C367.47 335.154 366.93 334.892 369.568 334.952L370.789 335.896C368.991 336.477 368.127 336.91 366.485 337.944L364.789 336.919Z" fill="#F48615"/>
<path d="M434.69 400.944C436.043 401.256 436.496 401.454 437.789 401.919L436.526 402.722C434.707 403.024 435.621 403.073 433.789 402.516L434.69 400.944Z" fill="#F69336"/>
<path d="M346.434 468.23C354.347 467.446 365.212 468.465 373.308 469.021L410.53 471.607C439.924 473.321 469.332 474.793 498.751 476.021C548.391 478.399 598.162 478.275 647.747 481.906C659.094 482.737 663.464 493.125 652.304 499.292C640.047 501.241 605.586 498.236 590.972 497.866C539.705 497.003 488.456 495.054 437.267 492.022C410.809 490.554 384.356 489.546 358.023 486.362C353.422 485.482 343.785 485.762 341.149 481.171C337.665 475.103 341.404 470.969 346.434 468.23Z" fill="#111111"/>
<path d="M793.789 604.638C796.428 600.614 801.452 596.265 805.083 592.944C816.39 620.916 824.494 650.876 833.632 679.649C839.235 698.474 846.088 717.009 850.004 736.31C851.915 745.754 850.841 752.381 841.098 755.653C830.001 759.381 817.953 760.617 806.844 763.944L805.511 743.207C805.198 742.068 805.205 738.692 805.171 737.311C801.071 692.834 798.923 649.136 793.789 604.638Z" fill="#E5B670"/>
<path d="M804.789 736.944C807.148 737.52 808.247 737.647 810.382 738.897L812.16 738.497L812.789 739.003C810.011 740.218 809.535 740.253 806.497 740.766C805.244 742.073 805.678 741.335 805.139 742.944C804.817 741.785 804.824 738.349 804.789 736.944Z" fill="#ECBF86"/>
<path d="M824.789 745.944L827.592 746.194C829.314 748.048 828.709 747.744 828.587 750.944C826.918 749.286 825.218 748.042 824.789 745.944Z" fill="#F69336"/>
<path d="M342.022 528.968C352.175 528.729 368.123 530.327 378.557 531.078C398.355 532.532 418.164 533.843 437.982 534.996L536.715 540.096C550.528 540.758 564.333 541.345 578.16 542.123C583.122 542.41 594.067 543.243 596.032 549.039C598.437 556.152 594.881 558.664 588.684 560.89C568.965 561.265 544.324 559.6 524.481 558.562C491.302 556.869 458.135 554.923 424.984 552.732C397.967 550.978 370.253 550.029 343.416 545.987C340.901 545.605 336.624 544.035 335.697 541.413C333.276 534.573 335.803 531.556 342.022 528.968Z" fill="#111111"/>
<path d="M335.567 589.016C340.93 588.612 353.877 590.025 359.828 590.526L405.581 594.349L504.236 600.879C514.605 601.631 528.605 602 538.363 604.263C546.463 606.135 547.494 617.484 538.06 621.856C529.472 622.26 517.328 621.18 508.541 620.616L460.933 617.477C419.755 614.65 378.829 612.06 337.86 606.671C325.108 605.001 324.604 594.14 335.567 589.016Z" fill="#111111"/>
<path d="M522.431 357.096C529.369 356.681 539.873 357.226 547.053 357.433L599.108 359.403C626.873 360.313 654.652 359.881 682.342 361.784C688.906 362.235 699.051 362.902 699.749 370.736C700.246 376.214 696.121 378.326 691.788 379.858C674.118 380.609 529.625 376.296 520.186 372.915C518.106 372.168 516.35 370.37 515.473 368.381C514.685 366.595 514.526 364.666 515.272 362.828C516.668 359.375 519.073 358.362 522.431 357.096Z" fill="#111111"/>
<path d="M521.102 412.944L595.34 417.057C608.682 417.677 677.008 417.795 686.004 422.141C688.426 423.314 690.661 425.189 691.489 427.838C692.117 429.833 691.731 432.391 690.613 434.179C688.481 437.591 685.404 438.142 681.686 438.932C663.97 439.269 521.833 432.694 514.927 428.737C512.83 427.535 511.34 425.514 510.933 423.118C510.519 420.712 510.974 417.951 512.637 416.082C514.81 413.64 518.08 413.391 521.102 412.944Z" fill="#111111"/>
<path d="M331.809 648.944C339.195 649.092 347.233 649.888 354.613 650.642C388.991 654.166 423.405 657.204 457.82 660.241C470.3 661.348 474.348 675.879 458.075 678.924C443.782 679.459 330.926 669.283 324.434 665.139C322.371 663.821 321.147 661.735 320.858 659.29C320.548 656.661 321.293 654.145 322.983 652.151C325.077 649.677 328.875 649.325 331.809 648.944Z" fill="#111111"/>
<path d="M536.477 301.138C551.695 300.844 566.92 300.884 582.138 301.258C587.821 301.364 625.094 299.38 613.603 315.604C610.171 320.452 601.563 320.048 596.017 319.83C581.17 319.852 566.316 319.754 551.468 319.536C545.201 319.426 507.935 321.237 520.277 305.285C524.018 300.449 530.677 301.267 536.477 301.138Z" fill="#111111"/>
<path d="M823.126 214.218C830.563 213.231 838.605 214.577 840.744 223.806C841.029 225.03 839.924 227.675 838.98 228.542C827.168 239.381 803.015 241.106 787.897 242.704C783.404 242.839 770.835 244.153 769.057 238.833C766.404 230.896 784.224 225.441 789.723 223.468C800.439 219.624 811.897 216.278 823.126 214.218Z" fill="#F48615"/>
<path d="M815.761 220.944C817.339 223.452 816.952 224.399 815.608 226.944C814.237 223.951 814.798 223.721 815.761 220.944Z" fill="#F5A75B"/>
<path d="M794.789 231.234C795.902 231.131 797.008 231.035 798.127 230.944L798.789 231.725C796.51 232.113 797.245 232.008 794.789 231.234Z" fill="#F5A75B"/>
<path d="M721.449 161.145C721.188 153.471 719.06 139.223 724.176 133.455C727.059 130.201 732.915 129.864 735.763 133.905C745.876 148.272 740.28 172.43 739.949 189.039C739.829 194.882 737.496 205.007 731.21 205.944C719.729 203.434 721.745 174.42 721.667 164.73L721.449 161.145Z" fill="#F48615"/>
<path d="M721.789 160.944C724.221 161.301 726.069 161.202 727.789 162.948L727.519 163.945C725.088 165.113 724.612 164.959 722.01 164.908L721.789 160.944Z" fill="#F69336"/>
<path d="M730.563 161.944C732.386 162.428 732.467 162.262 733.789 163.643C733.526 166.125 731.373 167.895 729.537 170.41L729.193 170.944L728.397 170.835L727.789 169.531C729.888 166.338 730.341 165.827 730.563 161.944Z" fill="#F69336"/>
<path d="M789.952 158.27C814.579 154.647 794.153 182.283 787.751 189.096C779.299 198.085 774.53 205.866 764.376 214.105C761.587 215.414 761.109 215.83 758.126 215.944C743.812 210.013 779.549 163.564 789.952 158.27Z" fill="#F38112"/>
</svg>
