<svg width="1024" height="1024" viewBox="0 0 1024 1024" fill="none" xmlns="http://www.w3.org/2000/svg">
<path d="M284.193 348.506C277.089 348.31 269.804 348.751 262.596 348.757C229.88 348.783 202.839 340.693 179.57 316.932C143.923 280.529 144.324 223.795 180.676 187.935C211.001 157.742 252.632 156.228 292.834 157.25C323.209 158.022 355.498 163.944 377.3 186.991C399.78 210.753 404.18 243.762 397.333 274.776C411.012 274.488 429.387 273.709 442.798 274.513C454.593 211.066 519.95 212.017 519.52 274.105C555.049 274.102 592.032 273.828 627.457 274.338C630.43 262.236 633.305 255.11 640.639 245.097C655.985 224.16 684.388 219.912 698.717 244.837C704.33 254.593 705.517 264.762 705.595 275.756C731.378 276.113 757.67 277.051 783.427 278.779C799.953 279.888 802.926 296.017 805.285 309.154C807.13 319.933 807.534 331.793 808.193 342.828C809.64 371.612 810.22 400.431 809.947 429.25C809.921 472.364 810.201 515.537 809.575 558.64C809.438 568.498 806.648 612.362 810.207 618.873C821.023 638.661 822.828 666.495 816.407 687.962C804.431 728.031 772.468 773.257 743.36 803.149C737.962 808.69 732.154 815.442 725.374 819.264C720.922 821.77 715.856 822.897 710.895 821.289C700.406 817.89 680.881 790.83 675.099 780.829C664.831 780.816 645.43 778.466 635.032 777.176L574.698 769.422L386.45 747.245C371.308 745.487 356.18 743.605 341.067 741.62C337.132 741.131 324.83 739.425 321.635 739.627C316.567 739.894 314.99 738.735 311.982 742.889C308.256 742.075 301.216 739.77 297.42 738.618L297.085 736.821L296.198 736.619C287.111 734.575 276.083 734.08 266.814 732.563C254.19 730.499 249.325 730.089 244.716 717.718C245.873 711.662 247.42 705.275 249.551 699.487C229.041 698.022 208.19 696.609 188.027 692.526C185.6 692.038 180.946 689.668 179.3 687.767C173.187 680.728 176.832 671.248 179.645 663.897C185.015 649.853 190.911 636.102 196.177 622.096C208.126 589.457 219.653 556.667 230.755 523.734C244.888 480.819 258.275 437.665 270.909 394.288C275.041 380.489 279.799 361.518 284.193 348.506Z" fill="#252425"/>
<path d="M297.121 737.037C303.127 737.713 315.589 738.704 321.121 739.812C316.166 740.075 314.625 738.93 311.684 743.037C308.042 742.232 301.159 739.953 297.448 738.814L297.121 737.037Z" fill="#F8D7B9"/>
<path d="M290.962 388.037C441.69 388.492 592.413 389.913 743.121 392.301C742.385 398.846 739.211 412.716 737.889 419.855C731.452 453.21 723.959 486.352 715.417 519.229C711.873 533.19 706.185 552.106 703.331 565.735C695.083 566.804 683.713 570.93 676.331 574.697C651.293 587.486 636.014 606.271 627.16 632.532C625.303 640.308 623.954 646.891 622.944 654.908C622.397 671.614 623.824 680.557 628.267 696.337C586.478 698.292 534.837 695.659 492.926 694.421C417.928 692.589 342.986 688.926 268.169 683.418C252.362 682.199 236.572 680.772 220.804 679.136C213.159 678.341 201.201 677.363 194.121 675.303C196.835 665.95 203.848 649.909 207.625 640.386C215.293 621.001 222.578 601.467 229.476 581.802C242.084 545.333 254.202 508.702 265.827 471.914C274.412 444.119 282.121 415.804 290.962 388.037Z" fill="#FEF2E4"/>
<path d="M615.273 663.09C599.701 666.224 570.955 660.526 554.18 661.094C552.061 661.167 547.733 658.575 548.149 655.918C550.989 637.621 559.496 619.944 563.753 601.799C565.008 596.464 569.551 593.767 574.757 594.058C593.032 595.07 611.25 596.682 629.565 596.768C631.722 596.782 633.724 598.038 635.238 599.465C635.739 600.702 636.447 601.832 635.953 603.121C631.365 615.066 625.347 619.673 621.902 632.656L627.387 632.749C625.535 640.635 624.19 647.311 623.182 655.442C620.693 657.974 618.016 660.241 615.273 663.09Z" fill="#F8D7B9"/>
<path d="M593.535 635.037C594.393 635.693 594.276 635.761 594.893 636.706C594.009 639.166 594.445 642.736 595.121 645.252L593.73 647.037L592.449 646.571C592.099 641.258 589.07 638.466 593.535 635.037Z" fill="#EBB97D"/>
<path d="M495.486 418.037C498.519 418.332 502.239 419.689 502.795 422.878C505.528 438.6 507.13 455.937 509.568 471.652C519.225 472.625 560.066 472.753 565.061 478.303C566.139 479.503 566.257 480.699 566.015 482.232C565.597 484.827 562.707 487.472 560.72 488.939C557.065 491.639 552.717 493.599 548.729 495.759C537.203 501.992 525.305 507.586 513.89 513.975C514.851 524.226 519.983 558.037 515.42 565.341C514.491 566.831 513.223 567.857 511.412 568.013C509.006 568.223 506.489 566.994 504.528 565.727C498.768 562.009 493.78 556.521 488.794 551.85C482.452 545.944 476.047 540.103 469.581 534.334L461.031 538.704C451.82 543.82 442.507 548.753 433.097 553.496C427.963 556.149 416.704 563.113 411.193 561.898C410.001 560.899 409.484 560.578 409.068 559.01C406.654 549.916 430.45 516.399 436.152 507.435C429.092 501.151 400.732 480 404.456 471.392C406.108 469.99 408.263 468.856 410.446 468.812C426.693 468.483 443.471 468.598 459.726 468.441C466.121 459.815 471.743 450.868 477.627 441.927C482.767 434.118 487.376 422.776 495.486 418.037Z" fill="#F59039"/>
<path d="M483.121 463.037L484.707 463.905C485.517 466.079 484.936 468.62 484.656 471.037C482.661 468.788 483.815 468.097 483.201 463.602L483.121 463.037Z" fill="#F19248"/>
<path d="M461.283 498.037C461.994 498.277 462.441 498.612 463.095 498.996L463.121 499.905L461.637 501.037C459.417 500.44 459.858 500.997 459.121 499.789L461.283 498.037Z" fill="#F19248"/>
<path d="M592.521 510.112C599.831 509.701 654.888 510.98 657.946 513.865C660.045 518.389 658.944 523.6 657.639 528.67C654.066 542.556 650.526 558.036 644.547 571.094C644.058 572.154 642.056 573.426 641.071 574.037C630.6 573.87 580.191 574.442 574.388 569.05C573.241 567.984 573.097 567.373 573.123 565.812C573.15 563.575 586.366 519.295 588.401 515.002C589.366 512.972 590.846 511.59 592.521 510.112Z" fill="#EBB97D"/>
<path d="M624.496 559.046C624.926 554.702 627.183 553.772 631.152 554.095L632.121 555.018C632.005 558.574 630.486 558.783 627.722 560.871C626.555 562.622 626.491 563.053 624.676 564.037C623.714 562.272 624.24 561.572 624.496 559.046Z" fill="#ECAF6F"/>
<path d="M624.538 559.037L628.121 560.866C626.824 562.62 626.753 563.052 624.738 564.037C623.669 562.269 624.253 561.567 624.538 559.037Z" fill="#ECAF6F"/>
<path d="M627.121 537.037C630.12 538.047 631.211 537.731 632.121 541.037C628.958 540.272 627.837 540.593 627.121 537.037Z" fill="#F0A15B"/>
<path d="M614.235 424.112C623.601 423.867 667.131 424.15 674.623 426.022C676.239 426.425 678.456 428.476 679.07 430.097C679.975 432.482 668.45 480.779 666.168 484.871C664.784 487.337 663.058 488.126 660.518 489.037C649.865 488.746 600.459 489.262 595.262 483.565C594.493 479.422 597.053 471.539 598.339 467.353C602.334 454.351 604.784 440.61 610.175 428.132C610.88 426.505 612.858 425.124 614.235 424.112Z" fill="#EBB97D"/>
<path d="M642.493 440.037C645.3 441.22 649.755 444.997 652.121 447.02C649.742 449.536 644.971 456.768 641.867 456.059C639.923 455.48 640.648 455.49 638.717 455.652C637.847 456.862 637.05 457.874 636.121 459.037C636.457 451.682 637.577 446.147 642.493 440.037Z" fill="#F19248"/>
<path d="M653.712 436.037L654.951 436.47C656.21 440.382 657.15 442.134 653.934 445.037L652.784 444.51C653.426 442.586 654.277 441.87 654.563 439.867L650.566 440.619L650.121 439.74C650.902 438.616 652.669 437.049 653.712 436.037Z" fill="#ECAF6F"/>
<path d="M637.032 480.037C635.558 478.31 635.297 478.292 635.121 476.123L635.669 475.305C638.016 474.869 636.777 474.889 639.497 475.941C640.469 477.277 640.853 477.453 641.121 478.932L639.94 479.988L637.032 480.037Z" fill="#F0A15B"/>
<path d="M637.375 480.101L640.121 480.037C634.384 486.459 638.686 486.581 629.121 485.563C631.952 484.062 635.326 482.7 637.375 480.101Z" fill="#ECAF6F"/>
<path d="M642.987 427.037C644.062 428.795 644.457 431.164 643.803 433.148C642.164 435.11 642.805 434.491 639.658 435.037L639.121 433.934C640.578 431.538 641.698 429.526 642.987 427.037Z" fill="#ECAF6F"/>
<path d="M641.121 471.056C644.549 470.78 647.351 473.492 648.121 476.978L646.557 477.037C644.324 475.994 642.459 473.176 641.121 471.056Z" fill="#F0A15B"/>
<path d="M664.435 427.037L665.844 428.096C667.133 430.698 666.975 432.126 667.121 435.037C663.565 432.986 663.939 430.538 664.435 427.037Z" fill="#ECAF6F"/>
<path d="M658.033 451.037C660.529 452.998 660.165 452.165 661.121 454.734L660.605 455.996C657.971 456.27 657.716 455.153 656.121 453.011L658.033 451.037Z" fill="#F0A15B"/>
<path d="M629.08 458.037C630.994 458.8 630.287 458.209 631.121 459.986C630.622 462.531 630.525 463.408 630.8 465.971C628.961 466.048 629.795 466.27 628.351 465.021C627.792 462.115 628.336 461.003 629.08 458.037Z" fill="#ECAF6F"/>
<path d="M656.255 453.037L653.228 452.52L653.631 452.493L651.121 451.305L651.309 450.72L654.537 450.037C655.987 450.707 656.544 450.822 658.121 450.929L656.255 453.037Z" fill="#ECAF6F"/>
<path d="M605.562 451.037C605.977 451.26 606.927 452.042 607.335 452.358C608.293 454.712 608.241 454.539 607.884 457.037C606.415 456.352 605.681 455.886 604.308 455.038C603.848 453.022 604.226 453.356 605.562 451.037Z" fill="#ECAF6F"/>
<path d="M647.138 466.037C649.022 466.527 648.167 466.083 649.645 467.64C650.339 469.859 650.201 469.851 649.698 472.037C647.491 470.539 647.018 468.596 647.138 466.037Z" fill="#F0A15B"/>
<path d="M634.931 438.037L635.943 439.172C636.408 441.534 635.881 442.71 635.272 445.037L634.276 443.292C633.883 440.983 634.286 440.252 634.931 438.037Z" fill="#ECAF6F"/>
<path d="M613.121 451.539L613.969 451.037C615.889 453.193 616.143 452.716 616.119 454.855C615.459 455.159 615.889 455.057 614.805 454.736C613.321 452.959 613.181 453.404 613.121 451.539Z" fill="#ECAF6F"/>
<path d="M463.164 592.162L464.264 592.143C477.562 591.869 491.252 592.103 504.509 593.128C509.899 593.546 522.038 592.56 525.715 596.071C528.525 604.573 515.952 638.863 512.571 648.344C511.14 652.338 509.577 654.452 505.737 655.953C496.44 656.351 448.585 655.457 443.407 650.68C442.253 649.617 442.084 649.069 442.127 647.496C442.164 646.132 456.899 601.082 458.786 597.35C459.876 595.196 461.359 593.741 463.164 592.162Z" fill="#EBB97D"/>
<path d="M472.535 641.037L474 641.758L474.121 642.891L472.546 645.037L471.306 644.309L471.121 643.132L472.535 641.037Z" fill="#F0A15B"/>
<path d="M497.502 595.037C499.735 596.48 499.047 597.701 498.928 599.786L497.91 600.037C496.569 598.698 497.299 597.401 497.502 595.037Z" fill="#ECAF6F"/>
<path d="M369.61 587.203C380.386 586.618 394.196 587.742 405.144 588.044C410.976 588.201 424.89 588.536 430.198 589.522C434.344 593.516 433.343 596.57 431.676 601.845C426.764 617.368 422.814 633.515 416.447 648.472C415.974 649.583 414.34 650.463 413.363 651.034C402.306 651.074 356.879 650.726 349.823 645.589C349.25 644.551 349.077 643.756 349.13 642.586C349.341 637.87 363.449 597.083 366.138 591.644C367.035 589.824 368.116 588.536 369.61 587.203Z" fill="#EBB97D"/>
<path d="M393.333 627.338L393.867 627.037C397.88 629.194 399.723 629.288 400.108 635.068C400.278 637.621 398.665 638.364 396.937 640.099L394.898 641.037C392.346 639.027 398.401 636.957 397.396 631.846C395.85 629.844 395.503 629.797 393.121 628.912L393.333 627.338Z" fill="#ECAF6F"/>
<path d="M319.222 562.093C312.093 562.197 290.459 561.956 284.897 558.886C283.212 555.789 284.651 551.067 285.629 547.82C287.712 540.903 298.444 503.529 303.297 501.297C305.61 500.232 308.563 500.094 311.075 500.044C318.192 499.902 362.85 501.893 365.712 503.252C366.825 503.781 367.322 504.216 368.05 505.167C369.245 514.716 355.024 551.152 350.067 561.094C348.631 563.974 328.511 563.014 324.411 562.23L319.222 562.093Z" fill="#EBB97D"/>
<path d="M319.121 561.898C322.631 561.259 324.207 561.133 327.781 561.021C327.519 558.917 326.909 555.923 327.497 554.037C329.121 554.657 330.821 557.638 332.065 559.346L332.121 560.817C330.408 562.149 326.808 561.879 324.291 562.037L319.121 561.898Z" fill="#ECAF6F"/>
<path d="M333.705 510.155C334.643 511.027 334.451 510.963 335.121 512.145L334.312 513.767C331.48 515.872 326.479 518.474 323.194 516.081C322.478 510.162 327.164 509.946 330.948 510.054L333.705 510.155Z" fill="#F0A15B"/>
<path d="M297.499 534.037L298.748 534.634L299.121 535.939C298.154 537.848 297.648 539.054 296.897 541.037L295.175 539.947C294.794 538.174 296.506 535.816 297.499 534.037Z" fill="#ECAF6F"/>
<path d="M330.589 510.93C329.415 508.375 329.079 508.003 329.125 505.037C331.745 506.01 331.501 508.565 333.121 511.037L330.589 510.93Z" fill="#ECAF6F"/>
<path d="M328.503 417.145C335.703 416.742 388.932 417.489 391.362 418.997C395.501 426.567 381.46 462.931 379.028 472.571C378.256 475.635 376.469 477.411 373.701 478.918C366.286 479.465 312.938 478.07 310.709 475.781C308.618 470.277 312.602 458.244 314.843 452.813C317.844 445.536 322.624 421.42 328.503 417.145Z" fill="#EBB97D"/>
<path d="M359.03 457.037C359.973 457.099 359.508 457.011 360.634 457.423C361.851 457.868 361.607 457.933 362.121 459.051C361.494 462.157 358.728 463.128 356.166 464.037C353.897 463.22 353.185 463.15 353.121 460.766C354.607 458.879 356.857 458.083 359.03 457.037Z" fill="#ECAF6F"/>
<path d="M356.204 447.037C358.759 447.835 357.876 449.515 360.716 450.583L363.901 448.631L364.724 448.919L365.121 451.21C361.512 453.075 357.183 454.617 355.121 449.997L356.204 447.037Z" fill="#ECAF6F"/>
<path d="M318.45 451.037C319.836 451.474 319.53 451.403 320.764 452.155C321.564 454.5 320.819 457.526 320.466 460.037L318.099 458.915C316.479 455.736 317.065 454.339 318.45 451.037Z" fill="#ECAF6F"/>
<path d="M353.959 472.037L355.121 473.263L354.965 475.004C353.168 477.103 352.955 476.967 350.51 477.848L349.922 478.037L349.121 477.456L349.86 477.62L349.309 476.28C350.887 473.66 351.333 473.602 353.959 472.037Z" fill="#ECAF6F"/>
<path d="M365.171 427.037C366.139 427.508 366.242 427.779 367.039 428.529C367.393 430.493 366.546 431.28 365.393 433.037C364.34 432.391 364.041 432.03 363.133 431.224C363.039 429.049 363.478 429.302 365.171 427.037Z" fill="#ECAF6F"/>
<path d="M291.587 643.864C284.034 643.408 262.999 642.952 257.548 640.066C254.221 635.002 271.276 590.447 276.197 584.425C278.44 581.681 301.566 583.847 306.548 583.873C312.231 584.323 336.802 584.541 339.697 586.951C342.845 595.768 327.538 629.045 324.281 639.391C323.672 641.326 321.988 644.018 319.845 644.263C313.528 645.664 297.578 644.937 291.587 643.864Z" fill="#EBB97D"/>
<path d="M292.121 644.037C292.23 641.249 292.064 640.692 293.382 638.285L294.187 638.037C295.327 639.216 295.249 639.132 295.664 640.662C295.64 641.751 295.409 642.18 295.859 642.882L295.426 643.626L296.121 643.093L295.749 643.614C294.66 643.734 293.158 643.849 292.121 644.037Z" fill="#F0A15B"/>
<path d="M294.104 613.037C296.177 614.193 296.612 615.013 297.121 617.126C296.446 619.681 294.828 621.005 292.961 623.037C292.472 622.919 291.62 622.54 291.121 622.341C291.414 618.388 291.728 616.312 294.104 613.037Z" fill="#F0A15B"/>
<path d="M299.729 616.037C301.494 616.78 300.799 616.203 301.943 617.738C302.369 620.085 301.978 620.78 301.315 623.037C298.891 620.092 298.659 619.835 299.729 616.037Z" fill="#F0A15B"/>
<path d="M526.585 291.2C541.703 291.142 557.447 290.865 572.52 291.239C589.489 291.066 608.537 290.867 625.448 291.71C624.809 304.498 625.116 319.254 634.252 328.861C647.253 342.538 666.913 334.031 673.762 318.742C676.277 313.118 674.192 307.132 674.792 301.162C675.118 298.083 675.437 295.408 675.887 292.418C697.417 292.289 718.955 292.657 740.473 293.522C750.521 293.842 763.242 293.934 773.121 294.844C769.732 299.716 765.034 306.67 763.593 312.574L761.56 318.597C756.764 333.373 749.322 362.595 747.048 378.037C616.976 374.231 486.923 375.193 356.838 372.958C363.736 357.532 354.987 347.045 352.121 330.74C371.861 319.981 380.078 311.908 390.963 291.872C400.923 291.663 410.886 291.63 420.847 291.775L430.781 291.593C434.075 291.485 437.727 291.53 441.052 291.506C440.722 303.144 440.647 317.782 448.797 327.905C461.043 343.116 488.26 330.545 489.078 312.97C489.442 305.164 488.984 299.976 490.055 291.555C500.824 290.711 515.532 291.137 526.585 291.2Z" fill="#F59039"/>
<path d="M525.737 291.189C541.091 291.131 557.081 290.857 572.389 291.227C574.308 291.467 576.015 291.298 577.121 292.327C573.276 295.455 571.456 295.261 568.365 299.766C561.085 302.185 555.651 304.311 547.888 305.037C544.129 303.077 539.529 300.01 535.201 301.823C529.311 298.112 527.266 298.532 520.509 299.344L519.178 297.81C518.708 292.509 521.131 291.937 525.737 291.189Z" fill="#F8D7B9"/>
<path d="M420.117 291.217L430.146 291.037L435.121 297.487C433.016 299.138 430.85 301.267 428.877 303.109C424.442 303.899 414.945 306.745 411.525 303.566C410.3 299.993 412.101 297.462 413.697 293.974C416.524 293.029 417.498 292.617 420.117 291.217Z" fill="#EBB97D"/>
<path d="M761.109 318.448C750.864 327.904 742.592 316.325 749.904 310.615C752.121 308.881 759.981 311.503 763.121 312.497L761.109 318.448Z" fill="#F0A15B"/>
<path d="M520.515 298.627C527.233 297.757 529.265 297.307 535.121 301.284L533.476 302.61C529.996 302.718 534.075 301.956 530.075 300.231C526.759 302.534 522.048 306.454 518.121 304.515C519.331 303.085 519.937 302.046 520.917 300.469L520.515 298.627Z" fill="#F19248"/>
<path d="M382.324 342.037C385.239 347.339 379.375 348.29 377.269 351.854C377.269 351.854 376.612 355.682 376.551 356.037C372.335 354.398 374.595 351.641 375.989 348.843C378.025 344.756 379.905 344.844 382.324 342.037Z" fill="#F19248"/>
<path d="M375.83 335.037C377.551 335.44 378.301 336.516 379.121 337.719C378.938 340.539 379.21 339.502 377.04 342.037C374.066 340.783 373.713 341.137 372.121 339.121C372.882 336.852 373.506 336.963 375.83 335.037Z" fill="#F19248"/>
<path d="M501.748 337.037L502.845 337.683C502.494 342.68 502.613 344.247 503.121 349.037C499.727 345.772 499.132 341.233 501.748 337.037Z" fill="#F19248"/>
<path d="M386.142 356.037C387.538 356.305 388.13 357.042 389.258 358.051C390.41 360.412 390.137 361.159 389.956 364.037C387.374 361.215 385.927 360.301 386.142 356.037Z" fill="#F19248"/>
<path d="M364.121 337.037C364.963 337.277 369.192 338.287 370.068 338.456L370.121 339.322C368.918 340.909 368.754 341.504 366.986 342.037C365.038 340.498 365.293 339.883 364.121 337.037Z" fill="#F19248"/>
<path d="M503.121 359.188C507.863 358.443 509.821 360.464 510.121 365.037C508.338 364.543 504.259 360.703 503.121 359.188Z" fill="#F19248"/>
<path d="M385.094 336.037C385.524 336.233 386.261 336.81 386.682 337.111C387.455 340.042 387.029 342.036 386.741 345.037C383.055 342.565 384.015 339.695 385.094 336.037Z" fill="#F19248"/>
<path d="M376.686 364.037C378.576 364.67 377.705 364.313 379.121 366.015C378.967 368.892 379.493 367.579 377.258 370.037C375.558 369.772 375.81 369.8 374.206 369.281C373.767 367.211 375.08 366.399 376.686 364.037Z" fill="#F19248"/>
<path d="M729.198 297.037C733.323 297.665 734.199 297.006 735.121 301.032C732.733 301.056 732.534 301.008 730.319 300.578C728.681 298.799 729.198 299.876 729.198 297.037Z" fill="#F19248"/>
<path d="M417.053 347.037C418.7 347.687 420.302 347.906 422.121 348.282L421.364 349.379C418.49 350.07 419.237 350.219 416.614 349.816C415.824 348.234 415.992 349.093 417.053 347.037Z" fill="#F19248"/>
<path d="M411.176 348.037C413.541 348.843 412.644 348.194 414.121 349.841L413.422 353.037C410.397 351.968 411.254 350.874 411.176 348.037Z" fill="#F19248"/>
<path d="M408.164 349.137L408.517 349.037C409.649 350.322 409.601 351.123 410.121 353.037C407.976 351.895 408.058 351.497 408.164 349.137Z" fill="#F19248"/>
<path d="M259.895 173.932C288.995 171.462 333.652 173.138 357.29 191.487C393.599 219.672 391.441 286.049 352.009 310.666C347.428 313.526 339.502 317.536 335.573 321.675C331.246 328.798 339.508 348.515 340.925 356.037C331.506 353.601 320.885 347.527 312.693 342.409C295.422 331.127 293.055 330.041 271.905 331.475C242.227 333.487 219.517 328.088 196.43 308.835C164.183 281.943 161.636 235.287 188.477 203.813C207.522 181.68 231.285 175.624 259.895 173.932Z" fill="#FEF2E4"/>
<path d="M277.035 234.189C285.123 233.016 292.633 238.746 293.929 247.079C295.225 255.413 289.829 263.285 281.791 264.789C276.449 265.788 271.001 263.726 267.547 259.397C264.093 255.068 263.173 249.148 265.141 243.92C267.109 238.691 271.658 234.969 277.035 234.189Z" fill="#ECAF6F"/>
<path d="M220.194 235.546C227.96 233.509 236.006 237.759 238.426 245.177C239.685 249.036 239.219 253.227 237.14 256.739C235.062 260.25 231.56 262.762 227.48 263.668C222.671 264.736 217.627 263.451 213.989 260.229C210.351 257.008 208.585 252.264 209.264 247.541C210.092 241.787 214.393 237.067 220.194 235.546Z" fill="#EBB97D"/>
<path d="M332.412 235.038C340.373 234.92 346.937 241.463 347.117 249.697C347.297 257.931 341.026 264.775 333.069 265.029C325.018 265.287 318.307 258.708 318.125 250.377C317.942 242.046 324.358 235.158 332.412 235.038Z" fill="#EBB97D"/>
<path d="M640.829 651.831C641.115 647.396 642.465 641.992 643.777 637.747C655.197 600.767 687.041 582.273 723.956 581.037C742.985 583.117 757.944 586.473 773.239 599.412C784.146 609.748 789.801 617.036 795.833 631.212C810.155 659.256 797.787 698.133 780.985 722.265C779.556 724.79 777.933 727.865 776.434 730.285C772.766 737.396 767 744.952 762.254 751.552L761.397 752.573C759.82 754.967 758.255 757.466 756.502 759.716C746.309 773.362 729.092 794.851 715.822 805.037C711.18 800.889 693.787 778.733 689.898 772.95C668.96 741.785 634.772 690.564 640.829 651.831Z" fill="#F59039"/>
<path d="M640.121 652.037C640.407 647.589 641.763 642.17 643.079 637.912C654.54 600.824 686.501 582.277 723.55 581.037L725.121 582.789L724.808 583.969C724.215 586.246 724.645 588.063 723.394 589.868C704.465 592.774 679.783 600.148 668.452 617.068C662.744 625.584 655.844 633.595 653.387 644.053L653.263 645.437C649.621 652.004 649.36 652.45 641.639 651.348L640.121 652.037Z" fill="#F19248"/>
<path d="M650.121 634.277C650.845 633.637 653.186 632.233 653.658 631.704C656.142 629.43 658.897 620.683 661.18 618.73C674.269 607.579 684.39 593.737 701.231 587.779C710.227 584.598 716.118 583.886 725.121 583.037L724.81 584.213C724.222 586.479 724.649 588.289 723.407 590.085C704.62 592.979 680.122 600.322 668.876 617.169C663.21 625.648 656.362 633.624 653.923 644.037L650.14 640.66L650.121 634.277Z" fill="#F8D7B9"/>
<path d="M650.227 640.666L654.121 644.124L653.994 645.535C650.274 652.231 650.008 652.686 642.121 651.562C643.485 646.318 643.112 645.221 645.508 640.037L648.483 641.408L650.227 640.666Z" fill="#ECAF6F"/>
<path d="M649.977 641.037L654.121 643.878L653.986 645.037C650.65 643.614 650.749 644.246 648.121 641.647L649.977 641.037Z" fill="#F0A15B"/>
<path d="M645.121 639.718C646.715 636.72 647.208 636.025 650.1 634.037L650.121 640.323L648.273 641.037L645.121 639.718Z" fill="#F0A15B"/>
<path d="M768.279 604.044C775.12 603.842 778.977 607.921 782.121 613.475C781.06 616.825 781.834 616.116 779.411 617.872C770.468 618.751 769.76 616.116 764.121 609.846C765.769 607.81 766.83 606.223 768.279 604.044Z" fill="#EBB97D"/>
<path d="M773.118 600.037C784.223 610.344 789.98 617.611 796.121 631.747L794.964 634.037C793.126 626.274 792.307 624.317 783.919 624.832C783.363 623.945 783.43 623.697 783.159 622.634C781.466 621.036 779.939 619.953 779.146 617.82C781.546 616.058 780.779 616.769 781.83 613.41C778.717 607.839 774.896 603.749 768.121 603.951C768.894 601.537 770.117 601.805 772.239 601.381L773.118 600.037Z" fill="#F0A15B"/>
<path d="M781.74 613.037C782.842 615.43 784.468 618.663 784.055 621.267L783.036 622.037C781.385 620.477 779.895 619.421 779.121 617.34C781.462 615.621 780.714 616.315 781.74 613.037Z" fill="#ECAF6F"/>
<path d="M784.082 624.118C792.465 623.575 793.284 625.636 795.121 633.812C793.225 635.88 790.787 638.086 788.726 640.037C782.695 633.929 777.727 633.847 784.082 624.118Z" fill="#ECAF6F"/>
<path d="M775.402 711.037C777.652 711.454 778.955 713.436 780.493 715.379C781.663 717.322 780.843 719.233 780.819 722.043C779.492 724.56 777.984 727.624 776.591 730.037C772.103 726.19 775.028 717.459 775.402 711.037Z" fill="#ECAF6F"/>
<path d="M775.121 711.037C777.772 711.49 779.308 713.644 781.121 715.756C780.047 717.753 780.851 717.13 779.002 718.037L777.488 717.165C775.697 714.367 775.59 714.261 775.121 711.037Z" fill="#EBB97D"/>
<path d="M757.121 746.965C762.082 740.559 761.577 738.837 764.121 732.037C763.994 736.508 762.353 748.605 762.473 751.06L761.64 752.037C759.298 751.104 758.749 749.369 757.121 746.965Z" fill="#F0A15B"/>
<path d="M756.812 747.037C758.364 749.46 758.888 751.207 761.121 752.147C759.658 754.456 758.208 756.867 756.583 759.037L755.121 757.649C756.445 755.207 756.89 751.226 755.789 748.608L756.812 747.037Z" fill="#F19248"/>
<path d="M755.493 749.037C756.604 751.643 756.155 755.606 754.82 758.037C753.946 756.184 753.734 755.487 753.121 753.584C753.618 750.657 753.43 751.593 755.493 749.037Z" fill="#EBB97D"/>
<path d="M717.397 624.125C741.184 622.612 761.664 640.744 763.046 664.543C764.436 688.336 746.193 708.717 722.387 709.976C698.763 711.222 678.57 693.149 677.194 669.532C675.824 645.916 693.787 625.625 717.397 624.125Z" fill="#252425"/>
<path d="M715.645 637.45C732.281 634.7 747.992 645.973 750.716 662.609C753.439 679.251 742.14 694.942 725.497 697.64C708.894 700.331 693.242 689.064 690.524 672.461C687.813 655.865 699.048 640.2 715.645 637.45Z" fill="#FEF2E4"/>
<path d="M743.094 770.424C743.144 773.117 743.238 773.33 742.158 775.68C737.831 779.376 732.986 774.858 733.124 770.075C734.391 766.968 736.938 765.324 740.129 766.334L740.79 768.411L743.094 770.424Z" fill="#F19248"/>
<path d="M736.871 767.037C738.302 767.604 738.191 767.61 739.121 768.929C738.736 771.435 738.718 770.782 736.92 773.037L735.222 771.382C734.943 769.035 735.166 769.635 736.871 767.037Z" fill="#F59039"/>
<path d="M666.807 719.894C665.848 721.334 665.951 721.485 664.452 722.037L663.111 721.123C661.332 717.877 659.609 711.271 663.329 709.037C665.945 709.983 665.114 709.661 667.195 712.086C668.694 714.617 669.957 715.846 670.121 718.554C668.858 720.026 669.125 719.559 666.807 719.894Z" fill="#EBB97D"/>
<path d="M667.555 712.037C668.87 714.629 669.977 715.889 670.121 718.663C669.013 720.172 669.248 719.693 667.214 720.037C667.007 716.502 667.156 715.619 667.555 712.037Z" fill="#ECAF6F"/>
<path d="M703.966 774.037C708.007 775.498 707.457 773.711 711.499 774.936C712.462 776.566 712.135 776.11 711.663 778.341C708.892 779.33 706.062 779.392 703.671 777.689C702.858 775.425 702.937 776.599 703.966 774.037Z" fill="#F19248"/>
<path d="M720.121 740.043C725.114 739.854 725.08 743.747 728.483 746.653C729.97 747.921 730.838 749.013 731.121 750.973C726.526 751.807 720.94 744.238 720.121 740.043Z" fill="#F19248"/>
<path d="M788.121 684.037C790.273 685.193 792.091 688.717 793.121 690.942C791.028 691.146 791.172 691.098 789.321 690.023C787.957 687.908 788.186 686.595 788.121 684.037Z" fill="#F19248"/>
<path d="M648.226 677.037L649.578 677.785C650.376 679.902 650.085 681.66 649.99 684.002C649.32 684.068 649.769 684.068 648.649 683.746C647.867 681.891 648.168 679.214 648.226 677.037Z" fill="#F8D7B9"/>
<path d="M688.971 743.037C689.471 746.147 688.629 750.059 687.793 753.037C686.433 749.977 687.293 745.832 688.971 743.037Z" fill="#EBB97D"/>
<path d="M741.121 768.096C741.899 765.443 741.172 766.248 742.838 765.037C744.23 766.129 743.68 765.411 744.121 767.577L743.233 770.037L741.121 768.096Z" fill="#F19248"/>
<path d="M783.121 697.517L785.109 696.037C785.097 698.787 785.289 701.51 784.47 704.037C783.504 702.424 783.377 699.59 783.121 697.517Z" fill="#F19248"/>
<path d="M782.341 697.037C782.203 694.225 781.585 693.821 783.316 692.037C785.064 693.273 784.568 693.437 785.121 695.7L782.341 697.037Z" fill="#F19248"/>
<path d="M717.662 787.037C719.307 788.372 718.949 790.679 719.121 793.037L717.705 792.644C716.64 790.505 717.284 789.775 717.662 787.037Z" fill="#F19248"/>
<path d="M697.438 758.037L697.876 758.633C698.34 760.952 698.051 761.203 697.781 764.037C696.7 762.288 697.221 760.362 697.438 758.037Z" fill="#F19248"/>
<path d="M277.121 715.165C286.268 714.481 311.418 716.728 321.761 717.288L409.364 721.695L531.481 728.18C569.401 729.912 607.289 731.071 645.184 733.786C648.781 740.759 657.461 755.441 662.121 762.037L334.174 722.854C316.868 720.706 299.425 719.104 282.139 716.838C280.266 716.291 278.952 715.914 277.121 715.165Z" fill="#FEF2E4"/>
<path d="M600.631 746.457C597.305 747.064 596.154 747.507 593.34 746.123L593.121 744.891C596.061 741.942 598.848 742.973 602.121 744.794L600.631 746.457Z" fill="#F19248"/>
<path d="M602.521 745.037L603.422 745.161C606.336 745.527 613.389 745.01 615.121 746.14L614.595 747.023C611.269 747.136 605.354 746.512 601.121 746.512L602.521 745.037Z" fill="#EBB97D"/>
<path d="M780.626 431.446C784.856 427.639 781.785 424.001 787.617 422.037C792.565 423.607 790.971 434.421 791.794 439.361C792.407 453.389 791.966 471.042 791.985 485.372C792.203 520.933 791.86 556.488 790.964 592.037C786.055 587.162 778.682 581.428 773.121 577.381C774.103 573.073 775.75 551.236 776.092 545.456C778.3 507.991 781.265 468.859 780.626 431.446Z" fill="#FEF2E4"/>
<path d="M755.489 431.442C757.603 428.751 755.894 427.546 757.368 425.037C759.292 427.049 758.659 426.431 758.353 429.231C757.909 433.322 758.138 438.981 758.862 443.018C759.194 441.585 759.097 441.723 759.097 440.216C760.082 441.066 759.645 440.592 760.121 442.015C754.713 464.6 750.845 489.503 747.068 512.396L737.87 565.037C732.69 564.485 728.339 564.265 723.121 564.07C733.473 529.288 740.199 491.215 749.762 456.036C751.927 448.056 752.997 439.386 755.489 431.442Z" fill="#CBB8A5"/>
<path d="M772.252 430.037L774.121 431.538C774.127 439.101 771.742 454.168 771.239 462.904C769.109 499.633 766.711 536.347 764.045 573.037C759.111 570.827 753.394 568.722 748.121 567.523L761.457 493.181C765.077 472.35 768.351 450.797 772.252 430.037Z" fill="#C5B5A5"/>
<path d="M432.9 710.037C477.158 711.754 521.43 713.071 565.707 714.003C588.133 714.315 614.408 713.198 636.324 714.222L640.121 724.037C623.667 722.919 605.404 722.62 588.662 721.761L493.006 716.391L456.218 714.602C450.771 714.349 435.974 714.429 432.121 711.341L432.9 710.037Z" fill="#887E75"/>
<path d="M667.971 244.037C669.008 244.109 670.053 244.248 671.084 244.367C671.709 245.889 664.199 271.842 663.368 276.784C661.718 286.518 662.43 296.184 661.179 305.805C660.62 310.133 658.858 314.921 655.119 317.555C652.911 319.114 651.121 319.273 648.5 318.806C641.902 311.866 641.722 300.048 642.367 291.092C643.718 272.318 650.456 253.565 667.971 244.037Z" fill="#FEF2E4"/>
<path d="M483.98 244.037L485.121 245.396C480.635 258.33 478.009 272.286 475.99 285.821C474.638 294.882 477.475 313.178 467.633 318.022C450.708 319.173 452.887 253.246 483.98 244.037Z" fill="#FEF2E4"/>
<path d="M787.565 316.541L788.804 316.037C788.996 328.984 790.529 343.191 791.059 356.323C792.055 384.215 792.349 412.129 791.946 440.037C791.148 435.071 792.694 424.2 787.897 422.622C782.245 424.596 785.221 428.253 781.121 432.08C781.862 419.461 781.887 406.56 782.666 393.76C784.193 368.67 787.891 341.436 787.565 316.541Z" fill="#C5B5A5"/>
<path d="M432.343 711.864C429.016 714.603 402.528 711.729 396.434 711.4L341.561 708.797C316.549 707.43 291.366 707.482 266.498 705.213L266.121 704.247C268.811 697.982 294.794 702.719 301.914 703.28C332.652 705.548 363.416 707.45 394.201 708.99C405.306 709.57 422.883 709.293 433.121 710.601L432.343 711.864Z" fill="#69645E"/>
<path d="M769.424 360.21L772.121 358.037C769.762 383.59 765.168 417.145 759.847 442.031C759.372 440.605 759.807 441.08 758.826 440.227C758.826 441.738 758.924 441.6 758.592 443.037C757.871 438.99 757.644 433.317 758.086 429.216C758.391 426.409 759.021 427.029 757.104 425.012C755.636 427.528 757.338 428.736 755.233 431.432C753.791 423.543 766.656 371.594 769.424 360.21Z" fill="#9A8E83"/>
<path d="M300.593 355.037C312.799 361.711 319.984 366.313 333.121 372.258L328.108 373.422C320.619 374.371 303.399 373.945 295.121 373.92C296.873 367.606 298.697 361.311 300.593 355.037Z" fill="#F59039"/>
<path d="M484.121 244.037C500.195 243.961 501.887 262.22 503.121 273.952C498.699 273.912 494.513 273.883 490.092 274.037C490.467 269.489 491.153 249.89 488.906 246.945C487.997 246.565 486.05 245.819 485.277 245.388L484.121 244.037Z" fill="#887E75"/>
<path d="M675.121 245.037C687.408 249.2 688.251 264.35 689.121 274.994L675.815 275.037C676.429 267.596 676.598 251.935 675.121 245.037Z" fill="#887E75"/>
<path d="M780.121 392.037C779.856 405.658 775.383 417.209 773.925 431.037L772.121 429.555C774.48 417.622 777.086 403.711 780.121 392.037Z" fill="#887E75"/>
<path d="M282.121 716.963C278.182 717.277 269.169 716.642 266.121 713.978L267.543 715.365L268.609 713.037C272.041 713.701 273.715 713.92 277.038 715.088C278.892 715.927 280.223 716.35 282.121 716.963Z" fill="#887E75"/>
<path d="M771.43 352.037L773.121 352.137L772.325 357.734L769.121 360.037L771.43 352.037Z" fill="#C5B5A5"/>
<path d="M787.315 317.037C787.164 315.043 786.7 313.713 788.118 312.037C789.428 313.299 789.098 314.739 789.045 316.553L787.315 317.037Z" fill="#887E75"/>
<path d="M771.121 351.945L772.037 349.249L772.945 349.037C773.146 350.772 773.234 350.361 772.881 352.037L771.121 351.945Z" fill="#69645E"/>
<path d="M297.257 739.037C301.051 740.19 308.089 742.497 311.813 743.312L314.128 744.335C348.962 755.55 387.166 759.493 423.218 764.954L506.166 777.681L550.766 784.399C556.377 785.266 573.933 787.156 577.51 789.678C578.488 791.75 578.208 794.272 577.263 796.253C571.117 809.345 564.014 825.278 549.841 831.3C533.784 838.11 509.946 830.655 493.752 825.8C459.07 815.406 425.251 806.849 389.095 803.272C378.79 801.388 367.946 801.753 357.683 800.743C346.328 799.622 330.3 801.629 319.783 797.596C300.084 790.043 300.509 768.394 296.201 752.324C294.953 747.346 291.712 741.735 297.257 739.037Z" fill="#EBB97D"/>
<path d="M297.256 739.037C301.049 740.171 308.083 742.441 311.806 743.242L314.121 744.248C312.183 745.236 310.06 744.441 308.17 743.588C305.703 744.614 305.77 746.505 305.56 748.966C306.664 750.454 306.921 750.274 308.776 751.12L309.587 752.389L308.798 754.037C303.056 753.614 304.363 751.351 296.2 752.107C294.953 747.21 291.713 741.691 297.256 739.037Z" fill="#F0A15B"/>
<path d="M509.218 795.037C511.628 795.071 511.774 795.8 512.968 797.568C513.628 802.327 512.204 803.936 507.635 805.037L501.121 800.931C503.829 799.322 506.69 796.976 509.218 795.037Z" fill="#F0A15B"/>
<path d="M491.121 793.037C495.398 793.626 503.824 801.452 500.265 804.889L498.021 803.558L496.892 804.121C494.92 804.869 494.787 805.061 492.629 805.035L491.439 803.671C492.392 800.856 494.309 803.584 496.135 800.704L495.537 799.34C491.679 796.91 491.198 797.321 491.121 793.037Z" fill="#F0A15B"/>
<path d="M534.997 805.037C537.167 806.073 537.147 806.32 537.113 808.459C535.897 810.691 534.452 811.493 532.416 813.037L531.301 812.148C530.69 807.724 531.563 807.309 534.997 805.037Z" fill="#F0A15B"/>
<path d="M429.273 774.037L430.121 775.022L430.03 776.507C427.292 778.957 424.919 780.816 422.045 783.037C421.491 782.121 421.477 781.843 421.121 780.816C423.082 777.465 425.698 778.915 429.273 774.037Z" fill="#ECAF6F"/>
<path d="M503.975 790.037C506.538 790.392 506.393 789.948 508.121 791.383C507.384 793.599 507.323 793.091 505.244 794.837C504.846 795.694 505.16 795.211 504.024 796.037L503.42 795.364C502.924 792.723 503.003 792.621 503.975 790.037Z" fill="#F0A15B"/>
<path d="M527.765 784.037L529.429 784.65C532.377 787.833 531.011 790.252 528.832 793.037C527.894 789.783 529.986 789.646 527.121 785.961L527.765 784.037Z" fill="#EBB97D"/>
<path d="M460.52 802.037L462.478 802.655L463.121 803.897C462.545 806.127 461.73 806.532 460.009 808.037C458.369 806.844 458.363 806.887 457.121 805.289C457.758 803.294 458.331 803.507 460.52 802.037Z" fill="#F19248"/>
<path d="M443.24 784.037C444.244 784.537 444.955 785.013 445.905 785.598C446.408 787.811 446.039 787.415 444.714 790.037C443.151 789.988 443.74 790.116 442.335 789.311C441.712 787.5 442.581 785.952 443.24 784.037Z" fill="#F0A15B"/>
<path d="M335.121 754.198C337.754 753.995 337.857 753.918 340.396 754.369L341.121 755.46L340.447 757.11C338.453 757.992 338.563 758.08 336.408 758.023C334.988 756.596 335.433 756.615 335.121 754.198Z" fill="#ECAF6F"/>
<path d="M416.121 799.037C419.06 800.756 418.45 802.201 422.555 802.436L423.121 803.679C420.439 805.136 421.245 805.244 418.767 804.82C417.14 803.215 416.845 801.368 416.121 799.037Z" fill="#ECAF6F"/>
<path d="M534.121 798.037C536.492 798.142 536.35 798.084 538.436 799.03C539.482 800.957 539.102 800.554 538.776 803.037C535.004 802.517 534.494 800.893 534.121 798.037Z" fill="#F19248"/>
<path d="M465.121 796.648C468.948 796.069 470.178 794.783 471.121 799.439C467.445 800.831 467.436 799.748 465.121 796.648Z" fill="#ECAF6F"/>
<path d="M466.599 781.037L467.876 781.85C468.432 783.906 468.066 783.475 466.519 786.037C466.299 785.994 465.437 785.483 465.202 785.353C464.854 783.598 465.684 782.662 466.599 781.037Z" fill="#ECAF6F"/>
<path d="M491.228 807.037L492.557 807.687C493.434 809.311 493.059 811.028 492.93 813.037L491.933 812.354C490.765 810.007 491.188 810.213 491.228 807.037Z" fill="#F0A15B"/>
<path d="M830.182 410.037C836.805 412.922 845.232 417.633 852.124 421.245C865.861 428.477 889.129 437.048 895.341 452.78C903.238 472.779 882.727 498.887 875.417 517.237C868.219 535.318 860.439 553.039 852.431 570.584C846.049 584.237 837.929 602.748 829.548 615.037C829.679 610.434 829.548 605.791 829.502 601.175C828.954 548.201 829.28 495.311 827.419 442.361C827.079 432.591 826.811 422.154 827.902 412.505C827.902 412.505 829.973 410.263 830.182 410.037Z" fill="#EBB97D"/>
<path d="M840.044 439.881C828.675 445.233 826.47 424.355 832.085 421.037L832.959 421.886C836.588 424.361 836.018 423.026 839.614 423.81C840.302 426.943 840.375 427.81 841.653 430.749C846.129 434.75 847.943 441.311 851.38 443.052C853.36 442.346 852.645 442.679 854.293 441.195L855.558 441.255L856.267 442.076L855.585 443.931C856.081 444.806 856.591 445.672 857.121 446.529C852.525 452.575 850.638 450.704 852.161 458.362L851.161 460.811C849.44 463.064 848.049 464.83 845.268 463.67C843.474 460.393 843.229 459.859 840.296 457.555C836.694 456.784 836.184 465.112 830.258 460.462C829.595 457.452 832.734 452.753 834.283 449.948C833.204 448.521 831.992 447.178 830.82 445.823C829.655 444.27 829.92 445.138 830.165 443.09L831.125 442.344C833.985 442.644 834.204 444.186 837.746 445.904C841.713 445.308 837.435 445.368 839.283 442.603C841.044 439.977 840.196 443.335 842.54 440.4L841.613 439.536L840.044 439.881Z" fill="#F19248"/>
<path d="M830.774 446.037C833.47 447.489 833.92 447.593 835.894 449.79L835.788 450.978L835.291 451.312C837.702 452.832 837.861 452.409 838.868 455.296C844.14 456.258 844.398 455.023 848.405 451.687C846.922 454.775 844.133 459.379 844.915 462.443C847.677 463.377 848.69 462.267 851.121 460.849C849.399 463.075 848.008 464.821 845.226 463.675C843.431 460.436 843.186 459.908 840.252 457.631C836.649 456.869 836.139 465.099 830.211 460.504C829.549 457.53 832.688 452.885 834.238 450.113C833.159 448.703 831.947 447.376 830.774 446.037Z" fill="#ECAF6F"/>
<path d="M835.525 451.037C837.949 452.589 838.109 452.157 839.121 455.105C837.676 457.498 836.677 459.557 833.74 460.037L833.121 458.604C833.793 455.405 833.933 453.879 835.525 451.037Z" fill="#F59039"/>
<path d="M840.452 440.152C828.658 445.581 826.371 424.403 832.196 421.037L833.102 421.898C836.866 424.409 836.276 423.055 840.005 423.85C840.719 427.028 840.795 427.907 842.121 430.888L837.849 428.456C835.369 428.293 833.336 427.795 831.365 429.04C827.82 434.646 834.737 439.939 840.452 440.152Z" fill="#F0A15B"/>
<path d="M843.121 476.947C846.185 473.178 849.477 471.683 853.064 468.037C852.172 466.916 851.998 466.979 850.717 466.242C850.402 464.349 850.295 465.245 851.08 463.462C852.528 462.829 852.702 462.816 853.916 461.867C853.916 460.025 854.305 452.104 854.854 451.037L856.075 451.161C857.369 453.424 859.266 457.036 860.889 458.967C861.62 459.506 861.935 460.413 861.693 461.263C861.445 462.112 860.688 462.737 859.776 462.842C861.439 463.453 862.599 463.877 864.322 464.364L865.361 464.821C865.857 466.887 865.777 467.216 867.057 468.985C868.278 469.07 869.351 469.173 870.558 469.313L871.121 470.554L870.41 471.726C867.513 472.652 864.235 472.254 861.103 472.14C859.206 472.992 850.912 481.035 849.484 483.037L843.121 476.947Z" fill="#ECAF6F"/>
<path d="M863.749 464.21C864.166 466.944 864.463 467.23 863.32 469.53C859.664 470.932 858.727 471.114 856.757 474.716C855.73 476.581 855.337 476.829 853.886 477.037C852.787 475.812 851.801 472.913 852.218 471.241C853.633 472.284 854.273 473.009 855.959 472.989L856.703 471.667C855.131 466.619 855.011 465.718 857.44 461.037C857.724 462.09 858.661 462.764 859.652 462.633C861.151 463.266 862.196 463.705 863.749 464.21Z" fill="#F19248"/>
<path d="M855.79 451.037C857.228 453.359 859.336 457.064 861.138 459.046C861.95 459.598 862.3 460.528 862.032 461.4C861.756 462.272 860.915 462.912 859.902 463.021C858.68 463.151 857.526 462.483 857.176 461.441C857.049 461.07 857.042 460.676 857.138 460.298C857.183 455.878 853.697 456.18 855.79 451.037Z" fill="#F0A15B"/>
<path d="M857.186 460.578C857.385 459.917 857.983 459.38 858.787 459.152C859.584 458.924 860.476 459.038 861.147 459.454C861.952 459.95 862.298 460.785 862.033 461.568C861.76 462.35 860.926 462.925 859.923 463.022C858.713 463.139 857.57 462.54 857.223 461.604C857.098 461.271 857.09 460.917 857.186 460.578Z" fill="#F59039"/>
<path d="M852.375 498.388C853.5 495.783 854.911 489.554 853.493 487.096L850.236 486.586L850.121 485.78C852.107 483.524 854.145 481.314 856.233 479.151C858.475 478.563 860.212 477.327 861.745 477.037C864.626 479.402 863.048 483.047 864.945 487.212C865.52 490.038 864.639 490.959 862.959 493.554C862.096 495.793 861.26 497.493 861.062 499.885C858.647 499.582 859.51 499.854 857.491 497.517L856.616 497.589L855.665 500.989C854.036 502.346 854.962 501.974 852.752 502.029C851.628 500.089 852.005 501.184 852.375 498.388Z" fill="#F0A15B"/>
<path d="M852.402 499.037C853.54 496.353 854.968 489.935 853.533 487.402L850.237 486.876L850.121 486.046C852.131 483.721 854.192 481.444 856.306 479.216C858.574 478.609 860.332 477.336 861.883 477.037C864.798 479.474 863.201 483.229 865.121 487.521C860.183 482.313 864.319 481.859 861.941 478.455L860.707 478.631C858.393 482.277 861.864 480.993 859.104 486.218L858.096 486.379C855.982 484.408 856.131 483.813 853.966 483.721L851.898 485.694L852.266 486.495L854.47 486.755C857.346 490.455 855.414 495.857 852.402 499.037Z" fill="#ECAF6F"/>
<path d="M861.326 500.037C860.372 496.592 856.692 491.565 858.722 488.184C860.692 488.062 859.913 487.711 861.26 488.86C861.725 491.019 861.81 491.937 863.121 493.777C862.305 495.991 861.514 497.672 861.326 500.037Z" fill="#ECAF6F"/>
<path d="M836.271 478.079C840.176 477.925 842.638 477.899 843.121 483.52L842.499 484.324L841.049 483.709C838.151 484.746 836.377 485.739 833.617 484.364L833.121 482.865C834.087 479.839 833.948 479.92 836.271 478.079Z" fill="#F59039"/>
<path d="M848.921 487.037C850.365 487.932 852.816 490.573 854.121 491.871C851.972 493.574 849.837 495.296 847.715 497.037C846.635 495.223 846.141 495.153 846.641 493.376L849.02 492.696L849.244 491.827C847.656 490.976 847.379 490.941 846.121 489.704C847.208 487.538 846.47 488.527 848.921 487.037Z" fill="#F59039"/>
<path d="M862.991 432.037L863.307 432.075C864.538 433.914 864.063 437.088 863.852 439.449C862.123 440.696 863.823 438.808 859.767 439.275L859.521 440.037L858.121 438.516C858.554 436.618 861.555 433.699 862.991 432.037Z" fill="#ECAF6F"/>
<path d="M867.861 459.037C869.614 460.348 870.277 461.261 871.104 463.283C871.183 465.96 871.025 465.889 869.653 468.037C867.704 466.716 867.684 466.81 866.22 464.744C865.8 462.428 866.784 461.188 867.861 459.037Z" fill="#F0A15B"/>
<path d="M865.376 477.037C868.911 478.825 870.2 483.546 868.126 487.037L867.06 486.274C865.037 482.193 864.84 481.6 865.376 477.037Z" fill="#ECAF6F"/>
<path d="M841.654 506.037C843.539 506.815 843.539 507.187 844.121 508.599C843.148 511.079 843.49 510.287 841.202 512.037C839.849 511.865 840.345 512.002 839.121 511.245C839.176 508.896 840.124 508.365 841.654 506.037Z" fill="#ECAF6F"/>
<path d="M845.663 420.037C847.365 421.571 847.468 424.085 846.531 426.037L845.41 425.76L842.182 423.741L842.121 422.611L845.663 420.037Z" fill="#ECAF6F"/>
<path d="M883.354 455.037L884.121 455.926C884.032 458.395 883.431 458.571 882.058 461.037L881.121 459.641C881.11 457.822 882.29 456.598 883.354 455.037Z" fill="#EBB97D"/>
<path d="M880.121 470.037C884.079 470.934 884.393 471.617 885.121 475.037C882.36 473.817 880.97 472.818 880.121 470.037Z" fill="#ECAF6F"/>
<path d="M196.292 414.162C203.803 431.523 210.009 424.498 222.187 434.214C227.024 438.073 211.62 444.83 209 445.446C207.341 445.836 201.93 448.752 200.4 449.937C194.631 454.718 192.776 469.516 186.195 473.524C179.61 477.535 175.511 456.794 172.867 453.456C167.482 441.449 151.601 446.616 147.121 437.438C147.141 436.02 146.947 434.704 148.434 433.753C156.132 428.828 164.698 428.629 171.583 421.64C177.953 415.174 178.51 408.339 183.366 401.309C184.69 399.392 185.893 399.193 187.837 399.037C191.655 400.79 192.344 403.934 193.968 407.804L196.292 414.162Z" fill="#EBB97D"/>
<path d="M196.121 414.615C193.204 415.122 192.529 415.46 190.319 413.871L190.121 412.525C191.015 409.988 191.866 409.68 193.977 408.037L196.121 414.615Z" fill="#ECAF6F"/>
<path d="M536.438 192.775C531.194 189.694 520.187 187.968 518.121 183.119C520.323 178.173 533.235 176.413 537.094 172.694C541.48 168.475 541.935 153.459 549.044 153.037C552.429 155.447 556.282 168.769 557.809 173.094C561.799 175.144 564.71 176.214 568.901 177.783C571.812 178.895 573.664 179.298 575.802 181.545C577.719 186.715 570.532 188.068 566.653 189.744C556.068 194.666 555.399 197.474 550.902 208.244C551.227 209.669 550.733 211.157 549.622 212.103C548.511 213.05 546.964 213.298 545.613 212.749C544.261 212.199 543.326 210.942 543.183 209.487C542.273 203.636 539.388 197.842 536.438 192.775Z" fill="#EBB97D"/>
<path d="M568.945 178.037C571.839 179.152 573.679 179.557 575.804 181.811C577.709 186.999 570.566 188.355 566.711 190.037C565.097 186.078 567.111 181.551 568.945 178.037Z" fill="#ECAF6F"/>
<path d="M543.139 209.416C542.94 207.317 544.406 205.423 546.489 205.088C548.572 204.753 550.556 206.092 551.02 208.148C551.352 209.602 550.848 211.119 549.713 212.084C548.579 213.05 547 213.304 545.62 212.743C544.24 212.182 543.285 210.9 543.139 209.416Z" fill="#ECAF6F"/>
<path d="M547.589 170.037C548.622 170.205 548.083 169.987 549.121 170.91L548.934 171.56C547.181 173.078 546.591 172.905 544.419 173.037C543.376 172.598 543.813 172.968 543.121 171.887C544.402 170.532 545.843 170.456 547.589 170.037Z" fill="#ECAF6F"/>
<path d="M801.804 162.046C808.113 161.851 815.713 164.807 812.255 172.434C805.268 187.843 783.264 206.267 768.684 214.597C764.718 215.942 761.815 217.491 759.179 213.383C757.535 201.351 790.884 166.012 801.804 162.046Z" fill="#F59039"/>
<path d="M735.43 132.078C760.336 130.341 738.706 184.524 732.134 192.7C713.604 203.352 726.25 147.054 727.377 140.86C728.223 136.215 731.433 134.284 735.43 132.078Z" fill="#F59039"/>
<path d="M834.316 217.122C839.168 216.662 851.835 217.909 851.089 224.668C849.317 240.802 820.263 240.89 808.093 241.562L805.268 241.741C800.148 242.049 794.387 242.831 790.307 239.338C787.096 228.753 826.449 218.547 834.316 217.122Z" fill="#F59039"/>
<path d="M431.752 178.037C439.631 179.226 439.776 185.645 434.511 191.037C425.943 190.335 427.012 183.21 431.752 178.037Z" fill="#EBB97D"/>
<path d="M169.863 540.037C173.024 541.353 174.808 543.453 175.121 546.778C174.473 549.035 173.26 549.593 171.358 551.037C163.289 550.333 165.989 544.096 169.863 540.037Z" fill="#ECAF6F"/>
<path d="M858.502 378.037C860.153 378.31 860.561 378.59 862.111 379.215C864.685 382.777 861.835 385.418 859.18 388.037C856.179 387.774 854.435 387.041 854.121 384.045C854.987 381.286 856.487 380.13 858.502 378.037Z" fill="#ECAF6F"/>
<path d="M588.522 227.189C586.421 226.319 587.158 227.018 586.121 225.14C587.002 221.777 588.594 220.506 592.176 221.236C593.964 223.17 593.442 222.879 594.121 225.835C593.031 227.492 593.54 226.932 591.811 228.037L588.522 227.189Z" fill="#EBB97D"/>
<path d="M743.094 237.037C745.02 238.125 745.273 238.695 746.116 240.742C746.173 243.472 745.748 243.809 744.367 246.037C741.763 244.897 742.745 245.79 741.155 243.492C740.921 240.796 741.915 239.455 743.094 237.037Z" fill="#ECAF6F"/>
<path d="M588.121 227.037L591.502 227.89C592.817 228.711 593.756 228.852 595.279 229.168C596.366 231.041 596.218 230.083 595.843 232.12C593.931 233.4 595.017 233.08 592.374 232.701C590.026 231.305 589.442 229.508 588.121 227.037Z" fill="#EBB97D"/>
<path d="M162.121 384.037C164.629 384.247 167.18 384.841 167.12 387.554L166.33 388.037C164.416 386.451 163.699 385.886 162.121 384.037Z" fill="#F8D7B9"/>
<path d="M152.121 353.17C154.141 353.054 154.886 352.907 156.799 353.251L157.121 353.931C155.527 354.318 153.569 353.551 152.121 353.17Z" fill="#F8D7B9"/>
</svg>
