<svg width="1024" height="1024" viewBox="0 0 1024 1024" fill="none" xmlns="http://www.w3.org/2000/svg">
<path d="M540.913 346.03C541.718 346.019 542.519 346.011 543.321 346.008C562.862 345.964 582.4 346.106 601.934 346.435C640.02 347.312 677.15 348.608 706.066 371.993C730.975 392.14 736.747 417.884 737.374 445.302C737.63 456.441 737.95 467.457 737.959 478.658L737.972 545.301C738.113 580.384 738.874 621.735 705.74 647.764C680.489 667.603 646.704 670.639 613.592 671.546C602.448 671.876 591.298 672.02 580.151 671.972L526.026 672C508.812 671.822 491.555 671.947 474.336 671.947C435.325 671.947 360.594 671.2 330.727 647.764C301.46 624.797 330.798 589.141 330.222 558.141C329.8 535.451 330.333 512.697 330.416 490.002C330.465 476.458 330.288 462.939 330.727 449.396C331.166 435.846 331.964 422.382 336.113 409.189C340.011 396.791 347.778 384.006 358.86 374.781C389.307 349.436 426.846 347.549 467.958 346.52C492.271 345.912 516.592 346.268 540.913 346.03Z" fill="#FEF1E2"/>
<path d="M445.386 331.368C447.303 310.906 446.824 284.691 464.645 270.525C483.362 255.648 513.92 258.267 536.485 258.361C565.15 258.48 598.605 256.119 618.29 281.198C631.125 297.304 630.285 315.269 629.67 334.677C656.225 336.159 684.365 334.955 711.075 336.421C718.265 336.797 726.455 335.792 733.465 337.421C738.855 338.673 747.04 343.321 750.525 347.509C760.395 359.366 760.58 380.849 762.27 395.797L769.32 459.861C775.44 511.45 782.375 563.195 786.11 614.985C786.495 620.295 757.395 623.325 752.255 624.41C746.41 654.61 734 677.98 707.92 695.655C683.485 711.935 653.56 717.775 624.795 711.88C608.54 708.7 592.6 700.885 579.615 690.655L498.352 738.195C488.811 743.695 475.518 752.6 465.554 756.325C442.951 764.78 421.006 743.18 427.643 720.255C431.654 705.26 446.321 700.12 458.396 692.71C470.122 685.515 482.409 679.055 494.04 671.68C498.196 669.77 506.325 664.66 510.65 662.11C521.735 656.07 533.905 648.49 545.055 642.045C539.985 627.28 539.72 616.29 540.01 601.145C536.7 600.235 499.853 599.855 494.291 599.75C461.886 598.97 429.492 597.775 397.119 596.155C386.967 595.735 377.052 596.39 366.967 596.015C361.642 595.815 359.258 593.475 356.077 589.6C355.759 587.37 355.679 586.03 355.618 583.77C356.536 578.775 355.872 571.6 357.16 567.415C356.554 565.47 357.072 566.295 355.451 564.91L355.467 564.66L357.4 564.745C359.267 537.935 360.869 511.56 364.71 484.862C358 483.595 351.317 482.194 344.664 480.659C341.561 518.43 338.181 556.18 334.524 593.9C333.785 602.985 332.952 612.06 332.025 621.13C331.405 627.36 330.698 633.45 330.442 639.72C330.107 647.905 334.897 650.865 342.558 651.325C369.633 652.97 396.761 653.355 423.861 654.41C433.281 654.775 442.953 654.565 452.305 655.16C461.364 655.73 463.045 662.115 457.605 668.805C461.977 671.195 468.048 668.88 472.471 670.195C471.756 670.92 449.505 679.33 447.241 679.965C442.216 681.525 432.644 685.74 427.463 687.78C414.263 692.945 401.033 698.04 387.773 703.05C357.03 714.755 359.629 713.595 348.098 683.59C345.849 677.72 343.431 671.91 340.845 666.18C307.545 662.51 315.397 636.56 317.643 612.52C317.606 611.11 317.53 609.72 316.954 608.41C306.069 583.65 296.921 558.13 286.269 533.285L282.642 525.035C272.343 502.665 264.387 478.488 254.591 455.892C253.621 453.653 251.246 448.685 250.792 446.451C248.347 434.424 265.599 429.684 273.451 426.421L302.057 414.614L304.823 413.596C310.741 411.424 316.379 409.061 322.197 406.641L324.469 378.882C325.944 361.865 326.122 349.651 340.049 337.733C352.829 326.796 369.742 330.482 385.384 330.339C405.336 330.157 425.458 331.419 445.386 331.368Z" fill="#181717"/>
<path d="M555.015 505.32L633.18 490.951C650.915 487.651 682.76 483.566 697.57 475.398C697.36 481.725 696.41 489.243 695.715 495.616C695.14 500.855 694.595 508.79 693.53 513.865C665.02 501.015 637.065 497.902 607.21 509.22C581.745 519.06 561.21 538.585 550.115 563.53C544.695 575.425 541.28 588.135 540.01 601.145C536.7 600.235 499.853 599.855 494.291 599.75C461.886 598.97 429.492 597.775 397.119 596.155C386.967 595.735 377.052 596.39 366.967 596.015C361.642 595.815 359.258 593.475 356.077 589.6C355.759 587.37 355.679 586.03 355.618 583.77C356.536 578.775 355.872 571.6 357.16 567.415C356.554 565.47 357.072 566.295 355.451 564.91L355.467 564.66L357.4 564.745C359.267 537.935 360.869 511.56 364.71 484.862C371.457 485.851 378.736 487.263 385.442 488.635C410.152 493.69 435.389 497.496 460.008 502.775C459.319 511.825 456.045 527.85 461.652 535.27C465.103 539.59 471.259 541.92 476.677 541.94C487.223 541.98 498.602 543.11 509.04 542.88C519.585 542.65 539.65 546.185 547.765 538.935C554.61 532.815 554.03 514.5 555.015 505.32Z" fill="#EDCB9F"/>
<path d="M355.618 583.77C356.536 578.775 355.872 571.6 357.16 567.415C356.554 565.47 357.072 566.295 355.451 564.91L355.467 564.66L357.4 564.745C357.549 567.37 358.458 568.275 360.32 570.33L362.226 569.91L362.546 570.375C361.355 571.54 360.759 571.86 360.514 573.605C361.665 578.045 365.109 575.175 363.095 579.185L361.438 581.495L361.138 579.875C359.39 579.55 359.128 580.175 357.09 581.225L356.751 581.21C356.45 582.295 356.346 582.9 355.618 583.77Z" fill="#F0CFA6"/>
<path d="M358.692 575.06C360.309 575.865 361.802 576.405 362.969 577.745L363.096 579.185C361.303 578.505 359.797 578.23 358.786 576.7L358.692 575.06Z" fill="#F8DEBF"/>
<path d="M357.091 581.225C359.129 580.175 359.39 579.55 361.138 579.875L361.439 581.495L361.071 582.715C362.206 583.61 362.12 583.66 362.795 584.97L362.325 585.45C360.434 585.39 357.772 582.985 357.091 581.225Z" fill="#F8DEBF"/>
<path d="M421.428 580.215C428.462 583.01 423.221 588.33 420.035 591.93C419.015 593.085 419.135 591.49 417.307 591.245L416.442 593.505L415.741 594.14L414.586 594.015C413.19 592.59 413.463 593.38 413.276 591.76C415.834 588.705 420.623 588.745 421.793 585.015C421.342 582.94 421.267 582.33 421.428 580.215Z" fill="#F8DEBF"/>
<path d="M374.786 518.74C377.988 519.605 380.76 523.055 380.759 526.36L379.978 526.975C377.45 525.805 374.086 524.735 372.844 522.43C373.117 520.32 373.286 520.715 374.786 518.74Z" fill="#E5BC8D"/>
<path d="M571.26 504.31L571.97 504.325C572.675 505.37 573.06 509.63 572.295 510.725C570.88 511.32 571.55 511.35 570.26 510.99C568.965 509.59 567.585 508.55 566.875 506.785C568.14 506.015 567.93 506.22 569.55 506.135L570.04 506.115L571.26 504.31Z" fill="#F8BF7E"/>
<path d="M365.768 502.76C369.158 504.045 373.084 503.125 376.837 503.71L377.437 504.99C370.177 506.325 370.812 508.93 365.768 502.76Z" fill="#F8DEBF"/>
<path d="M385.404 558.01L386.119 558.19C386.937 560.05 387.745 561.175 386.207 562.74C384.459 562.755 383.325 562.86 381.582 563.05L380.59 563.6L380.076 563.215L379.945 562.14C381.562 560.2 383.262 559.355 385.404 558.01Z" fill="#F8DEBF"/>
<path d="M492.039 592.11L493.528 592.44L494.014 593.245C493.318 595.035 491.287 596.595 489.815 597.965L488.528 596.97C487.755 594.72 487.727 595.775 488.322 593.7C489.963 592.06 489.339 592.57 492.039 592.11Z" fill="#F8BF7E"/>
<path d="M365.245 588.25C366.919 588.46 367.694 588.865 368.441 590.32C367.729 592.395 367.747 591.88 365.795 593.535C364.108 594.405 364.859 594.43 363.405 594.145L363.046 593.22C363.325 590.7 363.72 590.32 365.245 588.25Z" fill="#F8DEBF"/>
<path d="M484.034 585.495C484.745 585.84 485.046 586.275 485.659 586.87C486.037 589.195 483.775 591.77 482.395 593.7L481.688 593.09C482.355 591.375 481.618 589.85 481.229 588.06C482.392 587.11 482.985 586.535 484.034 585.495Z" fill="#E5BC8D"/>
<path d="M475.773 570.655C477.138 571.285 477.108 571.185 477.998 572.37L477.572 573.32C474.953 574.485 473.706 574.235 471.009 574.915C470.174 573.535 469.774 573.105 470.283 571.59C471.647 571.64 472.12 572.27 473.217 573.165L473.665 573.535L475.773 570.655Z" fill="#F8DEBF"/>
<path d="M460.832 562.595L462.212 562.635C463.258 563.44 462.934 562.89 463.294 564.24C461.698 565.17 460.671 564.6 458.431 565.74C456.874 565.425 456.731 565.555 455.547 564.57L455.806 564C457.119 562.92 459.075 562.855 460.832 562.595Z" fill="#F8DEBF"/>
<path d="M372.932 590.455C373.498 590.44 373.677 590.555 374.246 590.715C375.109 592.91 375.029 591.815 374.478 594.12L372.576 594.46C370.658 594.165 370.336 594.355 369.213 593.195C370.145 591.575 370.992 591.545 372.932 590.455Z" fill="#F8DEBF"/>
<path d="M487.561 580.71C488.278 580.265 489.178 580.245 489.914 580.655C490.65 581.065 491.107 581.84 491.109 582.68C491.112 583.52 490.658 584.3 489.924 584.715C488.821 585.335 487.424 584.96 486.781 583.87C486.138 582.78 486.485 581.375 487.561 580.71Z" fill="#F8BF7E"/>
<path d="M367.087 538.74L368.048 538.75C369.352 540.945 368.491 542.415 366.213 543.205C364.845 542.28 364.864 542.34 363.843 541.06C364.595 539.6 365.273 539.675 367.087 538.74Z" fill="#E5BC8D"/>
<path d="M388.144 569.405C389.585 569.385 389.642 569.245 390.851 569.95C391.176 571.91 390.637 572.155 389.739 574.36C387.702 573.615 387.536 571.21 388.144 569.405Z" fill="#F8DEBF"/>
<path d="M404.348 553.205L406.008 553.8C406.898 555.14 406.802 557.11 406.903 558.8C404.013 557.77 404.196 555.96 404.348 553.205Z" fill="#F8DEBF"/>
<path d="M360.457 556.925C362.572 557.77 363.664 558.815 363.631 561.155C361.95 560.695 361.593 560.67 360.087 559.69C359.532 557.98 359.553 558.875 360.457 556.925Z" fill="#F8DEBF"/>
<path d="M564.515 512.975C566.385 512.76 566.9 512.83 568.26 513.95L567.98 514.695L566.88 514.825C565.445 514.69 564.055 514.765 562.61 514.785L562.545 514.325L564.515 512.975Z" fill="#F8BF7E"/>
<path d="M403.506 521.695C402.294 522.7 402.219 522.935 400.66 523.23L399.999 522.525C400.377 520.59 399.95 521.395 401.279 519.995C402.932 519.905 402.187 519.675 403.528 520.88L403.506 521.695Z" fill="#F8DEBF"/>
<path d="M437.463 556.86C437.784 557 438.813 557.61 439.154 557.805L439.013 558.46L436.411 559.71L434.783 559.28L434.425 558.46C435.669 557.09 435.415 557.495 437.463 556.86Z" fill="#E5BC8D"/>
<path d="M409.551 573.905C411.594 575.3 412.256 576.11 412.269 578.61C410.324 578.26 411.122 578.67 409.706 577.495C409.149 575.83 409.315 575.625 409.551 573.905Z" fill="#E5BC8D"/>
<path d="M453.917 592.12L455.488 592.335C456.403 593.395 456.305 595.255 456.436 596.78C456.14 596.765 455.347 596.525 455.022 596.44C453.979 595.175 454.083 593.815 453.917 592.12Z" fill="#E5BC8D"/>
<path d="M437.907 533.855C439.084 533.895 439.564 533.985 440.73 534.195C441.56 535.435 441.297 534.71 440.904 536.685C439.757 536.6 439.204 536.455 438.075 536.2L437.525 535.275L437.907 533.855Z" fill="#E5BC8D"/>
<path d="M482.042 564.335C484.573 564.82 485.305 564.865 486.295 567.325L484.743 567.48C482.884 566.405 483.322 566.435 482.042 564.335Z" fill="#F8DEBF"/>
<path d="M514.185 588.83L514.595 589.22C514.995 590.785 514.11 591.905 513.34 593.685L512.58 592.705C512.47 591.115 513.305 590.225 514.185 588.83Z" fill="#F8BF7E"/>
<path d="M304.823 413.596C310.741 411.424 316.379 409.061 322.197 406.641C320.69 420.334 319.437 434.053 318.437 447.793C318.536 450.405 318.535 452.857 319.024 455.425C321.476 464.751 323.276 466.801 330.148 473.299C328.563 485.594 327.839 498.269 326.681 510.65C324.51 531.64 322.567 552.655 320.853 573.685C319.917 585.045 319.139 601.785 317.643 612.52C317.606 611.11 317.53 609.72 316.954 608.41C306.069 583.65 296.921 558.13 286.269 533.285L282.642 525.035C272.343 502.665 264.387 478.488 254.591 455.892C253.621 453.653 251.246 448.685 250.792 446.451C248.347 434.424 265.599 429.684 273.451 426.421L302.057 414.614L304.823 413.596Z" fill="#F8BF7E"/>
<path d="M282.642 525.035C287.223 524.04 284.725 523.085 288.189 521.895C289.332 523.185 289.026 522.45 289.135 524.175C288.215 526.27 287.767 526.695 286.306 528.525C287.121 530.04 287.892 531.485 288.778 532.96L287.942 533.965L288.289 534.225C286.904 533.955 287.37 534.16 286.269 533.285L282.642 525.035Z" fill="#F2AB58"/>
<path d="M319.024 455.425C317.774 455.767 315.504 456.578 314.478 456.115C318.68 452.096 316.259 450.965 318.438 447.793C318.536 450.405 318.535 452.857 319.024 455.425Z" fill="#F2AB58"/>
<path d="M302.057 414.614L304.823 413.596C305.409 415.324 305.543 415.561 306.741 416.935C306.863 417.604 306.926 417.727 306.914 418.404C304.246 417.1 303.939 416.902 302.057 414.614Z" fill="#EDCB9F"/>
<path d="M271.978 441.634C271.512 438.985 268.485 438.002 267.98 435.868C270.035 434.675 270.445 435.234 273.246 433.551C275.886 435.398 274.375 439.583 277.379 441.731C279.228 443.054 280.329 441.53 280.853 442.957C279.78 444.672 278.775 446.244 277.831 448.044L277.045 448.541C274.855 448.529 275.768 448.195 274.129 449.328C273.833 449.915 273.327 450.841 273.109 451.422L274.388 452.026L275.674 454.312C274.95 456.019 274.167 455.226 272.62 456.374L273.729 456.404C274.367 457.475 274.783 458.149 274.449 459.409L273.368 460.418L270.674 459.944C269.361 460.909 269.511 461.13 269.194 463.096C268.083 463.192 268.436 463.318 267.509 462.938L264.708 460.823L265.513 459.514L264.48 457.938C263.214 457.321 262.496 457.143 261.779 455.942C262.575 454.916 262.724 454.951 262.786 453.697L262.032 452.983C259.491 453.531 261.488 454.387 258.993 455.629L258.234 455.021C258.482 452.085 258.862 455.13 259.838 451.754C260.767 451.532 260.797 451.573 261.706 451.741C262.054 449.884 261.005 448.811 262.434 447.4C263.924 445.927 264.831 445.455 266.868 445.171L266.592 446.399C267.344 447.96 267.42 448.484 269.029 448.816C269.88 447.348 269.611 447.815 269.27 445.69L270.42 443.415L271.978 441.634Z" fill="#F2AB58"/>
<path d="M271.977 441.634C271.511 438.985 268.485 438.002 267.98 435.868C270.034 434.675 270.444 435.234 273.245 433.551C275.885 435.398 274.375 439.583 277.378 441.731C279.228 443.054 280.329 441.53 280.853 442.957C279.78 444.672 278.775 446.244 277.831 448.044L277.045 448.541C274.854 448.529 275.768 448.195 274.129 449.328C273.833 449.915 273.327 450.841 273.109 451.422L272.769 450.427L271.881 450.279L269.602 451.956C270.778 448.305 273.312 448.547 274.196 445.436C273.636 443.562 273.164 443.15 271.977 441.634Z" fill="#EDCB9F"/>
<path d="M265.513 459.514L264.48 457.938C263.214 457.321 262.496 457.143 261.779 455.942C262.575 454.916 262.724 454.951 262.786 453.697L262.032 452.983C259.491 453.531 261.488 454.387 258.993 455.629L258.234 455.021C258.482 452.085 258.862 455.13 259.838 451.754C260.767 451.532 260.797 451.573 261.706 451.741C262.054 449.884 261.005 448.811 262.434 447.4C263.924 445.927 264.831 445.455 266.868 445.171L266.592 446.399C265.325 447.491 264.42 448.023 263.916 449.602C264.159 453.976 266.051 455.507 266.707 459.105L265.513 459.514Z" fill="#EDCB9F"/>
<path d="M269.602 451.956L271.881 450.279L272.769 450.427L273.11 451.422L274.388 452.026L275.675 454.312C274.951 456.019 274.167 455.226 272.62 456.374L270.717 456.901C269.104 456.313 269.769 456.781 268.68 455.399C268.519 452.938 268.235 454.048 269.602 451.956Z" fill="#E5BC8D"/>
<path d="M312.931 500.025C316.51 504.47 311.609 508.61 308.817 511.805L306.081 506.425C308.378 502.95 309.555 502.305 312.931 500.025Z" fill="#F4AA58"/>
<path d="M267.563 444.049L266.658 443.04C265.644 443.361 264.717 443.768 263.771 444.251L263.023 443.697L262.975 442.729C267.824 439.189 262.005 439.332 261.145 436.418C263.494 435.392 263.412 434.155 265.479 433.583L266.512 434.459C266.297 436.116 265.984 435.993 264.757 437.547L264.949 438.102C265.779 438.017 265.872 437.958 266.595 437.602C268.681 439.312 267.488 440.929 270.42 443.415L269.27 445.69L267.563 444.049Z" fill="#E5BC8D"/>
<path d="M273.109 451.422C273.327 450.841 273.833 449.915 274.129 449.328C275.768 448.195 274.855 448.529 277.045 448.541C278.062 449.872 278.408 450.615 279.751 451.534L282.746 454.817C281.5 455.707 279.657 456.662 278.104 456.162C277.113 454.872 276.983 454.235 276.448 452.728L274.388 452.026L273.109 451.422Z" fill="#F2AB58"/>
<path d="M304.407 484.676C306.44 485.203 307.404 485.046 308.344 486.953C308.167 488.755 306.98 490.227 305.976 491.792C303.439 491.08 302.639 491.205 301.951 488.569C302.432 486.518 302.889 486.281 304.407 484.676Z" fill="#F4AA58"/>
<path d="M295.748 455.779L296.045 455.755C297.228 457.227 299.162 458.05 300.862 458.971C297.564 460.498 297.748 457.671 296.388 461.663L296.489 462.332C295.443 463.556 296.057 463.027 294.181 463.514L293.986 462.999L295.295 460.447L293.556 459.492C293.008 457.729 294.202 459.651 295.748 455.779Z" fill="#EDCB9F"/>
<path d="M270.519 466.972C271.532 467.725 272.27 468.8 272.642 470C271.931 471.955 271.919 471.478 269.946 472.987C268.367 472.116 267.489 471.527 267.146 469.759C267.858 468.1 268.886 467.829 270.519 466.972Z" fill="#F8DEBF"/>
<path d="M279.751 451.534C281.642 451.241 281.921 451.891 283.517 453.093C285.469 453.326 288.269 453.505 289.993 454.253C288.762 455.259 287.597 454.647 287.042 454.952C285.842 455.612 286.663 457.551 284.927 457.931L282.746 454.817L279.751 451.534Z" fill="#EDCB9F"/>
<path d="M308.759 564.34L309.978 564.62C311.333 565.77 312.762 566.595 311.609 568.365C310.11 568.545 309.652 568.095 308.329 567.34C307.815 567.37 307.328 568.11 306.778 568.66C305.165 568.73 305.799 569.015 304.698 568.16C305.442 565.96 306.705 565.16 308.759 564.34Z" fill="#F2AB58"/>
<path d="M256.398 442.091C254.541 441.764 254.137 441.801 252.562 440.691L252.4 439.626C253.822 437.692 256.297 436.707 258.451 438.027L258.397 438.987L256.398 442.091Z" fill="#F2AB58"/>
<path d="M314.232 483.191C316.641 483.801 319.984 485.464 321.235 487.738C321.188 489.957 321.452 488.898 320.131 490.947C317.498 483.656 316.004 487.066 313.524 485.066L314.232 483.191Z" fill="#F4AA58"/>
<path d="M276.187 433.938C278.269 434.074 279.864 434.008 281.771 434.844L281.983 435.6L280.674 436.783C280.066 438.121 280.153 438.06 278.934 438.866L278.002 438.604C276.713 436.865 276.704 436.114 276.187 433.938Z" fill="#F8DEBF"/>
<path d="M264.709 460.823L267.509 462.938C265.957 464.231 264.586 466.71 262.18 467.197C262.136 465.721 263.82 462.144 264.709 460.823Z" fill="#E5BC8D"/>
<path d="M313.635 569.475L314.186 569.67C315.518 571.59 315.759 571.76 316.182 573.98L315.546 574.74L314.975 574.305C313.613 570.935 312.565 573.33 310.311 571.245C311.186 570.065 312.204 569.94 313.635 569.475Z" fill="#F4AA58"/>
<path d="M314.661 549.955C315.791 551.375 316.247 551.77 316.781 553.54L316.523 554.51L315.358 554.925L314.761 554.625C313.955 554.23 313.245 553.925 312.423 553.575C312.978 551.565 313.152 551.5 314.661 549.955Z" fill="#F2AB58"/>
<path d="M274.449 459.409C276.648 460.62 278.283 463.477 277.65 465.952L277.123 465.932C275.731 463.84 275.197 462.135 273.368 460.418L274.449 459.409Z" fill="#EDCB9F"/>
<path d="M258.397 438.987C259.449 440.076 259.796 440.204 260.094 441.675C259.335 443.236 258.899 443.447 257.574 444.525C257.101 444.082 256.737 443.224 256.392 442.586L256.397 442.091L258.397 438.987Z" fill="#E5BC8D"/>
<path d="M257.574 444.525C257.041 446.035 256.79 447.35 255.616 448.368L254.885 448.125C254.502 445.719 255.232 444.655 256.392 442.586C256.738 443.224 257.102 444.082 257.574 444.525Z" fill="#EDCB9F"/>
<path d="M300.586 563.38C303.515 563.31 304.251 563.28 305.885 565.8C302.332 566.21 302.64 566.04 300.586 563.38Z" fill="#F2AB58"/>
<path d="M302.074 550.82C304.61 552.25 301.965 551.55 303.811 555.105C302.35 554.88 302.985 555.175 301.864 554.155C301.397 552.565 301.605 552.405 302.074 550.82Z" fill="#EDCB9F"/>
<path d="M340.845 666.18L436.894 669.255C437.842 671.065 437.805 671.05 438.199 673.08C440.127 675.125 441.067 675.61 440.728 678.55C442.318 680.085 444.894 679.92 447.241 679.965C442.216 681.525 432.644 685.74 427.463 687.78C414.263 692.945 401.033 698.04 387.773 703.05C357.03 714.755 359.629 713.595 348.098 683.59C345.849 677.72 343.431 671.91 340.845 666.18Z" fill="#F2AB58"/>
<path d="M381.642 686.42C384.005 687.17 385.392 687.105 386.501 688.81C384.826 688.975 383.91 689.175 382.245 688.815C381.201 687.63 381.526 688.35 381.642 686.42Z" fill="#F4AA58"/>
<path d="M436.894 669.255C441.628 669.525 453.365 669.965 457.606 668.805C461.977 671.195 468.049 668.88 472.471 670.195C471.757 670.92 449.506 679.33 447.242 679.965C444.894 679.92 442.318 680.085 440.729 678.55C441.068 675.61 440.127 675.125 438.199 673.08C437.805 671.05 437.843 671.065 436.894 669.255Z" fill="#F4AA58"/>
<path d="M461.14 487.776C440.678 484.688 416.071 479.139 395.369 475.231L366.618 469.808C348.375 466.361 331.42 465.3 333.325 440.609C335.305 414.962 337.953 389.385 340.433 363.754C341.401 353.748 348.681 346.153 358.942 345.16C372.656 344.385 387.255 345.781 401.069 345.458C404.293 345.383 409.26 345.426 412.35 345.885C427.317 345.949 445.191 346.197 460.143 346.639C480.308 347.476 501.04 347.294 521.25 347.627L645.25 349.93C662.595 350.333 687.765 350.064 704.565 351.335L716.795 351.69C710.165 362.3 711.67 369.144 709.92 380.991C706.645 403.144 705.365 425.564 701.97 447.661C701.5 450.719 699.645 454.671 698.01 457.2C693.57 463.938 686.86 466.365 679.26 467.962C666.92 470.557 654.325 472.675 641.895 475.045C613.445 480.381 584.96 485.519 556.44 490.46C556.67 486.323 556.875 482.184 557.05 478.045C557.635 469.839 559.66 459.731 554.07 453.092C550.55 448.908 546.23 447.163 540.865 446.885C523.525 445.99 506.15 445.788 488.8 445.126C463.241 443.325 463.372 454.046 461.998 474.803C461.888 479.111 461.482 483.476 461.14 487.776Z" fill="#F0CFA6"/>
<path d="M461.14 487.776C440.678 484.688 416.071 479.139 395.369 475.231L366.618 469.808C348.375 466.361 331.42 465.3 333.325 440.609C335.305 414.962 337.953 389.385 340.433 363.754C341.401 353.748 348.681 346.153 358.942 345.16C372.656 344.385 387.255 345.781 401.069 345.458C404.293 345.383 409.26 345.426 412.35 345.885C413.871 346.286 414.525 346.423 415.98 347.114C415.924 349.494 407.48 354.21 405.172 355.189C400.55 357.151 396.314 363.461 392.04 366.349C386.714 370.753 374.218 377.549 369.67 381.568L369.541 382.294C370.603 383.729 372.788 384.585 374.451 385.432C372.706 386.944 368.841 386.71 365.952 389.826C363.341 390.777 360.671 391.79 358.042 392.67C358.196 412.289 356.346 419.124 372.35 435.608C383.657 447.255 407.839 458.696 423.307 463.8C435.227 467.733 449.665 470.661 461.998 474.803C461.888 479.111 461.482 483.476 461.14 487.776Z" fill="#FEEDDA"/>
<path d="M704.565 351.335L716.795 351.69C710.165 362.3 711.67 369.144 709.92 380.991C706.645 403.144 705.365 425.564 701.97 447.661C701.5 450.719 699.645 454.671 698.01 457.199C693.57 463.938 686.86 466.365 679.26 467.962C666.92 470.557 654.325 472.675 641.895 475.045C613.445 480.381 584.96 485.519 556.44 490.46C556.67 486.323 556.875 482.184 557.05 478.044C561.9 476.231 579.225 473.923 585.895 472.31C613.385 465.661 645.655 453.957 669.445 438.82C671.62 437.578 677.06 432.127 678.385 429.917C698.72 408.612 690.615 365.591 704.565 351.335Z" fill="#FEF1E2"/>
<path d="M412.35 345.884C427.317 345.948 445.191 346.197 460.144 346.639L460.704 347.341C457.908 348.605 443.252 346.404 441.936 347.47C434.559 353.441 426.88 359.566 420.627 366.705L420.653 367.275C424.19 366.969 425.3 366.276 427.395 363.507C427.844 364.156 427.645 363.818 427.994 364.521L429.371 364.635C427.17 365.227 425.507 366.75 423.702 367.203C424.355 369.545 423.89 370.498 422.025 372.13L421.1 372.104C418.259 373.066 418.719 373.27 416.467 370.99C413.083 370.254 410.139 372.585 407.065 374.341C405.164 375.666 402.923 374.953 399.735 376.529C397.217 377.899 393.609 380.042 390.92 380.698C389.26 381.246 387.411 381.508 386.464 382.579C385.37 383.968 386.028 383.679 384.659 384.02L383.361 383.053C382.158 383.852 381.853 384.848 381.2 386.163L380.475 386.332L380.036 385.017C377.218 384.305 371.091 388.724 365.952 389.826C368.842 386.71 372.706 386.944 374.452 385.432C372.789 384.585 370.604 383.729 369.542 382.294L369.671 381.568C374.219 377.548 386.715 370.753 392.041 366.349C396.314 363.461 400.55 357.15 405.172 355.189C407.481 354.209 415.924 349.494 415.98 347.114C414.526 346.423 413.871 346.285 412.35 345.884Z" fill="#F8DEBF"/>
<path d="M421.099 372.104C419.994 371.028 419.606 370.814 418.958 369.412L419.453 368.385C421.305 367.721 421.777 367.584 423.702 367.203C424.354 369.545 423.89 370.498 422.025 372.13L421.099 372.104Z" fill="#EDCB9F"/>
<path d="M407.065 374.341C408.624 376.13 408.738 376.303 410.711 377.548L414.308 379.448C416.501 379.583 417.349 378.534 419.158 378.978C419.096 380.936 419.437 380.138 418.299 381.526C415.328 382.044 413.777 380.517 411.152 380.754C409.473 380.906 411.039 382.283 407.974 383.03L406.791 382.661L406 383.558C405.254 384.377 405.712 384.112 404.625 384.351C402.102 380.218 400.208 381.091 399.735 376.529C402.922 374.953 405.164 375.666 407.065 374.341Z" fill="#F8DEBF"/>
<path d="M669.445 438.82L668.59 438.258C666.86 437.143 666.7 437.029 665.16 435.62C665.24 434.415 667.75 427.763 668.41 425.82L669.335 425.578C671.35 426.336 671.415 426.435 673.045 427.906L672.83 428.272C671.55 427.623 670.48 426.872 669.095 426.931L669.175 428.147C670.955 429.664 672.965 430.856 674.94 432.122C676.5 431.675 676.455 431.136 677.705 429.551L678.385 429.917C677.06 432.127 671.62 437.578 669.445 438.82Z" fill="#EDCB9F"/>
<path d="M410.711 377.548C411.615 375.993 411.609 375.723 413.126 374.719C415.184 375.504 414.507 377.515 414.308 379.448L410.711 377.548Z" fill="#EDCB9F"/>
<path d="M386.464 382.579C387.411 381.508 389.26 381.246 390.919 380.698L391.552 383.1C389.955 384.463 388.635 383.933 386.687 383.394L386.464 382.579Z" fill="#E5BC8D"/>
<path d="M406 383.558L406.791 382.661L407.974 383.03C408.683 384.927 408.89 384.56 408.466 386.154C406.83 385.9 406.743 385.074 406 383.558Z" fill="#EDCB9F"/>
<path d="M441.144 420.489C443.736 418.833 444.7 421.441 448.114 419.01C447.252 416.777 446.87 416.691 447.745 414.595C449.018 414.352 449.556 414.316 450.857 414.244C453.575 412.419 451.626 410.454 453.171 407.969C454.517 408.97 456.476 414.011 457.305 415.875C456.586 416.78 456.424 416.946 455.559 417.715L455.488 418.371C455.29 420.067 455.398 420.897 454.257 422.116C451.267 423.099 448.552 423.257 445.575 424.361C443.845 425.003 443.969 427.678 442.032 427.12C441.108 426.854 439.812 424.715 438.947 423.765C437.125 422.441 437.116 422.842 436.285 421.067L436.776 420.204C439.149 419.554 438.437 419.767 441.144 420.489Z" fill="#F8DEBF"/>
<path d="M438.947 423.765C437.125 422.441 437.116 422.842 436.285 421.067L436.776 420.205C439.149 419.554 438.437 419.767 441.144 420.489C440.558 422.464 440.528 422.354 438.947 423.765Z" fill="#F8DEBF"/>
<path d="M673.79 365.073C677.665 363.37 676.44 358.895 680.29 358.793C681.955 359.916 682.38 360.299 683.84 361.699L684.435 361.408C685.16 358.301 682.715 357.677 683.705 355.32C685.415 354.873 689.5 353.638 690.91 354.031L691.88 355.658L691.685 356.364C688.155 357.314 685.185 354.011 683.74 356.51C685.67 358.599 686.355 356.149 687.81 358.748C687.555 360.155 687.525 360.084 686.775 361.323C686.865 364.978 688.815 365.621 688.23 368.199L687.365 368.466C683.87 365.408 682.595 362.474 677.77 365.845L677.29 366.998C678.855 370.698 684.815 369.02 680.92 374.127L680.14 374.174C678.07 371.477 677.13 370.219 674.66 367.862L673.79 365.073Z" fill="#E5BC8D"/>
<path d="M679.695 359.26C681.145 360.374 681.24 360.319 682.12 361.996L681.75 362.583L680.45 362.582L678.64 361.907L678.325 361.19L679.695 359.26Z" fill="#F8BF7E"/>
<path d="M422.333 394.009C427.081 399.494 422.227 398.781 421.147 402.523C422.381 403.466 423.3 402.431 425.917 403.151L426.137 403.983C425.244 405.715 425.423 405.209 423.351 406.323L423.974 406.878L423.498 406.432L424.378 406.344L424.98 407.293L425.134 407.151L425.924 407.26C425.018 409.687 423.815 410.894 421.309 409.971C417.045 405.536 419.282 398.488 422.333 394.009Z" fill="#F8DEBF"/>
<path d="M460.96 430.309C462.446 430.917 462.341 430.916 463.446 432.111C463.98 434.76 460.116 438.733 458.435 442.354L458.153 442.977C460.539 443.453 462.188 443.192 462.517 445.736L461.618 446.395C459.63 446.373 460.613 446.599 458.712 445.207C456.958 445.745 457.75 445.828 456.244 445.232C455.76 443.602 457.433 440.053 457.859 437.27C455.91 435.835 456.008 435.489 456.346 433.283C457.585 433.114 457.868 433.697 459.256 434.607C460.275 433.532 460.517 431.861 460.96 430.309Z" fill="#F8DEBF"/>
<path d="M638.565 389.557C641.84 392.832 641.725 389.746 644.015 391.56C644.33 393.304 644.425 393.223 643.86 394.872C641.94 395.879 641.195 393.479 638.47 394.445C637.585 395.922 637.88 397.847 637.935 399.651C636.085 400.629 632.605 401.866 631.295 399.645C631.915 398.641 633.22 398.174 634.405 397.595L635.045 397.288L635.705 393.004C637.335 391.71 637.62 391.406 638.565 389.557Z" fill="#EDCB9F"/>
<path d="M593.975 441.292C598.48 442.992 595.405 450.55 591.315 452.176C589.145 450.795 588.9 449.232 589.425 446.681C590.06 443.606 591.385 442.854 593.975 441.292Z" fill="#EDCB9F"/>
<path d="M401.568 387.517C402.635 387.741 403.662 387.767 404.742 387.655C405.44 389.915 404.458 387.421 403.275 389.698C404.524 390.879 406.097 392.131 406.912 393.638C408.346 393.688 408.407 393.551 409.572 394.316L409.768 395.815C408.116 396.764 404.824 398.245 402.934 397.86C400.851 395.685 403.048 391.145 401.568 387.517Z" fill="#F8DEBF"/>
<path d="M467.277 412.099C470.662 412.877 470.69 417.558 472.98 419.931C475.143 422.172 476.961 420.965 479.734 421.912C480.268 423.568 480.166 422.67 479.335 424.773L478.192 424.974C475.928 423.494 473.643 423.355 471.613 421.484C468.872 418.957 466.83 415.912 467.277 412.099Z" fill="#F8DEBF"/>
<path d="M613.755 410.284L615.065 410.793L615.32 411.64C614.625 412.238 614.22 412.567 613.465 413.115L612.795 413.595L612.685 414.435L614.75 416.103L614.49 416.739C612.06 417.038 610.795 416.962 608.715 418.441L608.315 418.69C606.745 417.973 606.75 417.843 605.605 416.624C606.985 413.58 611.465 413.856 613.755 410.284Z" fill="#F8DEBF"/>
<path d="M651.155 375.085L652.525 375.396C653.945 377.412 655.035 377.49 655.365 379.44C652.49 380.999 652.73 379.561 651.045 381.721C650.89 384.029 650.725 382.906 651.835 385.164C651.36 386.438 651.725 385.882 650.485 386.684C648.59 386.394 649.36 386.811 648.08 385.421C647.94 383.466 650.865 378.82 651.155 375.085Z" fill="#EDCB9F"/>
<path d="M621.665 385.409C623.545 386.068 626.13 385.219 626.815 387.438C623.32 389.009 622.62 387.764 619.895 390.641C619.58 391.046 619.055 391.45 618.645 391.806L617.45 391.586C615.98 390.222 616.415 391.019 615.955 389.203C619.015 387.49 619.15 388.415 621.665 385.409Z" fill="#F8DEBF"/>
<path d="M407.265 399.674L407.92 399.566L408.544 400.126C407.601 401.229 405.979 401.236 404.27 401.604L403.983 402.232L404.493 402.519C405.91 402.185 406.228 401.899 407.505 402.246C405.577 403.36 402.592 404.57 400.465 405.246C398.828 405.205 399.399 405.411 398.056 404.642C398.551 402.811 398.382 400.823 399.255 399.982C400.254 400.878 400.902 401.598 401.794 402.577L402.74 402.423L403.541 400.536C405.192 400.371 405.717 400.26 407.265 399.674Z" fill="#F8DEBF"/>
<path d="M460.679 351.574C462.046 353.667 463.697 355.38 462.54 357.918C460.615 358.872 459.613 357.876 458.071 356.724L456.404 354.919C457.262 353.661 459.323 352.48 460.679 351.574Z" fill="#EDCB9F"/>
<path d="M551.08 383.773C552.64 383.9 553.18 384.169 553.955 385.339C553.69 386.937 551.97 388.812 550.905 390.311C550.47 390.231 550.575 390.296 550.135 389.892C546.795 386.825 548.38 385.688 551.08 383.773Z" fill="#EDCB9F"/>
<path d="M614.46 368.343C617.88 368.394 622.185 370.171 623.71 373.44C618.645 372.386 616.405 374.505 614.46 368.343Z" fill="#F8DEBF"/>
<path d="M610.245 444.248C610.39 444.272 610.54 444.297 610.685 444.321C616.35 447.221 615.445 450.526 613.81 454.335L611.81 453.814L611.52 453.005C615.78 447.612 609.985 449.564 610.245 444.248Z" fill="#EDCB9F"/>
<path d="M622.92 411.343L623.61 412.254C623.325 415.128 624.74 416.527 623.775 419.462C622.11 420.954 623.035 420.621 620.985 420.707C621.205 419.186 621.675 418.403 622.275 416.967C621.585 415.47 621.805 415.947 619.825 415.079C620.19 413.711 621.77 412.505 622.92 411.343Z" fill="#F8DEBF"/>
<path d="M604.465 367.427C606.645 367.589 609.04 367.329 610.57 368.297C609.85 369.958 609.25 369.898 607.425 371.125C606.495 372.725 607.135 372.238 605.715 372.922L604.815 371.899C604.495 370.212 604.14 369.118 604.465 367.427Z" fill="#F8DEBF"/>
<path d="M602.59 373.885C605.64 380.882 604.575 378.617 601.985 384.704C603.02 382.275 600.8 389.096 601.405 387.228C600.015 386.104 599.96 386.188 599.345 384.43C599.98 381.747 601.35 382.03 602.805 379.855C603.49 378.84 602.685 376.158 602.625 374.783L602.59 373.885Z" fill="#F8DEBF"/>
<path d="M489.076 420.884L489.48 421.065C490.511 422.428 490.25 421.694 490.415 423.294C489.453 425.298 488.189 426.114 486.497 427.559C485.316 426.559 484.982 425.702 485.05 424.198C486.122 422.294 487.083 422.02 489.076 420.884Z" fill="#F8DEBF"/>
<path d="M619.005 374.091C619.725 374.38 620.2 374.723 620.875 375.13C622.46 377.69 622.765 378.48 620.89 380.921L617.74 379.184C617.04 377.466 618.07 376.34 619.005 374.091Z" fill="#EDCB9F"/>
<path d="M674.66 367.862C672.74 368.943 671.23 370.251 669.09 369.535L668.78 368.511C669.365 366.623 669.425 366.692 670.7 365.297C672.275 364.678 672.155 364.665 673.79 365.073L674.66 367.862Z" fill="#F8BF7E"/>
<path d="M591.895 379.997C593.53 381.099 594.34 382.343 595.19 384.051L594.655 384.862L593.335 384.41C591.165 383.569 590.245 385.061 588.58 383.07C589.18 381.527 590.46 380.961 591.895 379.997Z" fill="#EDCB9F"/>
<path d="M646.775 363.089C649.445 364.284 650.88 366.907 650.56 369.816L649.205 370.134C646.265 368.858 646.155 365.893 646.775 363.089Z" fill="#E5BC8D"/>
<path d="M448.946 424.25C450.582 425.111 450.472 425.044 451.603 426.518C452.023 428.402 451.619 428.983 450.957 430.793C449.364 429.764 448.036 429.221 447.366 427.522C447.374 425.939 447.95 425.507 448.946 424.25Z" fill="#F8DEBF"/>
<path d="M594.135 397.267C594.765 397.478 595.06 397.722 595.645 398.071L595.785 398.922C594.32 400.438 594.305 400.39 593.365 402.246C593.58 404.079 593.93 403.875 595.48 405.584C594.07 406.031 594.625 405.901 593.015 405.659C589.975 403.142 592.4 399.783 594.135 397.267Z" fill="#EDCB9F"/>
<path d="M489.892 385.976C490.874 386.013 490.354 385.887 491.397 386.532C491.39 388.551 489.082 390.751 486.935 390.63C485.843 389.684 485.714 389.447 484.833 388.276L485.051 387.578C486.377 387.566 487.629 387.56 488.957 387.48L489.892 385.976Z" fill="#EDCB9F"/>
<path d="M605.51 392.229C606.52 392.897 606.16 392.456 606.615 393.521C604.55 397.116 605.69 399.069 607.93 402.092C605.82 402.374 606.76 402.588 605.005 401.522C603.285 398.703 603.565 394.867 605.51 392.229Z" fill="#F8DEBF"/>
<path d="M379 404.234C381.6 404.259 382.987 404.09 385.435 405.005L385.379 405.827C384.753 406.627 385.132 406.273 383.908 406.602L379.959 407.874L379.323 407.381L379 404.234Z" fill="#F8DEBF"/>
<path d="M464.58 357.669C466.006 358.115 467.258 359.13 468.81 359.552C471.142 360.185 471.235 361.627 472.127 363.688C470.926 363.289 466.169 360.923 464.906 360.095C464.338 359.723 464.572 358.584 464.58 357.669Z" fill="#F8DEBF"/>
<path d="M600.785 398.719C599.435 397.42 599.215 397.221 597.605 396.232L597.225 396.003L597.015 395.004L597.74 394.325C599.645 394.629 598.82 394.193 600.125 395.968L601.045 396.156L602.75 395.965C603.865 397.228 603.575 396.526 603.79 398.078L603.055 399.211C601.6 399.306 602.145 399.385 600.785 398.719Z" fill="#EDCB9F"/>
<path d="M371.088 396.002C372.79 394.328 371.839 394.728 373.824 394.29C375.189 395.017 374.649 394.494 375.338 396.059C375.125 398.07 375.514 397.272 374.486 398.695C372.431 399.031 372.137 398.422 371.042 396.567L371.088 396.002Z" fill="#F8DEBF"/>
<path d="M631.71 422.347L630.825 420.587C631.52 418.965 630.965 419.534 632.475 418.765C634.225 419.204 633.585 418.737 634.59 420.039C634.725 421.686 634.685 422.84 633.94 424.359L631.71 422.347Z" fill="#F8DEBF"/>
<path d="M651.24 428.118C652.14 428.36 657.2 430.466 657.685 430.957L657.075 432.411C655.405 431.941 651.92 431.445 651.035 430.568L651.24 428.118Z" fill="#EDCB9F"/>
<path d="M467.648 386.188C469.577 386.379 470.92 386.15 472.959 386.492C474.609 387.782 474.078 387.255 474.891 389.453C472.047 388.874 468.263 389.111 467.648 386.188Z" fill="#F8DEBF"/>
<path d="M434.227 363.655C435.628 364.407 435.074 363.898 435.937 365.255C435.899 366.915 435.039 367.655 433.994 369.001L432.38 368.305L431.977 367.028C432.526 365.234 432.942 364.982 434.227 363.655Z" fill="#F8DEBF"/>
<path d="M626.665 434.802C627.83 435.054 627.42 434.912 628.445 435.564C629.19 437.64 629.17 436.647 628.745 438.632L627.875 438.632C626.485 438.295 625.495 438.213 624.43 437.276C624.79 435.908 625.295 435.918 626.665 434.802Z" fill="#EDCB9F"/>
<path d="M620.865 395.118C621.785 394.992 622.37 395.139 623.32 395.234L623.61 395.805C621.945 397.161 620.585 397.24 618.575 397.816L617.68 398.565L616.9 398.165C617.53 396.496 619.14 395.999 620.865 395.118Z" fill="#F8DEBF"/>
<path d="M562.495 398.218L563.89 398.503C565.575 400.063 566.475 400.84 568.74 401.203L568.825 402.121C565.09 404.041 563.625 401.242 562.495 398.218Z" fill="#F8DEBF"/>
<path d="M641.355 378.512C642.03 378.259 642.795 378.395 643.345 378.867C643.89 379.339 644.14 380.074 643.99 380.782C643.84 381.491 643.32 382.061 642.625 382.272C641.6 382.584 640.51 382.025 640.165 381.009C639.82 379.992 640.35 378.887 641.355 378.512Z" fill="#F8BF7E"/>
<path d="M410.657 420.902C411.846 421.078 411.716 421.052 412.823 421.4L412.921 422.339L410.469 425.2C409.012 424.611 409.621 425.056 408.637 423.741C409.075 422 409.146 422.385 410.657 420.902Z" fill="#F8DEBF"/>
<path d="M596.51 357.783C598.175 358.139 597.495 357.717 598.53 359.219C598.565 361.084 598.6 360.955 597.655 362.56C596.245 361.855 596.03 361.86 594.965 360.663C595.1 359.026 595.255 359.344 596.51 357.783Z" fill="#E5BC8D"/>
<path d="M456.115 457.221L457.824 457.217C459.936 458.43 460.257 459.222 461.72 461.281C460.131 461.554 460.242 461.54 458.677 461.126C457.102 460.001 456.889 459.005 456.115 457.221Z" fill="#F8DEBF"/>
<path d="M683.475 407.268C685.73 408.335 686.11 410.493 684.9 412.569C684.045 412.016 683.33 411.518 682.505 410.934C682.085 409.103 682.38 409.452 683.475 407.268Z" fill="#F8DEBF"/>
<path d="M606.08 362.235C607.765 362.553 607.685 362.476 609.08 363.449C609.505 365.28 609.33 364.783 608.555 366.882C606.9 365.867 605.635 365.23 605.08 363.56L606.08 362.235Z" fill="#F8DEBF"/>
<path d="M597.785 401.232C600.925 402.962 601.42 403.618 601.46 406.965C598.455 406.104 597.985 403.962 597.785 401.232Z" fill="#F8DEBF"/>
<path d="M467.677 427.142C468.792 427.681 468.375 427.282 468.824 428.487C468.299 430.074 468.377 430.165 467.167 431.395C465.909 430.651 465.857 430.538 464.804 429.493C465.221 428.064 465.894 428.156 467.677 427.142Z" fill="#F8DEBF"/>
<path d="M472.779 427.234C474.563 427.899 473.884 427.365 474.993 428.746C475.12 430.443 474.741 430.749 473.816 432.177C472.612 431.721 472.515 431.825 471.78 430.815C471.576 429.314 472.112 428.611 472.779 427.234Z" fill="#F8DEBF"/>
<path d="M494.41 402.857C496.228 402.922 496.448 402.605 497.62 403.501C496.983 404.817 496.46 405.523 495.644 406.707L494.837 406.767L493.946 405.733C493.56 403.591 493.329 404.499 494.41 402.857Z" fill="#EDCB9F"/>
<path d="M477.119 429.786C479.79 430.492 481.625 431.776 480.965 434.704C479.023 433.658 478.126 432.831 476.735 431.196L477.119 429.786Z" fill="#F8DEBF"/>
<path d="M608.93 379.144C611.05 379.795 610.315 379.181 611.465 380.7C611.185 382.474 611.49 381.617 610.15 383.204C608.66 382.553 608.365 382.574 607.34 381.304C607.625 379.72 607.34 380.49 608.93 379.144Z" fill="#F8DEBF"/>
<path d="M591.39 386.459L591.66 387.014C591.56 388.517 591.585 390.296 591.01 391.64L590.57 391.388C589.29 390.781 589.225 390.855 588.295 389.821C588.66 388.327 590 387.638 591.39 386.459Z" fill="#F8DEBF"/>
<path d="M457.097 451.788C458.162 452.505 457.798 452.194 458.549 453.293C457.999 455.115 457.256 455.208 455.495 456.711L454.64 456.163C454.727 454.545 456.007 453.317 457.097 451.788Z" fill="#FEF1E2"/>
<path d="M649.47 395.273C651.57 395.233 651.945 395.223 653.535 396.477L653.54 397.229L652.56 397.479C650.72 397.573 650.315 397.595 648.505 397.39L648.28 396.659L649.47 395.273Z" fill="#E5BC8D"/>
<path d="M642.53 441.737C644.355 441.917 645.31 441.985 646.415 443.42C645.15 444.216 645.34 443.903 643.425 443.615C642.185 445.04 642.915 444.714 641.375 445.196C641.265 443.405 641.535 443.619 642.53 441.737Z" fill="#F8DEBF"/>
<path d="M626.515 378.641C629.35 378.985 630.39 380.362 630.115 383.073C629.845 383.126 629.095 383.069 628.78 383.057C627.375 381.797 627.14 380.451 626.515 378.641Z" fill="#EDCB9F"/>
<path d="M456.403 354.919L458.071 356.724C457.146 358.61 457.104 358.91 455.551 359.778L454.962 359.263C454.684 357.542 455.538 356.516 456.403 354.919Z" fill="#F8DEBF"/>
<path d="M371.043 396.567C369.899 398.04 369.474 398.179 367.773 397.952C366.851 396.577 367.07 397.337 367.276 395.55L368.248 394.927C369.814 395.18 369.87 395.052 371.088 396.002L371.043 396.567Z" fill="#EDCB9F"/>
<path d="M629.5 409.419C631.53 410.897 632.1 412.365 631.655 414.783C630.67 413.956 629.83 413.102 628.915 412.202C628.5 410.291 628.37 411.198 629.5 409.419Z" fill="#F8DEBF"/>
<path d="M637.925 424.482C638.655 425.433 638.8 428.949 638.03 430.272L635.96 427.477C636.165 425.768 636.41 426.056 637.925 424.482Z" fill="#EDCB9F"/>
<path d="M464.427 423.324L465.353 424.077C465.195 425.665 464.245 426.801 463.362 428.251C462.308 427.466 462.622 427.803 461.949 426.71C462.292 425.01 462.972 424.84 464.427 423.324Z" fill="#F8DEBF"/>
<path d="M635.21 448.764L636.04 449.305C636.495 451.028 635.77 452.373 635.18 454.13L633.64 452.822C633.43 450.816 633.87 450.965 635.21 448.764Z" fill="#EDCB9F"/>
<path d="M527.33 388.301L528.225 388.932C528.285 390.688 527.47 391.522 526.54 393.257C525.285 392.557 525.805 393.047 525.23 391.475C525.71 389.578 525.915 389.604 527.33 388.301Z" fill="#EDCB9F"/>
<path d="M541.405 401.162C544.115 402.373 543.89 405.233 542.87 407.664C542.59 407.521 542.075 407.08 541.805 406.863C541.87 404.623 541.86 403.903 541.495 401.683L541.405 401.162Z" fill="#EDCB9F"/>
<path d="M638.27 398.011C639.95 397.998 642.13 397.764 643.49 398.542L643.17 399.615C641.725 400.045 641.5 400.078 639.995 400.233C638.425 399.289 639.065 399.935 638.27 398.011Z" fill="#F8DEBF"/>
<path d="M624.585 369.845C627.175 370.337 628.63 370.64 628.605 373.417C625.965 373.418 624.845 372.286 624.585 369.845Z" fill="#F8DEBF"/>
<path d="M475.956 389.327C478.915 390.27 479.059 390.163 479.587 393.219C478.257 393.034 478.045 392.867 476.79 392.333C475.646 390.7 476.044 391.622 475.956 389.327Z" fill="#F8DEBF"/>
<path d="M628.515 361.457C631.34 362.356 633.05 362.041 632.665 365.004C629.955 365.154 629.46 363.821 628.515 361.457Z" fill="#F8DEBF"/>
<path d="M540.905 381.335C543.655 382.131 543.83 383.671 543.83 386.156C541.505 384.524 540.47 384.213 540.905 381.335Z" fill="#F8DEBF"/>
<path d="M631.71 422.347L633.94 424.359C633.99 425.178 634.045 424.722 633.61 425.698L632.185 425.635C630.91 424.704 631.365 425.294 630.815 423.772L631.71 422.347Z" fill="#EDCB9F"/>
<path d="M585.14 399.618C585.52 399.327 585.255 399.472 586.03 399.438L588.02 401.509C586.435 401.832 586.105 401.633 584.975 400.751L585.14 399.618Z" fill="#EDCB9F"/>
<path d="M561.215 572.735C568.165 552.17 585.345 534.595 604.675 525.015C626.715 514.355 652.105 512.965 675.18 521.15C699.48 529.765 719.41 547.6 730.66 570.8C740.755 592.19 741.95 616.71 733.99 638.985C725.395 663.115 709.12 680.495 686.055 691.305C664.085 701.67 638.905 702.95 615.995 694.87C596.745 687.925 577.19 672.695 567.26 654.695C558.54 641.585 554.685 625.28 554.415 609.69C554.285 607.73 554.295 605.59 554.255 603.61C554.52 600.135 555.045 597.075 555.6 593.64C555.98 590.945 556.505 588.7 557.105 586.065L558.2 581.46C559.18 578.3 560.015 575.815 561.215 572.735Z" fill="#EA8822"/>
<path d="M585.88 568.665C600.055 550.6 612.28 539.965 636.25 537.105C655.67 534.835 675.195 540.335 690.58 552.4C705.745 564.725 715.455 582.515 717.615 601.935C719.38 619.145 713.41 639.515 702.48 652.94C690.36 667.625 672.915 676.91 653.965 678.76C633.2 680.69 614.59 674.645 598.7 661.15C585.575 650.005 579.915 637.34 576.475 620.94C574.66 606.86 574.88 598.495 578.695 585.01C579.62 581.69 581.105 578.28 582.41 575.065L585.88 568.665Z" fill="#181717"/>
<path d="M641.365 546.215C677.19 542.875 709.725 571.595 708.935 608.005C708.49 628.44 701.43 640.67 687.16 654.54C686.935 632.84 676.665 619.515 655.28 614.65C652.475 614.03 648.845 613.76 646.035 613.74C631.46 613.65 616.705 618.23 608.29 630.88C603.6 637.93 602.87 643.37 602.18 651.585C592 641.255 585.795 627.655 584.665 613.195C583.345 596.025 588.86 579.03 600.01 565.91C610.54 553.745 625.5 547.34 641.365 546.215Z" fill="#FEF1E2"/>
<path d="M640.855 566.78C652.645 564.52 664.02 572.275 666.235 584.07C668.445 595.865 660.645 607.21 648.84 609.375C637.105 611.525 625.835 603.78 623.64 592.055C621.44 580.325 629.135 569.025 640.855 566.78Z" fill="#181717"/>
<path d="M637.745 597.32C638.825 598.33 638.455 598.98 638.12 600.155L637.26 600.37C637.35 599.14 637.49 598.535 637.745 597.32Z" fill="#5D5B5C"/>
<path d="M598.235 618.195L599.73 619.1C600.435 620.845 599.825 621.13 598.995 623.525C598.755 623.47 598.205 623.135 597.96 623C597.355 621.49 597.915 619.885 598.235 618.195Z" fill="#F0CFA6"/>
<path d="M600.29 611.27C600.52 611.48 600.81 611.97 601.005 612.255C600.615 614.37 599.54 615.42 598.23 617.15L597.765 616.675C597.62 614.855 599.095 613.425 600.29 611.27Z" fill="#F0CFA6"/>
<path d="M700.83 601.57C701.72 601.635 702.685 601.755 703.58 601.845C701.09 603.175 701.785 602.335 700.94 604.805C701.355 605.53 701.225 605.12 701.255 606.06L700.57 605.435C699.97 603.645 700.22 603.345 700.83 601.57Z" fill="#F0CFA6"/>
<path d="M618.055 607.705L618.82 608.285C619.415 610.275 619.065 612.04 618.88 614.14L618.44 613.775C617.72 612.225 618.015 609.525 618.055 607.705Z" fill="#F8DEBF"/>
<path d="M561.215 572.735L561.545 573.685C560.98 575.41 559.89 577.72 560.185 579.25C562.535 579.86 564.97 579.47 565.815 576.925C564.645 576.195 565.145 576.395 563.7 576.3C567.155 574.755 564.195 577.225 568.1 575.275C567.205 573.13 567.93 573.8 566.145 572.905C565.27 573.08 564.64 573.245 563.755 573.315C565.27 571.965 564.985 571.735 566.56 571.685C567.53 572.805 567.985 573.395 568.82 574.57C569.82 574.45 569.445 574.63 570.02 574.24C570.895 574.71 571.43 575.095 572.165 575.755L573.27 575.825L575.555 576.2C578.905 573.845 578.625 573.96 582.41 575.065C581.105 578.28 579.62 581.69 578.695 585.01C574.88 598.495 574.66 606.86 576.475 620.94C574.96 625.09 576.13 627.365 576.415 631.285C573.13 628.51 575.515 618.205 574.885 613.475L574.275 613.295C572.45 614.59 573.075 615.235 571.48 617.705L570.605 617.62C569.225 616.01 569.47 616.87 569.385 615.11C570.11 614.35 570.595 613.8 571.26 612.98C570.275 611.165 569.755 611.985 567.39 610.235C567.475 608.96 567.855 608.585 568.22 607.375L569.755 608.275L570.34 607.915L570.55 606.65C568.465 601.565 565.525 603.21 564.505 599.19C565.185 597.05 565.935 592.105 564.31 590.345C562.81 590.665 563.53 590.41 562.24 591.9C563.115 592.8 563.08 592.765 563.645 593.89C563.2 595.365 563.615 594.79 562.395 595.685L561.38 594.88L560.855 594.965C561.08 596.27 563.165 598.115 564.085 600.14C562.65 601.275 562.3 601.225 560.565 601.47C559.005 604.32 562.77 608.12 557.32 609.425C556.005 609.74 555.955 609.96 554.415 609.69C554.285 607.73 554.295 605.59 554.255 603.61C554.52 600.135 555.045 597.075 555.6 593.64C555.98 590.945 556.505 588.7 557.105 586.065L558.2 581.46C559.18 578.3 560.015 575.815 561.215 572.735Z" fill="#F4AA58"/>
<path d="M554.255 603.61C555.765 601.77 556.055 599.475 557.98 598.775L557.335 598.64L557.745 598.34C558.415 600.1 558.55 600.36 560.27 600.355C560.71 599.745 561.095 599.135 561.45 598.47C562.795 598.64 563.075 599.17 564.085 600.14C562.65 601.275 562.3 601.225 560.565 601.47C559.005 604.32 562.77 608.12 557.32 609.425C556.005 609.74 555.955 609.96 554.415 609.69C554.285 607.73 554.295 605.59 554.255 603.61Z" fill="#F2AB58"/>
<path d="M573.27 575.825L575.555 576.2C575.455 577.85 575.195 578.24 574.5 579.685C575.48 580.525 575.6 580.5 576.81 581.015C577.495 582.48 577.35 582.785 577.31 584.395C576.78 587.3 575.775 589.77 572.4 588.985L572.195 588.08C573.245 587.28 574.115 586.605 575.125 585.745C573.92 583.69 572.68 582.875 570.855 581.35C571.465 579.77 572.94 577.175 573.27 575.825Z" fill="#F2AB58"/>
<path d="M558.2 581.46C560.86 579.885 562.415 580.03 565.515 580.37L565.77 581.065C563.69 584.035 561.265 585.635 560.56 586.715C558.14 586.86 558.79 587.18 557.105 586.065L558.2 581.46Z" fill="#F2AB58"/>
<path d="M555.6 593.64C555.98 590.945 556.505 588.7 557.105 586.065C558.79 587.18 558.14 586.86 560.56 586.715L560.925 587.46C560.275 589.15 557.045 592.52 555.6 593.64Z" fill="#F2AB58"/>
<path d="M566.48 582.49C568.62 584.43 569.085 584.36 568.47 587.18C566.115 586.105 565.83 584.72 566.48 582.49Z" fill="#F2AB58"/>
<path d="M572.68 590.905C573.87 592.255 573.125 594.45 572.84 596.155C572.635 595.965 572.25 595.29 572.08 595.01C571.94 592.865 571.965 592.965 572.68 590.905Z" fill="#F8BF7E"/>
<path d="M564.085 600.14C563.175 602.125 563.05 601.87 560.775 602.45C564.09 603.38 565.695 602.305 567.315 605.035L567.18 605.985L565.77 605.745C564.325 608.2 566.545 608.445 565.03 610.1C561.755 608.91 556.94 608.345 555.22 612.18L555.45 613.105C558.245 613.675 562.775 612.795 564.6 614.75C564.495 616.13 564.67 615.445 563.33 616.74C561.995 616.87 561.95 616.75 560.64 616.345C549.805 618.195 563.105 645.94 566.015 651.29C567.55 650.735 569.225 649.92 570.79 650.095C572.07 651.11 571.655 650.455 571.895 652.23C570.61 653.44 569.365 653.775 567.545 653.71L567.45 654.47L567.26 654.695C558.54 641.585 554.685 625.28 554.415 609.69C555.955 609.96 556.005 609.74 557.32 609.425C562.77 608.12 559.005 604.32 560.565 601.47C562.3 601.225 562.65 601.275 564.085 600.14Z" fill="#F4AA58"/>
<path d="M575.195 572.695C575.68 571.5 575.705 571.56 576.595 570.6L577.615 570.655C579.365 572.28 580.05 573.38 582.49 573.11C583.255 571.695 584.04 570.295 584.84 568.9L585.88 568.665L582.41 575.065C578.625 573.96 578.905 573.845 575.555 576.2L573.27 575.825C574.12 574.675 574.495 573.93 575.195 572.695Z" fill="#F2AB58"/>
<path d="M721.285 558.805C724.535 560.505 724.94 567.195 725.14 570.34C719.05 564.835 721.225 566.96 721.285 558.805Z" fill="#F2AB58"/>
<path d="M465.762 293.058C473.559 278.805 483.154 274.098 499.285 273.015C516.03 271.891 533.08 272.979 549.85 272.997C560.415 273.262 572.585 273.002 582.89 274.417C596.39 276.27 611.09 287.215 614.525 300.815C617.15 311.078 616.19 323.871 615.93 334.451C609.37 334.428 601.26 334.591 594.875 334.017C596.37 303.853 596.3 299.066 563.54 299.007L558.675 298.829L548.025 298.641L542.56 298.555C531.44 298.645 495.863 297.14 487.957 300.955C485.799 302.447 485.274 302.761 483.517 304.639C480.093 311.801 480.55 323.561 480.169 331.895C473.232 331.984 466.294 331.858 459.365 331.516C460.74 321.689 460.577 313.763 462.401 303.195C463.634 300.043 464.242 296.749 465.762 293.058Z" fill="#EA8822"/>
<path d="M467.745 293.096L469.107 293.061C471.826 293.117 472.585 293.561 475.135 294.61C473.426 296.879 473.493 297.743 473.033 300.51L473.004 301.224C473.355 303.397 474.504 305.36 476.227 306.729C476.267 306.756 476.308 306.782 476.348 306.809C478.005 305.671 481.418 305.119 483.517 304.639C480.093 311.802 480.55 323.561 480.169 331.896C473.232 331.985 466.294 331.858 459.365 331.517C460.74 321.69 460.577 313.763 462.401 303.195C463.634 300.043 464.242 296.749 465.762 293.059L467.745 293.096Z" fill="#EA8822"/>
<path d="M467.745 293.096L469.107 293.061C471.826 293.117 472.585 293.561 475.135 294.61C473.426 296.879 473.493 297.743 473.033 300.51L473.004 301.224C473.355 303.397 474.504 305.36 476.227 306.729C476.267 306.756 476.308 306.782 476.348 306.809L476.946 309.552C475.723 311.17 474.357 311.256 472.086 311.913C470.672 309.696 473.82 307.627 472.452 305.03C469.665 304.212 468.276 307.816 464.251 305.875L462.401 303.195C463.634 300.043 464.242 296.749 465.762 293.059L467.745 293.096Z" fill="#F2AB58"/>
<path d="M469.106 293.061C471.826 293.117 472.585 293.561 475.135 294.61C473.426 296.879 473.493 297.743 473.032 300.51L473.003 301.224L471.935 301.384C470.495 300.49 470.997 301.081 470.302 299.616C471.312 296.133 471.55 295.798 469.106 293.061Z" fill="#F8BF7E"/>
<path d="M467.744 293.096L469.106 293.061C471.55 295.798 471.312 296.133 470.302 299.616C468.307 298.249 469.106 298.431 466.362 298.88L465.596 298.266C465.872 296.28 466.802 294.884 467.744 293.096Z" fill="#E5BC8D"/>
<path d="M464.251 305.875C468.276 307.816 469.666 304.212 472.452 305.03C473.82 307.627 470.672 309.696 472.086 311.913C469.823 313.474 468.905 314.094 466.526 312.245C466.502 311.003 465.966 310.169 465.254 309.266L464.624 309.47L464.314 311.081C463.759 308.745 463.934 308.33 464.251 305.875Z" fill="#F4AA58"/>
<path d="M464.314 311.081L464.623 309.47L465.254 309.266C465.965 310.169 466.501 311.002 466.526 312.245C465.492 313.412 464.477 314.86 463.099 315.414C463.065 313.598 463.931 312.939 464.314 311.081Z" fill="#F2AB58"/>
<path d="M475.136 294.61L476.712 293.619C476.448 292.05 476.188 287.746 476.51 286.248L477.348 287.051C477.352 288.043 477.338 288.81 477.274 289.799L478.587 291.027C481.921 290.505 478.172 289.447 481.693 289.339L483.475 290.782C484.977 290.494 484.294 290.815 485.47 289.569C485.649 283.791 479.245 284.293 483.927 279.767C485.448 278.296 485.464 278.404 487.15 278.285C488.881 279.923 487.32 290.818 485.496 292.863C484.447 294.039 482.925 293.955 481.506 294.047C481.504 295.023 482.699 295.975 483.546 296.957C484.56 297.622 485.159 297.952 486.066 298.773C487.146 299.741 487.234 299.727 487.957 300.955C485.799 302.447 485.274 302.762 483.517 304.639C481.418 305.119 478.005 305.671 476.348 306.809C476.308 306.782 476.268 306.756 476.227 306.729C474.504 305.36 473.355 303.397 473.004 301.224L473.033 300.51C473.493 297.743 473.427 296.879 475.136 294.61Z" fill="#F2AB58"/>
<path d="M486.066 298.773C487.146 299.741 487.234 299.727 487.957 300.955C485.799 302.447 485.274 302.762 483.517 304.639C481.418 305.119 478.005 305.671 476.348 306.809C476.308 306.782 476.268 306.756 476.227 306.729C474.504 305.36 473.355 303.397 473.004 301.224L473.033 300.51L473.726 300.018C476.381 299.738 473.504 300.486 476.235 301.336C477.736 300.303 477.663 300.225 479.565 300.231C481.934 299.309 482.671 299.199 485.181 299.647L486.066 298.773Z" fill="#F4AA58"/>
<path d="M479.565 300.231C478.191 297.921 477.762 297.221 476.938 294.694L477.656 293.717C480.032 293.935 481.069 295.871 483.546 296.957C484.56 297.622 485.159 297.952 486.066 298.773L485.181 299.647C482.671 299.199 481.934 299.309 479.565 300.231Z" fill="#EDCB9F"/>
<path d="M562.2 280.655C563.065 282.336 563.15 284.29 563.885 285.303C562.785 286.057 561.805 286.677 560.82 287.584L559.195 287.384C557.63 289.86 560.365 290.095 556.59 291.949L556.62 292.935L556.065 293.257L555.32 292.418C555.215 289.297 550.92 290.003 548.815 286.652C548.875 284.127 550.55 281.958 552.57 280.569L553.01 280.986C554.79 282.694 555.06 282.997 556.205 285.155L557.08 285.604C558.12 284.911 558.59 284.576 559.54 283.766C561.265 282.527 561.16 282.553 562.2 280.655Z" fill="#F2AB58"/>
<path d="M542.56 298.556L540.67 297.178C540.485 293.253 537.54 291.595 540.3 288.093C541.675 286.346 540.925 286.557 543.06 286.051L543.92 286.72C544.515 288.828 544.115 290.34 543.825 292.518C544.375 293.334 544 292.985 545.285 293.256C546.275 292.643 547.14 292.019 548.025 291.259L549.235 291.444C550.495 292.547 550.77 292.632 551.545 294.138C548.515 294.972 548.97 295.072 548.38 297.82L548.025 298.642L542.56 298.556Z" fill="#F4AA58"/>
<path d="M556.59 291.949C560.365 290.095 557.63 289.86 559.195 287.384L560.82 287.584C561.18 294.311 563.35 291.284 564.6 295.263C564.18 296.929 564.545 296.518 563.53 297.634L563.56 298.023C560.37 297.33 559.535 296.693 558.535 293.388L556.62 292.935L556.59 291.949Z" fill="#E5BC8D"/>
<path d="M556.62 292.935L556.59 291.949C558.88 292.708 561.1 292.961 562.275 295.341C562.855 296.52 562.565 296.707 563.53 297.634L563.56 298.023C560.37 297.33 559.535 296.693 558.535 293.388L556.62 292.935Z" fill="#F2AB58"/>
<path d="M554.535 294.483C553.86 293.151 553.885 293.015 553.43 291.581L554 291.189L555.32 292.418L556.065 293.257L556.62 292.935L558.535 293.388C559.535 296.693 560.37 297.33 563.56 298.023L563.54 299.007L558.675 298.829C556.41 297.893 556.045 296.691 554.535 294.483Z" fill="#F4AA58"/>
<path d="M560.82 287.584C561.805 286.677 562.785 286.057 563.885 285.303C565.11 287.763 566.075 292.772 564.6 295.263C563.35 291.284 561.18 294.311 560.82 287.584Z" fill="#F2AB58"/>
<path d="M556.46 278.04C557.805 280.084 558.485 281.584 559.54 283.766C558.59 284.576 558.12 284.911 557.08 285.604L556.205 285.155C555.06 282.997 554.79 282.694 553.01 280.986L552.57 280.569C554.195 278.969 554.355 278.612 556.46 278.04Z" fill="#F8DEBF"/>
<path d="M556.46 278.04C557.645 277.492 557.465 277.706 558.22 276.601C561.09 276.404 561.035 278.117 562.2 280.655C561.16 282.553 561.265 282.526 559.54 283.765C558.485 281.584 557.805 280.083 556.46 278.04Z" fill="#F2AB58"/>
<path d="M548.38 297.82C549.805 297.897 551.02 298.125 552.305 297.579C552.495 296.685 552.62 296.185 552.9 295.315L554.535 294.483C556.045 296.691 556.41 297.893 558.675 298.829L548.025 298.642L548.38 297.82Z" fill="#EA8822"/>
<path d="M570.325 291.415C574.83 291.002 576.28 294.365 576.435 298.131L575.64 297.636C573.92 294.401 573.07 293.816 570.325 291.415Z" fill="#EA8822"/>
<path d="M476.138 486.616C476.712 481.153 477.235 464.591 479.182 461.088C481.623 460.064 537.34 461.608 541.685 462.792C543.35 464.619 543.065 467.236 542.855 469.741C541.275 488.915 540.11 508.48 538.245 527.6C531.805 528.29 477.034 527.53 474.168 526.02C472.971 522.64 474.099 506.32 474.865 502.515L476.138 486.616Z" fill="#F2AB58"/>
<path d="M476.138 486.616L512.635 487.03C518.825 487.117 525.21 487.089 531.37 487.607C534.285 487.852 536.835 491.174 535.715 494.014C534.845 498.144 536.02 503.425 529.905 503.495C513.94 503.685 497.947 503.25 481.98 502.965C479.417 502.92 477.425 502.945 474.865 502.515L476.138 486.616Z" fill="#FEF1E2"/>
<path d="M522.07 673.5C524.18 675.035 532.86 691.955 535.28 695.825L486.698 724.13C480.537 727.75 462.504 739.105 456.748 740.57C455.742 740.55 454.737 740.475 453.738 740.345C443.9 739.06 438.368 725.505 445.671 719.18C450.923 714.63 460.042 709.925 466.201 706.39L502.925 684.865C508.125 681.82 517.015 677.18 521.525 673.905L522.07 673.5Z" fill="#EA8822"/>
<path d="M727.57 361.837C728.38 364.896 728.105 377.062 728.095 380.812L728 413.714C728.35 456.194 728.43 498.676 728.235 541.155C725.835 538.215 722.395 534.81 719.71 532.01C716.995 529.14 712.37 525.415 709.26 522.95C710.09 500.085 715.28 467.941 718.035 444.424L724.205 390.032C725.195 381.317 726.15 370.351 727.57 361.837Z" fill="#E5BC8D"/>
<path d="M719.09 520.485L720.6 520.595L720.465 520.53L720.97 521.04C719.555 522.195 719.22 522.645 718.09 524.01C716.815 524.475 716.845 524.6 715.56 524.27L715.325 523.535C716.505 521.58 716.93 521.555 719.09 520.485Z" fill="#F8BF7E"/>
<path d="M500.665 312.706C511.95 312.169 528.09 312.65 539.36 312.894C546.605 313.051 573.09 312.905 578.675 314.522C581.93 318.247 580.34 328.34 580.015 333.535L574.175 333.623L494.445 332.312C494.743 327.573 494.776 319.599 496.531 315.351C497.269 313.565 498.945 313.122 500.665 312.706Z" fill="#FEF1E2"/>
<path d="M552.18 657.51C556.375 664.495 560.85 671.69 566.635 677.48C560.46 681 554.265 684.485 548.05 687.935C545.575 683.875 543.63 679.275 541.66 674.93L540.815 673.505L537.29 665.84C542.345 662.88 546.965 660.19 552.18 657.51Z" fill="#FEF1E2"/>
<path d="M540.815 673.505C541.705 673.2 542.6 672.91 543.5 672.635L543.615 673.355L544.135 673.195L544.04 672.69L545.375 672.785L545.28 673.285C543.85 674.175 543.965 674.14 542.295 674.3L541.66 674.93L540.815 673.505Z" fill="#FEEDDA"/>
<path d="M732.815 458.565C735.825 457.708 736.81 462.879 736.87 464.865L735.78 464.086C734.97 460.506 733.605 460.618 732.815 458.565Z" fill="#302F2D"/>
<path d="M533.995 300.909C534.97 301.694 536.865 304.493 536.94 305.852L536.41 306.099C534.765 304.703 533.855 303.061 533.995 300.909Z" fill="#938F8F"/>
<path d="M516.62 300.303C517.295 302.236 516.94 302.745 516.355 304.841L515.695 304.583C515.62 302.791 516.06 302.08 516.62 300.303Z" fill="#302F2D"/>
<path d="M328.582 463.49C330.716 464.133 331.792 464.099 331.548 466.462C330.869 466.337 329.073 464.128 328.582 463.49Z" fill="#302F2D"/>
<path d="M321.064 230.818C322.155 232.502 324.861 241.195 326.174 244.077C335.315 264.129 349.279 271.033 368.787 278.224C343.206 287.774 331.02 292.086 319.939 318.525C319.559 320.013 319.589 320.416 318.64 321.624C317.955 320.894 317.978 321.112 317.765 320.21C315.141 309.104 311.247 300.653 304.268 291.556C296.898 281.95 284.884 277.761 273.148 276.322C279.786 274.865 286.196 272.515 292.202 269.336C307.723 260.982 316.038 247.28 321.064 230.818Z" fill="#EA8822"/>
<path d="M322.771 295.188C324.003 295.311 323.955 295.242 324.981 295.905L324.806 296.603L323.541 297.056C322.735 297.284 322.624 297.241 321.78 297.302L321.601 296.603L322.771 295.188Z" fill="#EA8822"/>
<path d="M718.93 244.049C719.265 244.028 719.6 244.006 719.93 243.984C722.215 243.919 724.385 244.21 726.09 245.835C727.225 246.916 727.91 249.102 727.795 250.505C726.845 262.036 706.75 289.276 698.865 296.839C697.325 297.996 695.275 299.132 693.27 298.693C692.675 298.561 692.2 298.045 691.92 297.521C690.715 295.284 691.58 291.749 692.235 289.463C694.49 281.603 712.525 247.663 718.93 244.049Z" fill="#EA8822"/>
<path d="M667.125 225.512L667.875 225.362C677.905 231.658 677.13 253.533 677.58 264.498C677.81 270.139 677.915 281.521 671.22 283.285C669.99 282.611 668.845 281.789 667.815 280.838C664.42 277.714 663.4 262.24 662.665 257.214C661.455 248.938 659.785 240.162 659.255 231.851C661.54 227.166 662.295 226.956 667.125 225.512Z" fill="#EA8822"/>
<path d="M754.055 284.142C761.62 284.034 766.36 290.166 762.865 295.518C757.8 303.271 735.515 310.118 727.38 312.448C722.39 313.573 715.83 310.178 719.075 305.74C725.18 297.392 744.615 287.301 754.055 284.142Z" fill="#EA8822"/>
<path d="M268.706 329.237C272.379 330.368 274.943 339.167 276.584 342.874C279.627 344.386 288.524 346.485 289.319 349.464C287.96 351.74 280.213 355.179 277.133 357.065C274.934 361.007 273.354 366.367 271.286 370.826C263.389 369.601 267.231 362.841 263.038 358.212C259.973 354.829 253.445 354.218 250.466 350.376C250.011 345.819 257.234 346.599 260.469 343.75C265.276 339.516 265.118 334.615 268.706 329.237Z" fill="#F0CFA6"/>
<path d="M384.439 293.868C385.86 290.675 387.296 283.682 390.941 282.999C393.397 284.471 395.852 292.08 397.497 295.464C401.267 297.554 408.553 298.199 410.052 302.099C408.672 304.854 405.978 305.216 402.923 306.253C401.144 307.176 400.209 307.566 398.694 308.843C395.974 312.517 394.376 318.869 391.315 320.12C387.603 318.347 386.601 310.775 383.829 307.901C381.082 305.054 373.478 305.849 372.562 301.225C373.796 298.867 381.304 296.247 384.439 293.868Z" fill="#EDCB9F"/>
<path d="M398.694 308.843C397.463 307.976 396.911 307.75 396.261 306.383C397.362 304.313 401.193 305.382 402.923 306.253C401.144 307.176 400.209 307.566 398.694 308.843Z" fill="#E5BC8D"/>
<path d="M490.788 658.68C491.367 655 494.276 654.45 496.482 656.995L496.846 658.41C498.365 660.175 497.765 660.11 499.798 660.27C505.21 660.7 505.89 659.37 510.65 662.11C506.325 664.66 498.197 669.77 494.041 671.68C491.147 668.395 478.638 670.07 474.184 669.59C476.134 668.46 477.745 669.085 479.674 667.92C479.664 666.34 479.694 666.45 478.927 665.065C477.607 664.755 477.566 664.83 476.473 664.07C476.743 661.78 476.263 659.825 474.011 658.915L473.162 659.69C474.031 660.31 473.943 660.32 474.662 661.145C475.046 662.95 473.221 665.5 472.735 667.525L472.131 666.955C471.127 663.41 474.916 662.345 472.071 659.155C466.703 657.255 466.015 659.29 463.432 659.435L462.869 658.615L463.082 657.855C471.268 657.005 482.09 659.825 490.788 658.68Z" fill="#F8DEBF"/>
<path d="M490.788 658.68C491.366 655 494.276 654.45 496.482 656.995L496.845 658.41C496.03 659.055 495.89 659.075 494.963 659.575C493.017 659.695 492.573 659.38 490.788 658.68Z" fill="#FEEDDA"/>
<path d="M496.44 622.4C498.332 622.635 498.521 622.73 499.379 624.195C499.326 628.535 497.267 630.07 493.652 631.735C492.368 632.135 492.996 632.135 491.742 631.54C490.147 626.68 493.083 625.275 496.44 622.4Z" fill="#F8DEBF"/>
<path d="M426.174 247.939C425.028 246.155 422.796 245.611 422.409 243.499C423.51 241.694 426.28 239.744 428.114 241.413C429.435 243.748 431.215 246.539 431.945 249.051L431.426 249.397C428.333 247.833 429.21 247.588 426.174 247.939Z" fill="#FEEDDA"/>
<path d="M426.175 247.939C427.909 244.988 426.983 244.881 427.224 241.566L428.114 241.413C429.435 243.748 431.216 246.539 431.945 249.051L431.427 249.398C428.334 247.834 429.21 247.588 426.175 247.939Z" fill="#F8DEBF"/>
<path d="M408.709 310.833C409.42 311.482 409.162 311.209 409.504 312.236C408.678 314.612 408.292 316.363 406.201 317.648C404.26 317.586 401.545 317.655 399.788 317.048L399.592 316.264L400.29 315.991L401.601 316.453L402.311 316.069C401.948 314.695 401.8 313.98 401.585 312.574L402.327 311.623C405.038 311.718 403.454 313.414 406.535 314.253C408.118 313.098 407.788 312.945 408.709 310.833Z" fill="#E5BC8D"/>
<path d="M238.783 481.595C240.584 481.409 240.618 481.35 242.485 481.682C244.014 482.918 243.595 482.163 244 483.888C243.59 485.771 242.789 486.25 241.388 487.595C239.795 486.501 236.908 484.934 236.348 483.288C237.108 481.938 236.964 482.342 238.783 481.595Z" fill="#F8DEBF"/>
<path d="M455.714 263.236C459.838 265.213 461.628 267.098 459.68 271.828C455.383 270.973 454.081 267.104 455.714 263.236Z" fill="#F8DEBF"/>
<path d="M338.63 590.18L338.996 590.21C340.667 592.52 344.401 592.525 344.303 595.935L342.418 597.57L342.18 597.75L341.329 597.625C339.287 596.085 339.124 596.05 338.443 593.7C338.905 591.635 338.292 591.6 338.63 590.18Z" fill="#F8DEBF"/>
<path d="M432.942 239.501C436.409 240.899 437.913 241.684 437.458 245.661C435.497 246.047 434.895 246.255 433.295 245.497C432.359 243.826 432.807 241.512 432.942 239.501Z" fill="#F8DEBF"/>
<path d="M308.289 395.634L309.746 395.917C311.162 397.123 310.699 396.383 311.127 398.246C310.639 400.254 310.57 400.147 308.978 401.587C306.814 400.658 307.556 401.359 306.315 399.76C306.249 397.986 307.203 397.122 308.289 395.634Z" fill="#F8DEBF"/>
<path d="M419.95 293.855C421.208 294.86 421.703 295.123 422.515 296.544C422.092 298.62 421.546 298.6 419.858 300.461L419.148 300.822L417.974 299.502C417.773 297.329 418.863 295.931 419.95 293.855Z" fill="#F8DEBF"/>
<path d="M641.77 736.265C644.955 736.635 647.14 739.565 648.2 742.37C647.65 742.37 646.91 742.275 646.34 742.22C643.765 740.46 642.915 739.205 641.77 736.265Z" fill="#F8DEBF"/>
<path d="M511.135 606.85C512.73 608.995 510.465 609.97 511.25 613.32L512.61 614.145L512.875 615.5C510.9 615.5 510.75 615.495 509.675 614.03C509.105 611.425 509.87 609.145 511.135 606.85Z" fill="#F8DEBF"/>
<path d="M372.855 284.311C374.277 285.417 373.797 284.689 374.064 286.74C373.259 288.812 373.934 288.145 372.29 289.093C371.197 287.918 370.496 287.398 370.104 285.844C371.101 284.545 370.955 284.923 372.855 284.311Z" fill="#FEEDDA"/>
<path d="M217.213 526.81L218.349 527.11L218.46 527.96C217.556 529.805 217.07 530.14 215.599 531.645C214.894 531.315 214.313 530.975 213.634 530.595L213.551 529.68C214.831 528.54 215.823 527.82 217.213 526.81Z" fill="#F8DEBF"/>
<path d="M255.162 707.395C255.986 708.07 256.765 709.01 257.497 709.81C257.939 711.645 258.055 710.79 257.093 712.455C255.558 712.245 255.301 712.36 254.14 711.34C253.943 709.36 254.26 709.51 255.162 707.395Z" fill="#F8DEBF"/>
<path d="M397.262 199.701C399.661 199.959 398.767 199.442 400.23 200.93C400.514 202.688 400.334 202.739 399.619 204.337C398.61 203.878 398.111 203.381 397.229 202.696C396.434 200.783 396.472 201.747 397.262 199.701Z" fill="#F8DEBF"/>
<path d="M360.111 635.66C361.287 635.715 361.205 635.705 362.245 636.265C363.294 637.845 362.987 639.5 362.929 641.455C360.772 639.705 359.813 638.515 360.111 635.66Z" fill="#F8DEBF"/>
<path d="M514.475 644.3C515.155 644.33 515.765 644.73 516.07 645.335C516.38 645.945 516.335 646.67 515.955 647.235C515.575 647.8 514.925 648.12 514.245 648.07C513.215 647.99 512.435 647.1 512.5 646.07C512.565 645.04 513.445 644.25 514.475 644.3Z" fill="#F8DEBF"/>
<path d="M494.808 232.689C495.969 233.203 495.9 233.228 496.79 234.162C496.325 235.779 495.975 235.592 494.345 236.907C493.068 236.495 493.622 236.805 492.751 235.832C492.903 234.508 493.873 233.735 494.808 232.689Z" fill="#F8DEBF"/>
<path d="M337.15 605.415C338.601 606.975 337.554 609.585 340.113 609.79C340.823 608.575 340.798 608.335 341.943 607.595L343.221 608.295C342.17 609.76 342.244 609.72 340.794 610.775C338.921 610.83 339.731 611.095 338.264 609.99C337.176 607.935 337.22 607.805 337.15 605.415Z" fill="#F8DEBF"/>
<path d="M505.565 644.29C507.015 644.98 506.495 644.47 507.24 645.805C506.265 647.315 506.165 647.01 504.32 647.985C503.37 647.215 503.395 647.175 502.7 646.145C503.36 644.87 503.865 645.035 505.565 644.29Z" fill="#F8DEBF"/>
<path d="M349.937 749.76C353.108 750.745 354.26 750.83 354.643 754.36L353.257 754.215C351.467 753.085 350.964 751.655 349.937 749.76Z" fill="#F8DEBF"/>
<path d="M825.43 573.21C826.24 572.745 827.265 572.995 827.77 573.77C828.28 574.55 828.09 575.59 827.345 576.14C826.825 576.53 826.13 576.595 825.54 576.31C824.955 576.025 824.575 575.445 824.55 574.79C824.525 574.14 824.865 573.53 825.43 573.21Z" fill="#F8DEBF"/>
<path d="M216.635 500.75C218.542 501.375 217.732 500.86 219.084 502.465C219.556 504.385 219.489 504.31 219.09 506.29C218.713 506.09 218.1 505.595 217.732 505.32C216.979 503.225 216.829 502.925 216.635 500.75Z" fill="#F8DEBF"/>
<path d="M554.13 244.233C555.805 244.364 555.715 244.341 557.25 245.014C558.325 246.72 558.02 246.065 558.01 248.339L556.9 248.475C555.605 247.56 554.935 245.768 554.13 244.233Z" fill="#F0CFA6"/>
<path d="M467.264 602.395C468.135 603.77 467.369 607.37 466.355 608.555C465.322 608.13 465.833 608.425 464.856 607.615C464.887 605.78 466.264 604.03 467.264 602.395Z" fill="#F8DEBF"/>
<path d="M485.9 626.91C486.907 627.55 486.924 627.46 487.399 628.535C486.648 629.765 486.345 629.575 484.771 630.315C483.979 629.965 483.875 629.825 483.162 629.32L483.374 628.44L485.9 626.91Z" fill="#FEEDDA"/>
<path d="M376.593 618.5C377.687 618.935 377.209 618.6 378.002 619.545C376.909 622.57 376.994 622.22 379.271 624.12C377.809 624.735 377.66 624.415 376.581 623.555C375.915 621.485 376.232 620.74 376.593 618.5Z" fill="#F8DEBF"/>
<path d="M505.035 609.65C505.84 610.035 505.43 609.76 506.2 610.55C505.655 612.94 505.575 613.275 506.055 615.665C505.6 615.72 505.32 615.565 504.82 615.425C503.81 613.565 504.405 611.53 505.035 609.65Z" fill="#F8DEBF"/>
<path d="M598.79 787.335C599.78 787.665 599.79 787.765 600.69 788.325C601.625 789.895 601.395 790.5 601.245 792.325C600.89 792.09 600.74 792.015 600.42 791.685C599.29 790.525 598.7 788.95 598.79 787.335Z" fill="#F8DEBF"/>
<path d="M375.303 209.883L375.83 210.803C375.225 212.996 373.773 213.555 371.851 214.4L371.394 213.333C372.806 212.169 373.966 211.132 375.303 209.883Z" fill="#F8DEBF"/>
<path d="M356.518 782.14L357.21 782.63L356.959 783.36L353.887 784.81C353.132 784.71 353.566 784.845 352.694 784.155L352.871 783.67C354.115 782.5 354.849 782.505 356.518 782.14Z" fill="#FEEDDA"/>
<path d="M237.115 638.4C239.517 639.305 242.338 640.005 243.759 641.815C240.585 642.005 239.06 640.68 237.115 638.4Z" fill="#F8DEBF"/>
<path d="M682.425 266.451C684.04 266.5 687.125 267.617 688.075 268.995L687.105 269.242C684.81 268.508 684.38 267.985 682.425 266.451Z" fill="#F8DEBF"/>
<path d="M624.905 752.43L624.95 753.345C623.855 755.405 623.785 755.46 621.955 756.96L621.59 755.48C622.23 753.94 623.47 753.39 624.905 752.43Z" fill="#F8DEBF"/>
<path d="M425.279 196.869C426.073 197.047 425.618 196.884 426.568 197.539C426.027 198.523 424.491 198.886 423.183 199.473L422.789 199.717L422.498 199.119C423.313 197.785 423.913 197.617 425.279 196.869Z" fill="#FEEDDA"/>
<path d="M807.03 561.225L808.115 561.81L808.07 562.52L805.755 563.85C804.33 563.405 804.91 563.785 803.925 562.715C804.9 561.58 805.34 561.76 807.03 561.225Z" fill="#F8DEBF"/>
<path d="M412.879 698.735C414.665 699.88 415.022 703.01 415.57 705.22C413.83 704.105 413.429 700.905 412.879 698.735Z" fill="#F8DEBF"/>
<path d="M225.954 488.923C227.668 489.358 230.067 491.032 231.659 492.02C228.53 492.14 227.611 491.368 225.954 488.923Z" fill="#F8DEBF"/>
<path d="M653.43 237.296C655.385 238.828 654.595 240.919 653.69 242.815C652.84 241.261 653.21 239.078 653.43 237.296Z" fill="#F8DEBF"/>
<path d="M346.339 530.96C347.888 531.925 348.395 531.81 350.13 531.8L350.678 532.745C349.604 533.14 349.072 533.215 347.941 533.435C346.38 532.46 347.037 533.135 346.339 530.96Z" fill="#F8DEBF"/>
<path d="M390.789 276.659L391.272 276.565C392.285 277.583 392.26 279.024 392.487 280.536C391.04 279.273 391.118 279.233 390.333 277.57L390.789 276.659Z" fill="#F8DEBF"/>
<path d="M433.48 619.865C434.538 620.88 434.861 622.36 435.107 623.775L434.334 624.085C433.404 622.72 433.556 621.545 433.48 619.865Z" fill="#FEEDDA"/>
<path d="M535.245 638.005C535.42 637.9 535.28 637.95 535.82 637.975C534.585 638.91 533.545 639.045 532.04 639.435L531.01 638.64C531.78 637.815 533.785 638.06 535.245 638.005Z" fill="#FEEDDA"/>
<path d="M362.222 770.8L362.67 771.2C362.856 772.715 362.209 773.06 361.204 774.735L360.723 774.31C360.447 772.975 361.264 772.375 362.222 770.8Z" fill="#F8DEBF"/>
<path d="M515.47 618.825C516.67 619.76 516.78 621.64 517.155 623.355L516.18 622.83C515.195 621.165 515.54 621.065 515.47 618.825Z" fill="#FEEDDA"/>
<path d="M345.936 300.738C347.368 302.31 346.668 303.543 346.221 305.515L345.604 305.046C345.607 303.367 345.735 302.376 345.936 300.738Z" fill="#FEEDDA"/>
<path d="M360.749 260.872C362.732 261.421 362.792 261.64 364.222 263.25C361.941 263.295 361.976 262.567 360.749 260.872Z" fill="#F8DEBF"/>
<path d="M680.095 308.707L680.57 308.582C681.375 309.585 681.185 310.215 681.385 311.73L680.985 311.856L680.465 311.55L680.095 308.707Z" fill="#F8DEBF"/>
<path d="M332.628 330.83C333.176 332.67 333.075 332.662 332.738 334.475L332.317 334.203C331.801 332.44 331.998 332.916 332.628 330.83Z" fill="#F8DEBF"/>
</svg>
