<svg width="838" height="838" viewBox="0 0 838 838" fill="none" xmlns="http://www.w3.org/2000/svg">
<path d="M408.385 154.498C436.176 151.284 468.039 153.32 495.346 159.847C502.72 161.48 509.54 165.246 516.709 167.403C519.532 168.252 524.964 166.052 528.009 166.147C545.865 166.706 557.223 175.411 569.311 187.397C613.144 186.906 635.359 239.285 601.955 267.214C637.546 279.923 648.694 289.846 664.602 324.535C680.382 358.946 689.652 393.386 700.024 429.378C718.056 491.945 725.68 515.745 688.567 573.815C697.136 602.229 711.575 640.507 695.9 668.286C672.968 708.903 632.628 707.567 592.423 706.459L591.134 706.692C585.703 706.29 577.443 706.546 571.714 706.558L537.792 706.61C512.585 706.593 483.253 705.788 458.536 706.651L457.673 706.336C450.258 707.129 436.87 706.704 428.989 706.622C411.004 706.255 389.484 707.643 371.725 706.61C363.858 706.663 355.991 706.622 348.125 706.494C338.775 707.293 320.549 706.406 310.494 706.622C304.315 706.756 278.372 706.89 274.192 706.085L273.538 706.237C266.06 707.217 247.99 706.243 239.753 705.922C218.808 706.202 197.583 707.065 177.23 698.91C146.769 686.701 120.188 651.241 131.076 617.477C133.651 609.497 156.076 600.438 164.049 597.218C154.52 578.47 156.622 553.235 171.991 538.174C179.233 527.44 202.113 514.648 213.671 508.768C216.554 507.298 222.847 503.6 225.772 502.666C226.075 502.077 226.424 501.179 226.693 500.543C225.732 498.624 225.341 498.98 222.867 497.772C200.534 499.37 178.272 501.844 156.132 505.186C153.966 500.98 151.997 493.59 150.482 488.87C147.699 480.196 144.869 471.534 141.994 462.891L129.889 426.262C127.554 419.178 120.253 400.607 122.386 393.456C124.182 387.432 136.004 379.597 141.586 375.371C152.65 366.995 163.843 358.79 175.16 350.76C188.863 340.897 206.464 327.008 220.73 318.688C225.177 310.927 227.036 307.662 233.897 301.354C241.176 294.662 258.057 287.839 267.687 288.58C277.916 239.859 297.816 192.444 346.941 171.294C354.874 167.719 361.208 164.595 369.705 162.547C369.964 162.378 371 162.033 371.337 161.908C378.827 159.345 400.515 154.303 408.385 154.498Z" fill="#141414"/>
<path d="M533.196 309.486C558.502 320.482 583.156 325.348 593.505 354.158C598.031 365.094 598.921 376.889 602.435 388.089C604.169 393.605 608.904 396.494 614.058 393.275C617.153 391.341 612.726 378.384 612.005 375.464C607.973 359.137 604.43 340.911 592.609 328.224C585.762 321.534 579.101 319.309 570.753 314.573C557.158 306.857 528.17 301.428 524.609 283.809C523.94 280.486 528.373 279.221 531.381 279.637C537.838 280.53 543.923 283.692 550.218 285.404C570.625 293.203 597.432 297.835 611.592 315.928C622.569 329.954 627.287 347.795 632.517 364.48C634.629 371.218 637.596 390.376 647.817 384.798C650.26 379.125 637.386 339.306 634.239 331.401C627.095 313.454 615.92 301.127 598.031 293.559C589.893 290.117 581.469 286.978 573.138 284.047C566.908 281.856 560.107 280.044 554.371 276.748C551.928 275.346 548.711 273.232 547.833 270.354C547.42 268.996 547.769 267.892 548.508 266.738C549.805 264.699 552.539 263.254 554.895 263.03C565.454 262.021 623.261 287.089 631.65 294.523C641.237 303.019 650.301 324.315 655.211 336.392C668.789 369.809 678.643 405.534 687.742 440.398C692.401 458.267 698.114 477.041 698.917 495.557C699.47 508.24 697.247 520.17 692.774 532.035C689.661 540.286 685.258 548.116 681.151 555.9C672.192 572.64 662.843 589.171 653.111 605.474C633.657 638.664 612.877 674.435 592.377 706.766L591.091 707C585.675 706.597 577.438 706.854 571.725 706.866L537.896 706.918C512.759 706.901 483.509 706.095 458.861 706.959L458 706.644C463.608 700.571 469.891 692.221 475.179 685.588L504.039 649.28L577.821 555.8C589.096 541.226 600.841 524.415 611.964 510.412C620.358 513.098 630.789 521.629 636.566 519.825C639.742 515.072 625.972 504.924 622.784 501.099C610.87 486.805 600.061 470.665 592.528 453.567C578.543 421.831 581.161 384.197 568.182 352.594C565.035 344.933 543.173 335.863 537.228 329.482C528.653 320.808 529.007 320.177 533.196 309.486Z" fill="#FEF3DB"/>
<path d="M536.077 670C538.137 671.946 537.809 670.87 538 673.022C536.238 675.065 533.407 675.812 530.863 676.811C530.069 677.114 529.938 676.972 529.012 676.927L529 675.883C530.917 673.441 533.575 671.804 536.077 670Z" fill="#F8DFB3"/>
<path d="M155.976 505C153.82 500.805 151.86 493.434 150.352 488.728C147.581 480.077 144.765 471.438 141.903 462.817L129.853 426.286C127.529 419.221 120.261 400.7 122.384 393.568C124.172 387.56 135.94 379.746 141.496 375.531C152.51 367.177 163.651 358.995 174.918 350.986C188.557 341.149 206.078 327.298 220.279 319C214.79 333.989 216.675 348.211 222.798 362.84C228.688 376.914 235.456 378.435 243 386.963C239.714 402.042 236.708 411.759 240.462 427.11C223.528 443.506 208.133 461.134 217.277 487.087C218.773 491.334 220.878 493.516 223.094 497.187L222.406 497.606C200.175 499.2 178.015 501.666 155.976 505Z" fill="#E4C290"/>
<path d="M177.447 408C178.521 408.225 179.435 408.48 180.489 408.76C181.951 410.042 182.353 410.178 183 411.874L182.393 412L180.727 410.506L179.13 410.043C177.243 410.775 177.119 410.956 175 410.966C175.555 409.357 175.977 409.322 177.447 408Z" fill="#F8DFB3"/>
<path d="M274 706.25C300.402 694.946 320.987 683.366 345.692 669.44C368.089 656.985 390.055 643.771 411.546 629.815C470.419 591.324 525.831 547.833 583 507C559.689 551.115 442.737 643.199 398.986 673.901C388.128 681.51 377.09 688.861 365.886 695.95C362.083 698.309 350.875 704.487 347.97 706.659C338.616 707.459 320.381 706.571 310.321 706.787C304.138 706.922 278.182 707.056 274 706.25Z" fill="#F58414"/>
<path d="M372 706.611C387.95 694.276 404.465 683.456 420.72 671.774C436.526 660.488 451.861 648.561 466.688 636.011C489.034 617.193 510.872 597.781 532.186 577.804C540.369 570.168 549.811 560.013 558 553C533.352 586.437 505.365 618.936 478.636 650.724C468.961 662.266 459.146 673.698 449.191 685.007C443.742 691.25 435.256 701.312 429.212 706.622C411.243 706.255 389.743 707.642 372 706.611Z" fill="#F58414"/>
<path d="M172 538C179.272 527.42 202.244 514.81 213.85 509.014C216.745 507.565 223.063 503.92 226 503C224.056 508.284 199.792 518.899 194.028 521.63C188.109 524.436 176.98 536.85 172 538Z" fill="#040404"/>
<path d="M240.029 706.218L239 705.233C242.508 703.281 265.623 703.959 270.945 705.122C271.662 705.282 272.391 706.033 273 706.55C265.703 707.585 248.068 706.557 240.029 706.218Z" fill="#040404"/>
<path d="M371 161.797C378.48 159.101 400.141 153.8 408 154.006C405.646 156.561 401.906 155.461 397.452 157.309L399.529 156.971C394.886 158.51 374.75 163.003 371 161.797Z" fill="#040404"/>
<path d="M347 170.755C355.015 167.176 361.415 164.05 370 162C366.553 164.969 351.853 172.444 347 170.755Z" fill="#040404"/>
<path d="M483.651 265L488.696 270.544C497.358 275.85 501.167 277.46 511.054 279.004C510.902 294.211 514.046 296.845 524.551 306.638C519.617 313.062 519.284 313.506 517.622 321.369C514.682 347.318 509.362 372.298 512.541 398.25C514.431 413.696 540.505 439.805 535.319 451.655C518.339 490.486 507.525 427.201 505.763 424.446L504.871 424.374C501.091 427.671 501.33 432.253 500.7 436.699C496.582 465.74 532.741 477.207 524.126 507.065C517.091 531.42 492.896 541.592 469.313 539.832C453.529 538.648 439.157 533.186 428.383 521.504C423.028 515.727 421.494 508.231 418.776 505.398C417.435 506.61 417.365 508.382 417.271 510.09C416.525 524.809 424.778 536.235 437.08 543.429C443.082 546.938 449.114 548.5 455.116 551.234C462.121 554.423 449.248 566.391 446.016 568.856C437.739 575.117 427.327 577.874 417.038 576.54C406.329 575.1 396.651 569.824 390.205 561.127C382.716 551.024 382.628 542.589 382.941 530.639C368.351 550.925 376.9 566.408 392.333 581.314C384.74 583.016 379.873 582.748 372.703 578.283C365.344 573.683 360.162 566.303 358.336 557.821C356.261 548.389 358.338 540.77 361.516 531.974C330.971 548.424 348.123 587.464 375.589 594.442C387.487 597.467 387.353 603.425 381.183 612.408C371.96 628.485 337.758 642.202 336.564 613.504C335.9 597.525 340.083 584.642 333.817 568.18C331.934 573.508 331.024 579.081 329.253 584.176C323.634 600.347 315.08 617.888 332.636 630.467C325.199 642.657 311.508 653.144 297.597 656.461C280.28 660.594 253.704 657.195 248.982 636.489C247.675 630.94 248.605 625.582 251.822 620.843C267.949 597.077 315.74 604.964 310.071 566.192C309.063 559.296 303.49 552.109 298.981 546.92C285.56 531.472 290.704 517.756 297.407 500.717C289.165 508.709 281.068 517.966 280.705 530.103C280.109 550.004 310.2 566.939 294.27 582.946C283.361 593.911 259.896 595.526 245.898 610.373C242.382 614.133 239.553 618.482 237.54 623.221C235.178 628.934 233.38 643.374 225.92 641.695C202.524 636.425 211.14 611.872 225.258 601.052C240.008 589.743 260.797 582.87 264.013 563.266C264.666 540.013 236.489 537.331 265.465 510.743C269.019 507.484 272.419 505.252 276.743 502.477C269.288 504.646 263.332 507.24 256.957 511.956C248.785 518.001 238.855 526.902 242.647 538.305C244.627 544.256 250.707 548.675 251.493 555.186C251.944 558.433 251.689 561.564 250.231 564.712C245.116 575.753 227.987 580.976 217.012 576.878C214.244 575.846 211.681 571.794 210.947 569.125C209.382 563.925 211.017 556.696 211.917 551.223C198.935 566.169 200.043 581.675 215.525 594.162C213.112 598.312 211.583 600.784 208.038 604.212C196.629 602.049 186.116 598.767 179.995 588.548C159.182 553.805 197.225 532.627 222.886 519.161C236.341 512.101 253.437 502.349 256.84 487.017C258.658 475.918 259.8 466.9 267.191 457.792C269.804 454.325 284.866 441.887 284.141 439.451C274.491 437.286 257.957 453.101 253.576 461.367C249.329 469.378 246.714 491.605 237.149 492.625C228.855 489.81 230.05 467.635 233.472 460.601C248.166 430.402 276.069 427.26 284.615 391.715C286.743 391.194 285.767 391.086 287.659 391.849C289.011 394.024 288.625 406.524 289.078 410.026C289.618 414.205 298.279 436.421 300.04 438.63C301.957 435.256 302.133 434.131 305.629 431.491C307.453 430.113 309.498 427.468 311.263 426.152C313.079 428.987 318.401 432.022 321.443 434.498L320.929 435.158C313.723 444.225 278.347 466.451 281.794 477.265C283.055 477.667 284.82 476.781 285.906 476.052C304.404 463.644 323.052 453.751 344.559 447.53C353.498 444.945 359.87 439.654 367.683 434.887C376.271 429.926 395.436 430.41 405.016 432.601C418.496 437.007 425.531 445.246 432.035 457.641C436.363 464.839 437.955 476.641 446.209 480.389C449.388 481.829 452.479 477.824 451.493 474.723C449.172 467.402 446.605 459.512 443.56 452.456C440.131 447.601 437.506 442.309 433.627 437.591C429.596 432.688 424.026 428.11 420.398 423.102C415.463 416.28 411.742 408.288 407.449 400.956C405.25 394.421 400.805 393.293 395.403 388.654C395.923 380.83 399.942 360.927 401.231 351.705C403.581 334.928 405.005 311.477 408.294 295.506C408.498 295.72 408.749 295.885 409.006 296.031C413.637 298.651 448.104 287.13 454.906 285.096C467.569 281.17 476.989 279.75 489.938 277.946C489.326 275.701 488.848 273.133 488.364 270.834C487.582 270.649 480.372 271.225 478.698 271.263C480.442 269.189 481.592 267.314 483.651 265Z" fill="#FEF3DB"/>
<path d="M408.8 295.404C409.003 295.618 409.252 295.783 409.507 295.928C414.106 298.548 448.331 287.032 455.085 285L456.376 289.551C440.425 293.509 422.4 303.503 415.334 319.207C422.846 341.029 427.601 348.689 449.194 358.104C446.559 361.69 445.661 363.019 443.668 366.976C453.092 383.8 470.155 388.261 487.277 379.786C493.225 376.842 497.783 371.142 502 366.14C500.054 374.25 497.059 382.094 495.38 390.216C491.8 407.527 487.485 424.376 482.996 441.464C481.218 438.413 472.64 422.481 471.354 421.811C465.406 424.896 472.953 452.243 472.426 458.996L471.123 459.912C471.001 462.954 473.231 468.854 474.274 472C465.817 471.079 452.333 433.828 448.812 425.408C446.895 432.695 445.829 443.617 443.819 452.268C440.413 447.415 437.807 442.126 433.955 437.41C429.953 432.511 424.421 427.935 420.819 422.93C415.919 416.112 412.223 408.124 407.961 400.796C405.777 394.265 401.363 393.138 396 388.501C396.516 380.681 400.506 360.79 401.786 351.572C404.12 334.805 405.534 311.366 408.8 295.404Z" fill="#F58414"/>
<path d="M483.979 265L489.039 270.559C497.727 275.878 501.547 277.492 511.463 279.04C511.311 294.286 514.464 296.927 525 306.745C520.051 313.185 519.717 313.63 518.05 321.514C515.113 314.339 524.105 309.274 522.531 305.682L521.332 305.325L520.291 305.991C518.337 310.778 515.722 309.914 510.17 312.681C510.808 315.546 512.41 317.478 510.164 320.407C509.31 322.374 508.087 325.696 506.01 325.971C497.107 327.154 486.611 325.191 477.286 325.387C474.759 335.995 467.944 343.18 456.197 340.306C451.739 339.215 447.925 336.337 445.661 332.35C444.485 330.296 443.718 327.659 443.034 325.372C436.821 325.579 429.748 325.934 423.594 325.896C427.619 336.262 435.013 343.129 445.146 347.543C455.793 352.245 467.885 352.485 478.708 348.209C487.29 344.743 490.145 339.232 496.943 334.321C491.245 357.274 469.95 363.236 449.2 358.48C427.391 349.035 422.588 341.352 415 319.462C422.137 303.708 440.343 293.684 456.454 289.713L455.149 285.148C467.85 281.211 477.298 279.788 490.285 277.979C489.671 275.729 489.191 273.154 488.706 270.849C487.922 270.663 480.691 271.241 479.012 271.279C480.761 269.2 481.914 267.32 483.979 265Z" fill="#141414"/>
<path d="M483.891 265L488.962 270.508C497.668 275.779 501.497 277.379 511.434 278.912C511.281 294.02 514.441 296.636 525 306.365C520.04 312.747 519.706 313.188 518.035 321C515.092 313.891 524.103 308.871 522.526 305.312L521.324 304.958L520.281 305.619C518.322 310.362 515.702 309.506 510.138 312.247C510.777 315.087 512.384 317.001 510.132 319.903C507.658 293.281 478.662 287.212 456.307 289.488L455 284.965C467.728 281.064 477.196 279.654 490.211 277.861C489.595 275.631 489.115 273.08 488.628 270.796C487.843 270.612 480.596 271.184 478.914 271.222C480.667 269.162 481.822 267.299 483.891 265Z" fill="#E4C290"/>
<path d="M459.76 297.329C472.113 295.717 495.389 299.857 500 313.522C497.706 314.933 475.29 312.796 470.895 312.516C457.268 311.436 442.879 313.019 429 313.394C437.163 303.767 447.555 299.057 459.76 297.329Z" fill="#FEF3DB"/>
<path d="M472.455 459C475.456 462.627 478.435 466.164 481.68 469.528C491.108 479.266 503.113 488.9 501.917 504.001C500.895 516.911 487.392 523.564 475.654 521.687C459.683 519.131 450.964 509.509 446 494.762C456.223 504.082 463.985 514.006 479.404 513.675C486.719 513.524 493.592 507.156 492.292 499.759C490.231 488.022 478.841 484.124 474.307 471.969C473.262 468.831 471.027 462.947 471.149 459.913L472.455 459Z" fill="#141414"/>
<path d="M357.409 459.713C381.956 456.297 411.763 464.852 417 492C407.929 489.106 397.82 480.72 386.838 476.053C360.295 467.21 340.214 471.958 314 476.873C324.54 465.761 342.545 461.084 357.409 459.713Z" fill="#141414"/>
<path d="M356.764 484.026C362.625 483.832 369.173 484.737 374.696 486.741C378.015 487.947 384.93 492.233 382.488 496.4C379.028 497.76 366.114 496.423 361.767 496.138C355.846 495.814 334.636 495.563 333 489.53C335.568 485.363 352.032 484.322 356.764 484.026Z" fill="#141414"/>
<path d="M292 258.614C300.98 231.284 314.341 209.999 338.534 193.631C378.658 166.484 433.959 164.895 480.271 173.982C461.028 178.162 440.9 198.02 449.069 218.933C453.779 230.993 463.13 235.923 474.332 240.596C475.595 251.432 477.348 256.15 483.723 264.862C481.668 267.171 480.521 269.041 478.78 271.11C480.451 271.073 487.648 270.497 488.428 270.682C488.911 272.976 489.389 275.538 490 277.778C477.074 279.578 467.671 280.994 455.031 284.912C448.242 286.941 413.837 298.436 409.214 295.821C408.958 295.676 408.708 295.511 408.504 295.298C405.22 311.232 403.799 334.63 401.453 351.368C400.166 360.569 396.155 380.427 395.636 388.233C401.028 392.861 405.465 393.987 407.66 400.506C407.642 408.192 407.281 411.233 403.869 417.98C392.857 418.15 381.588 417.203 370.588 416.944C357.611 416.638 345.026 417.35 332.09 415.789C333.433 411.05 335.711 407.286 337.857 402.914C355.216 367.55 372.062 331.594 385.964 294.72C388.293 288.543 398.291 264.532 395.622 259.92C393.293 257.974 365.178 258.748 359.606 258.736L292 258.614Z" fill="#FEF3DB"/>
<path d="M478.817 271.454C480.483 271.417 487.656 270.855 488.433 271.036C488.915 273.279 489.391 275.785 490 277.976C477.117 279.736 467.745 281.122 455.147 284.954C448.381 286.938 414.09 298.181 409.483 295.624C409.227 295.482 408.978 295.32 408.775 295.112C408.177 291.822 407.324 289.308 408.897 286.397C416.127 281.122 467.316 273.074 478.817 271.454Z" fill="#141414"/>
<path d="M392.506 222.145C398.408 222.039 428.062 221.065 431 226.08C428.327 229.732 403.86 228.606 398.472 228.602C392.525 228.616 360.566 230.81 359 224.746L359.713 223.704C364.597 221.741 386 222.206 392.506 222.145Z" fill="#E4C290"/>
<path d="M267.031 316C273.073 321.276 287.294 318.908 296.306 320.226C300.855 344.071 311.773 358.867 338 360.257C330.02 376.04 321.818 391.206 315.795 407.855C313.216 414.985 313.164 420.447 311.549 425.599C309.768 426.907 307.703 429.536 305.862 430.905C302.333 433.529 302.156 434.646 300.221 438C298.443 435.804 289.701 413.727 289.156 409.573C288.698 406.093 289.087 393.671 287.723 391.509C285.814 390.751 286.799 390.858 284.651 391.376C284.834 388.597 285.288 388.475 284.245 386.311C282.988 386.284 283.056 386.062 282.344 386.895C276.13 394.166 274.551 400.52 266.96 407.089C262.567 411.254 257.904 415.133 253 418.702C255.499 391.708 263.598 375.759 266.718 348.948C266.431 344.392 268.401 340.625 263.325 338.621C265.453 332.31 264.561 321.161 267.031 316Z" fill="#E4C290"/>
<path d="M266.654 349C274.025 357.988 271.738 373.457 271.406 384.103C271.172 391.607 267.275 402.022 266.894 407.347C262.522 411.526 257.881 415.419 253 419C255.488 391.911 263.548 375.906 266.654 349Z" fill="#FEF3DB"/>
<path d="M519.55 170C520.403 170.31 520.421 170.188 520.949 170.743C522.975 172.87 526.835 173.69 529.697 174.76C539.56 178.443 545.852 182.781 552 191.248C543.757 197.523 539.891 201.751 533.621 209.935C516.386 197.238 500.527 196.508 484.952 212.903C480.134 218.891 478.137 223.829 475.693 231C469.725 227.598 462.248 222.96 460.629 215.927C454.022 187.292 501.252 174.572 519.55 170Z" fill="#F58414"/>
<path d="M567.946 199.203C574.947 198.581 582.023 199.222 587.764 203.527C611.222 221.106 606.041 240.808 592.443 261C583.983 257.441 575.408 254.174 566.727 251.204L570.974 247.754C574.235 243.753 577.245 238.182 576.674 232.874C576.201 228.521 572.759 222.275 567.73 222.939C565.444 225.355 570.414 233.187 567.987 236.23C553.811 254.018 538.567 226.513 547.831 213.07C552.627 206.112 559.487 201.083 567.946 199.203Z" fill="#F58414"/>
<path d="M286.693 278C292.607 278.289 298.527 278.388 304.447 278.298C304.438 283.101 303.883 291.684 306.546 295.507C307.678 296.829 311.054 297.147 312.635 297.176C332.272 297.534 332.363 297.501 330.769 279.279C345.322 279.043 360.407 279.253 375 279.269L370.759 291.258C368.508 297.185 366.19 303.086 363.805 308.96C350.723 308.944 288.469 311.375 282.548 308.857C280.375 304.172 285.273 283.925 286.693 278Z" fill="#FEF3DB"/>
<path d="M531.522 347L533.497 347.556C543.296 357.459 533.878 401.733 552.556 409.846C562.068 413.977 565.361 399.314 566.891 393.834C569.188 405.493 571.075 421.725 572.834 433.736C574.902 445.953 557.11 439.758 551.495 436.619C539.704 430.025 530.702 415.812 527.355 403.047C523.575 388.625 523.921 360.007 531.522 347Z" fill="#FEF3DB"/>
<path d="M507.757 213.127C514.195 212.784 518.686 212.898 524.599 216.575C530.361 219.413 538.481 232.787 533.395 238.746C525.356 248.168 519.206 236.262 514.369 230.749C513.525 229.793 512.606 230.102 511.687 230.203C503.44 236.971 514.034 248.56 520.449 251.693C523.616 253.239 524.691 253.392 528.113 253.838L531.673 253.913L532.597 254.887C533.002 259.648 525.003 266.878 521.304 267.544C497.111 271.902 478.894 244.075 492.852 223.216C496.585 217.646 501.729 214.325 507.757 213.127Z" fill="#F58414"/>
<path d="M251.95 368L251.505 367.679C247.835 365.063 246.062 363.095 243.591 359.364C233.134 343.58 232.457 321.505 248.05 308.791C253.818 304.09 259.442 302.422 266.314 300C266.372 305.149 267.113 310.198 266.985 315.303C264.59 320.496 265.455 331.716 263.391 338.067C258.099 344.78 254.611 359.351 251.95 368Z" fill="#FEF3DB"/>
<path d="M310 322.006C324.243 321.91 340.262 322.978 355 323.097C352.977 328.962 350.131 335.105 347.632 340.828C337.487 354.21 322.625 346.864 314.913 335.114C311.947 330.593 311.028 327.227 310 322.006Z" fill="#F58414"/>
<path d="M196.743 131.486C231.055 127.228 262.33 151.421 266.531 185.471C270.731 219.52 246.258 250.481 211.923 254.555C177.718 258.614 146.653 234.45 142.469 200.53C138.285 166.609 162.56 135.728 196.743 131.486Z" fill="#F58414"/>
<path d="M224 146C227.263 146.82 228.895 147.879 230 150.909C229.613 152.832 230.145 152.218 228.779 153.117L226.687 152.337C225.5 153.811 226.219 153.333 224.591 154C222.931 151.827 226.315 150.591 224 146Z" fill="#F58414"/>
</svg>
